{"glyphs":{"0":{"ha":732,"x_min":64,"x_max":668,"o":"m 247 217 q 266 168 247 217 q 371 119 285 119 q 490 210 457 119 q 524 471 524 301 q 485 782 524 685 q 360 879 446 879 q 241 788 274 879 q 208 525 208 696 q 247 217 208 314 m 588 828 q 628 768 588 828 q 668 497 668 707 q 588 168 668 288 q 365 49 508 49 q 143 168 222 49 q 64 497 64 288 q 143 828 64 707 q 365 950 222 950 q 588 828 508 950 z "},"1":{"ha":460,"x_min":39,"x_max":422,"o":"m 39 67 q 39 88 39 74 q 44 118 39 101 q 140 140 111 125 q 169 189 169 154 l 169 808 l 43 790 q 46 826 43 817 q 272 951 163 897 l 301 939 l 301 146 q 422 118 356 122 q 417 67 422 88 l 39 67 z "},"2":{"ha":651,"x_min":54,"x_max":581,"o":"m 413 175 q 505 203 476 175 q 546 307 533 232 q 581 300 567 307 q 554 67 581 167 l 67 67 q 54 158 54 118 q 353 513 283 408 q 422 694 422 617 q 385 815 422 772 q 290 857 347 857 q 138 717 171 857 q 94 718 121 715 q 94 783 94 739 q 101 883 94 828 q 321 949 206 949 q 501 885 436 949 q 567 719 567 821 q 525 572 567 650 q 243 263 490 510 q 156 175 186 206 l 413 175 z "},"3":{"ha":642,"x_min":51,"x_max":572,"o":"m 221 525 q 356 585 306 531 q 407 710 407 639 q 375 819 407 782 q 288 857 343 857 q 131 717 164 857 q 88 718 114 715 q 88 783 88 739 q 94 883 88 828 q 332 949 208 949 q 488 892 425 949 q 550 756 550 836 q 502 615 550 676 q 375 521 454 553 q 572 292 572 465 q 489 117 572 186 q 284 49 406 49 q 51 142 163 49 q 86 194 63 176 q 251 138 161 138 q 389 178 340 138 q 438 289 438 219 q 221 467 438 456 l 221 525 z "},"4":{"ha":683,"x_min":38,"x_max":646,"o":"m 396 371 l 396 731 l 136 371 l 396 371 m 515 294 l 515 138 q 606 117 556 119 q 600 67 606 85 l 304 67 q 303 88 303 75 q 308 117 303 101 q 376 138 356 124 q 396 189 396 153 l 396 294 l 71 294 q 38 360 44 328 l 446 938 l 515 938 l 515 371 l 639 371 q 646 324 646 343 q 644 294 646 306 l 515 294 z "},"5":{"ha":671,"x_min":51,"x_max":600,"o":"m 188 554 q 365 615 272 615 q 528 549 457 615 q 600 359 600 482 q 508 142 600 236 q 285 49 415 49 q 51 142 156 49 q 88 196 64 176 q 258 139 165 139 q 408 197 351 139 q 464 343 464 256 q 421 478 464 431 q 305 525 378 525 q 131 456 232 525 l 106 468 l 150 917 l 428 917 q 546 976 519 917 q 581 969 565 976 q 547 807 575 896 l 217 807 l 188 554 z "},"6":{"ha":678,"x_min":75,"x_max":622,"o":"m 246 194 q 265 161 246 194 q 347 128 283 128 q 453 183 411 128 q 494 329 494 239 q 456 466 494 414 q 346 518 417 518 q 215 472 275 518 q 208 390 208 418 q 246 194 208 260 m 622 350 q 537 139 622 228 q 340 50 451 50 q 154 136 228 50 q 75 394 75 229 q 181 713 75 560 q 483 951 288 867 q 524 899 524 926 q 231 544 299 788 q 399 604 299 604 q 559 535 499 604 q 622 365 619 467 q 622 350 622 357 z "},"7":{"ha":588,"x_min":49,"x_max":567,"o":"m 254 67 q 214 65 239 65 q 150 76 189 65 l 407 671 l 479 815 l 211 815 q 121 794 147 815 q 83 711 94 774 q 49 719 63 711 q 63 925 49 843 l 532 925 q 567 839 561 885 l 254 67 z "},"8":{"ha":736,"x_min":83,"x_max":658,"o":"m 208 258 q 208 226 208 258 q 253 159 208 194 q 369 124 297 124 q 488 165 442 124 q 533 274 533 206 q 487 387 533 343 q 361 467 440 431 q 244 368 279 415 q 208 258 208 321 m 225 743 q 396 561 225 636 q 519 731 519 640 q 484 833 519 790 q 376 875 449 875 q 265 840 304 875 q 225 743 225 804 m 658 285 q 571 122 658 193 q 363 50 483 50 q 163 113 242 50 q 83 255 83 175 q 136 388 83 335 q 290 500 189 442 q 96 718 96 599 q 185 883 96 819 q 388 947 274 947 q 573 887 503 947 q 643 738 643 826 q 599 625 643 672 q 468 528 556 578 q 658 285 658 426 z "},"9":{"ha":663,"x_min":53,"x_max":601,"o":"m 221 533 q 241 507 221 533 q 332 481 261 481 q 461 526 403 481 q 467 599 467 568 q 427 804 467 738 q 324 871 388 871 q 221 817 261 871 q 181 675 181 764 q 221 533 181 585 m 601 602 q 601 519 601 602 q 499 285 601 436 q 201 47 396 133 q 160 101 160 74 q 447 456 383 211 q 280 396 379 396 q 119 464 181 396 q 53 656 53 539 q 136 862 53 774 q 331 950 219 950 q 518 864 443 950 q 601 602 601 768 z "},"\u0000":{"ha":0,"x_min":0,"x_max":0,"o":""},"\r":{"ha":347,"x_min":0,"x_max":0,"o":""}," ":{"ha":347,"x_min":0,"x_max":0,"o":""},"!":{"ha":636,"x_min":218,"x_max":381,"o":"m 244 975 l 357 933 l 338 300 l 329 300 l 263 335 l 235 975 l 244 975 m 381 133 q 381 117 381 133 q 357 76 381 100 q 299 53 333 53 q 242 76 265 53 q 218 133 218 100 q 242 191 218 167 q 299 215 265 215 q 357 191 333 215 q 381 133 381 167 z "},"\"":{"ha":519,"x_min":96,"x_max":410,"o":"m 96 1146 l 222 1146 l 190 879 l 128 879 l 96 1146 m 285 1146 l 410 1146 l 379 879 l 317 879 l 285 1146 z "},"#":{"ha":1014,"x_min":72,"x_max":958,"o":"m 606 403 l 657 663 l 421 663 l 369 403 l 606 403 m 958 663 l 751 663 l 700 403 l 892 403 l 892 314 l 683 314 l 635 67 l 539 67 l 588 314 l 353 314 l 304 67 l 208 67 l 257 314 l 72 314 l 72 403 l 275 403 l 326 663 l 140 663 l 140 751 l 343 751 l 392 994 l 486 994 l 439 751 l 674 751 l 722 994 l 817 994 l 769 751 l 958 751 l 958 663 z "},"$":{"ha":692,"x_min":57,"x_max":624,"o":"m 536 772 q 465 829 511 804 q 360 854 418 854 q 260 822 303 854 q 218 726 218 789 q 308 614 218 654 q 418 565 381 581 q 488 530 456 549 q 556 482 521 511 q 624 322 624 425 q 558 154 624 218 q 396 81 492 90 l 396 -6 l 328 -6 l 328 81 q 57 201 192 94 l 125 301 q 196 232 153 264 q 355 169 278 169 q 475 206 432 169 q 518 304 518 243 q 482 397 518 365 q 342 474 446 429 q 199 550 239 519 q 115 715 115 614 q 182 876 115 815 q 340 944 249 938 l 340 1028 l 408 1028 l 408 943 q 597 857 515 928 l 536 772 z "},"%":{"ha":1149,"x_min":106,"x_max":1054,"o":"m 371 67 l 249 67 l 782 953 l 901 953 l 371 67 m 196 728 q 220 613 196 656 q 285 569 244 569 q 350 610 326 569 q 374 728 374 651 q 285 878 374 878 q 196 728 196 878 m 106 731 q 106 780 106 731 q 151 893 106 828 q 285 958 197 958 q 419 893 374 958 q 465 728 465 828 q 420 563 465 629 q 288 496 375 496 q 153 565 200 496 q 106 731 106 635 m 786 288 q 810 174 786 217 q 874 132 833 132 q 940 173 915 132 q 964 288 964 214 q 874 440 964 440 q 786 288 786 440 m 741 456 q 764 489 741 456 q 875 521 786 521 q 1009 456 964 521 q 1054 291 1054 390 q 1010 125 1054 192 q 877 58 965 58 q 742 127 789 58 q 696 294 696 196 q 741 456 696 392 z "},"&":{"ha":946,"x_min":57,"x_max":926,"o":"m 379 157 q 560 240 481 157 q 300 481 396 376 q 204 399 238 436 q 171 317 171 363 q 235 201 171 246 q 379 157 299 157 m 467 758 q 430 838 467 804 q 347 871 393 871 q 256 782 256 871 q 353 590 256 711 q 467 758 467 678 m 332 49 q 142 114 226 49 q 57 275 57 179 q 88 373 57 326 q 153 448 118 419 q 260 525 189 476 q 153 739 153 656 q 224 885 153 822 q 376 947 294 947 q 516 899 457 947 q 575 788 575 851 q 532 673 575 725 q 392 546 489 621 q 622 328 469 460 q 718 549 664 399 l 926 549 l 896 446 l 739 446 q 669 290 703 351 q 881 129 761 215 l 792 60 q 611 199 668 154 q 332 49 497 49 z "},"'":{"ha":465,"x_min":178,"x_max":304,"o":"m 178 1146 l 304 1146 l 272 879 l 211 879 l 178 1146 z "},"(":{"ha":535,"x_min":143,"x_max":536,"o":"m 536 1203 q 330 904 397 1074 q 263 555 263 735 q 330 200 263 375 q 536 -104 397 25 l 476 -154 q 228 165 314 -17 q 143 556 143 347 q 476 1253 143 972 l 536 1203 z "},")":{"ha":521,"x_min":-1,"x_max":393,"o":"m 393 556 q 308 165 393 347 q 60 -154 222 -17 l -1 -104 q 206 200 138 25 q 274 555 274 375 q 206 904 274 735 q -1 1203 139 1074 l 60 1253 q 393 556 393 971 z "},"*":{"ha":653,"x_min":78,"x_max":517,"o":"m 238 999 q 295 1008 257 1008 q 353 1003 333 1008 l 332 822 l 485 893 q 506 842 496 879 q 517 782 517 804 l 346 763 l 475 640 q 436 599 465 622 q 383 569 407 576 l 299 722 l 222 569 q 171 594 201 574 q 128 635 140 615 l 250 761 l 78 783 q 88 844 78 808 q 111 893 99 881 l 267 824 l 238 999 z "},"+":{"ha":867,"x_min":89,"x_max":778,"o":"m 778 458 l 489 458 l 489 175 l 482 175 l 376 257 l 376 458 l 139 458 l 89 557 l 89 565 l 376 565 l 376 850 l 385 850 l 489 767 l 489 565 l 728 565 l 778 467 l 778 458 z "},",":{"ha":393,"x_min":110,"x_max":290,"o":"m 290 44 q 290 35 290 40 q 188 -210 289 -82 l 121 -179 q 196 4 196 -71 q 110 124 196 79 l 110 131 l 163 221 q 260 147 231 194 q 290 44 290 100 z "},"-":{"ha":797,"x_min":89,"x_max":697,"o":"m 697 458 l 139 458 l 89 557 l 89 565 l 649 565 l 697 467 l 697 458 z "},".":{"ha":394,"x_min":118,"x_max":282,"o":"m 282 141 q 282 124 282 141 q 258 83 282 107 q 199 58 233 58 q 142 83 165 58 q 118 141 118 107 q 142 199 118 175 q 199 224 165 224 q 258 199 233 224 q 282 141 282 175 z "},"/":{"ha":644,"x_min":122,"x_max":500,"o":"m 390 1058 l 500 1058 l 232 -3 l 122 -3 l 390 1058 z "},":":{"ha":401,"x_min":118,"x_max":283,"o":"m 200 792 q 217 792 200 792 q 259 767 235 792 q 283 708 283 743 q 259 649 283 672 q 200 625 235 625 q 142 649 165 625 q 118 708 118 672 q 142 767 118 743 q 200 792 165 792 m 200 271 q 217 271 200 271 q 259 247 235 271 q 283 188 283 222 q 259 129 283 153 q 200 106 235 106 q 142 129 165 106 q 118 188 118 153 q 142 247 118 222 q 200 271 165 271 z "},";":{"ha":401,"x_min":118,"x_max":315,"o":"m 259 652 q 247 640 259 652 q 200 628 235 628 q 142 652 165 628 q 118 710 118 676 q 142 769 118 744 q 201 793 165 793 q 260 769 236 793 q 283 710 283 744 q 259 652 283 676 m 315 85 q 315 75 315 81 q 213 -171 314 -43 l 146 -140 q 221 42 221 -32 q 135 164 221 117 l 135 172 l 188 260 q 285 188 256 235 q 315 85 315 140 z "},"<":{"ha":879,"x_min":126,"x_max":742,"o":"m 189 432 l 126 533 l 665 807 l 742 708 l 286 474 l 735 278 l 700 210 l 189 432 z "},"=":{"ha":888,"x_min":125,"x_max":769,"o":"m 769 581 l 174 581 l 125 679 l 125 689 l 721 689 l 769 589 l 769 581 m 769 331 l 174 331 l 125 429 l 125 439 l 721 439 l 769 340 l 769 331 z "},">":{"ha":906,"x_min":142,"x_max":757,"o":"m 696 585 l 757 485 l 219 210 l 142 308 l 597 543 l 149 739 l 183 807 l 696 585 z "},"?":{"ha":807,"x_min":144,"x_max":650,"o":"m 453 150 q 453 134 453 150 q 430 96 453 118 q 374 74 407 74 q 320 96 342 74 q 299 151 299 118 q 320 206 299 183 q 374 228 342 228 q 430 205 407 228 q 453 150 453 182 m 553 791 q 553 818 553 791 q 510 877 553 844 q 403 910 467 910 q 218 840 307 910 l 144 931 q 354 1008 236 1008 q 561 933 472 1008 q 650 751 650 857 q 533 569 650 642 q 417 513 483 539 l 417 349 l 404 349 l 329 383 l 329 589 q 367 606 335 592 q 411 626 399 619 q 451 647 424 632 q 492 674 479 661 q 522 704 506 686 q 553 791 553 738 z "},"@":{"ha":1258,"x_min":83,"x_max":1175,"o":"m 718 190 l 718 392 q 707 392 713 392 q 567 349 619 392 q 514 239 514 306 q 539 167 514 193 q 603 140 564 140 q 718 190 672 140 m 851 515 l 851 225 q 921 138 851 138 q 1023 208 976 138 q 1069 421 1069 278 q 960 729 1069 608 q 648 850 851 850 q 317 708 444 850 q 189 331 189 567 q 309 11 189 138 q 651 -115 429 -115 q 625 -189 650 -149 q 229 -37 375 -189 q 83 339 83 114 q 245 766 83 597 q 651 935 407 935 q 1035 788 896 935 q 1175 421 1175 640 q 1086 146 1175 243 q 879 49 997 49 q 729 139 761 49 q 550 49 653 49 q 423 97 474 49 q 372 224 372 144 q 472 394 372 333 q 675 447 557 447 q 718 446 696 447 l 718 504 q 692 590 718 563 q 594 617 667 617 q 443 581 522 617 l 415 618 q 660 717 522 717 q 802 663 753 717 q 851 515 851 610 z "},"A":{"ha":829,"x_min":-3,"x_max":832,"o":"m 258 422 l 508 422 l 381 825 l 368 768 l 258 422 m 489 67 q 494 118 489 96 q 594 150 564 132 l 528 360 l 239 360 l 169 139 q 275 118 203 121 q 269 67 275 100 l -3 67 q 3 118 -3 96 q 106 199 81 132 l 350 935 q 478 949 396 949 l 721 199 q 759 138 735 156 q 832 118 783 121 q 825 67 829 85 l 489 67 z "},"B":{"ha":815,"x_min":49,"x_max":739,"o":"m 278 126 l 401 126 q 546 174 497 126 q 594 301 594 221 q 546 430 594 382 q 401 478 497 478 l 278 478 l 278 126 m 557 704 q 512 828 557 782 q 375 874 467 874 l 278 874 l 278 539 l 436 538 q 557 704 557 581 m 375 931 q 622 867 544 931 q 700 704 700 804 q 571 518 700 572 q 695 438 651 497 q 739 301 739 379 q 654 133 739 199 q 406 67 569 67 l 51 67 q 50 88 50 75 q 56 118 50 101 q 123 139 103 125 q 143 189 143 153 l 143 861 q 49 881 108 878 q 49 897 49 885 q 53 931 49 908 l 375 931 z "},"C":{"ha":825,"x_min":74,"x_max":776,"o":"m 776 175 q 483 49 654 49 q 193 168 313 49 q 74 491 74 288 q 204 822 74 694 q 525 950 335 950 q 756 906 664 950 q 731 704 753 806 q 689 706 693 704 q 641 826 686 781 q 521 871 596 871 q 306 772 388 871 q 224 501 224 672 q 308 237 224 331 q 519 143 392 143 q 744 210 646 143 l 776 175 z "},"D":{"ha":869,"x_min":49,"x_max":832,"o":"m 279 126 l 381 126 q 606 225 528 126 q 683 499 683 324 q 605 774 683 675 q 375 874 526 874 l 279 874 l 279 126 m 389 931 q 709 817 586 931 q 832 499 832 704 q 713 181 832 294 q 400 67 593 67 l 51 67 q 50 88 50 74 q 57 118 50 101 q 124 139 104 125 q 144 189 144 153 l 144 863 q 49 881 108 878 q 49 897 49 885 q 53 931 49 908 l 389 931 z "},"E":{"ha":751,"x_min":49,"x_max":690,"o":"m 281 126 l 506 126 q 596 162 574 126 q 626 282 618 197 q 653 283 638 283 q 685 279 668 283 q 690 155 690 208 q 689 67 690 101 l 53 67 q 53 88 53 74 q 58 118 53 101 q 126 139 106 125 q 146 189 146 153 l 146 861 q 49 881 107 878 q 54 931 49 914 l 671 931 q 672 847 672 900 q 664 725 672 793 q 610 722 654 722 q 581 839 603 804 q 493 874 560 874 l 281 874 l 281 535 l 496 547 l 543 547 l 543 464 l 496 464 l 281 472 l 281 126 z "},"F":{"ha":711,"x_min":49,"x_max":672,"o":"m 671 931 q 672 847 672 900 q 664 725 672 793 q 610 722 654 722 q 581 839 603 804 q 493 874 560 874 l 281 874 l 281 507 l 485 519 l 535 519 l 535 436 l 485 436 l 281 444 l 281 149 q 424 119 338 128 q 419 67 424 89 l 50 67 q 50 89 50 75 q 56 119 50 103 q 125 141 104 126 q 146 192 146 156 l 146 861 q 49 881 107 878 q 54 931 49 914 l 671 931 z "},"G":{"ha":901,"x_min":74,"x_max":878,"o":"m 876 497 q 878 477 878 490 q 871 442 878 464 q 801 419 822 433 q 781 371 781 406 l 781 67 l 711 67 l 682 113 q 469 49 582 49 q 189 168 304 49 q 74 490 74 288 q 208 822 74 693 q 529 950 342 950 q 785 906 661 950 q 760 708 783 821 q 717 710 731 708 q 657 828 708 786 q 529 869 606 869 q 305 771 386 869 q 224 496 224 672 q 298 226 224 319 q 496 132 372 132 q 660 174 581 132 l 660 422 q 554 442 610 439 q 558 497 554 475 l 876 497 z "},"H":{"ha":943,"x_min":49,"x_max":896,"o":"m 800 810 l 800 138 q 896 118 839 121 q 892 67 896 89 l 572 67 q 576 118 572 103 q 644 139 625 125 q 664 189 664 153 l 664 464 l 281 464 l 281 138 q 375 118 321 121 q 375 103 375 114 q 371 67 375 92 l 53 67 q 53 88 53 74 q 58 118 53 101 q 126 139 106 125 q 146 189 146 153 l 146 861 q 49 881 107 878 q 54 931 49 914 l 372 931 q 368 881 372 894 q 301 860 321 875 q 281 810 281 846 l 281 533 l 664 533 l 664 861 q 569 881 624 878 q 569 897 569 885 q 574 931 569 908 l 893 931 q 894 910 894 924 q 888 881 894 896 q 820 860 840 875 q 800 810 800 846 z "},"I":{"ha":425,"x_min":49,"x_max":375,"o":"m 281 810 l 281 138 q 375 118 321 121 q 375 103 375 114 q 371 67 375 92 l 53 67 q 53 88 53 74 q 58 118 53 101 q 126 139 106 125 q 146 189 146 153 l 146 861 q 49 881 107 878 q 54 931 49 914 l 372 931 q 368 881 372 894 q 301 860 321 875 q 281 810 281 846 z "},"J":{"ha":413,"x_min":-14,"x_max":372,"o":"m 372 931 q 368 881 372 894 q 301 860 321 875 q 281 810 281 846 l 281 118 q 17 -215 281 -136 q -14 -176 -6 -193 q 115 -57 83 -122 q 146 117 146 8 l 146 861 q 49 881 107 878 q 54 931 49 914 l 372 931 z "},"K":{"ha":918,"x_min":49,"x_max":833,"o":"m 375 118 q 375 103 375 114 q 371 67 375 92 l 53 67 q 53 88 53 74 q 58 118 53 101 q 126 139 106 125 q 146 189 146 153 l 146 861 q 49 881 107 878 q 54 931 49 914 l 372 931 q 368 881 372 894 q 301 860 321 875 q 281 810 281 846 l 281 513 l 624 860 q 531 881 589 878 q 529 901 529 889 q 536 931 529 914 l 829 931 q 825 881 829 897 q 683 824 742 881 l 411 554 q 492 490 456 544 l 694 200 q 756 138 728 153 q 832 119 783 122 q 825 67 833 96 l 621 67 l 361 433 q 319 463 342 461 l 281 424 l 281 138 q 375 118 321 121 z "},"L":{"ha":746,"x_min":49,"x_max":692,"o":"m 279 126 l 519 126 q 607 160 585 126 q 636 275 629 194 q 685 272 663 275 q 692 149 692 199 q 690 67 692 99 l 51 67 q 50 88 50 74 q 57 118 50 101 q 124 139 104 125 q 144 189 144 153 l 144 861 q 49 881 106 878 q 49 897 49 885 q 53 931 49 908 l 371 931 q 372 910 372 924 q 365 881 372 896 q 299 860 319 875 q 279 810 279 846 l 279 126 z "},"M":{"ha":1169,"x_min":26,"x_max":1138,"o":"m 1136 118 q 1138 93 1138 106 q 1136 67 1138 81 l 799 67 q 797 93 797 81 q 799 118 797 106 q 874 140 849 125 q 897 189 899 154 l 867 814 l 822 694 l 572 67 l 532 67 l 261 822 l 213 135 q 315 118 249 121 q 308 67 314 99 l 26 67 q 33 118 29 101 q 133 194 131 132 l 178 864 q 104 879 143 878 q 103 902 103 888 q 110 931 103 917 l 350 931 l 575 296 l 825 931 l 1057 931 q 1061 901 1061 914 q 1061 881 1061 888 q 1006 860 1024 876 q 989 806 988 843 l 1033 136 q 1136 118 1079 121 z "},"N":{"ha":963,"x_min":57,"x_max":915,"o":"m 914 931 q 915 909 915 922 q 910 881 915 896 q 815 803 815 869 l 815 67 l 757 67 l 311 675 l 235 788 l 235 138 q 338 118 271 121 q 338 103 338 114 q 333 67 338 92 l 58 67 q 57 88 57 75 q 63 118 57 101 q 156 194 156 131 l 156 865 q 58 881 115 881 q 65 931 61 917 l 288 931 l 636 456 l 736 306 l 736 861 q 633 881 700 878 q 633 897 633 885 q 638 931 633 908 l 914 931 z "},"O":{"ha":936,"x_min":75,"x_max":864,"o":"m 233 519 q 476 114 233 114 q 647 207 589 114 q 704 472 704 300 q 704 497 704 485 q 636 789 701 693 q 460 885 571 885 q 291 786 349 885 q 233 519 233 688 m 755 172 q 700 110 755 172 q 468 47 646 47 q 183 172 290 47 q 75 497 75 296 q 183 824 75 697 q 467 950 290 950 q 754 823 644 950 q 864 497 864 696 q 755 172 864 297 z "},"P":{"ha":758,"x_min":49,"x_max":732,"o":"m 279 489 l 383 489 q 531 542 479 489 q 582 681 582 594 q 531 819 582 767 q 383 872 481 872 l 279 872 l 279 489 m 410 931 q 642 858 553 931 q 732 680 732 786 q 643 501 732 574 q 411 429 554 429 l 279 429 l 279 146 q 411 118 335 122 q 406 67 411 88 l 51 67 q 50 88 50 74 q 57 118 50 101 q 124 139 104 125 q 144 189 144 153 l 144 860 q 49 881 100 878 q 49 897 49 885 q 53 931 49 908 l 410 931 z "},"Q":{"ha":936,"x_min":75,"x_max":940,"o":"m 233 525 q 476 118 233 118 q 649 217 593 118 q 704 474 704 315 q 640 776 704 674 q 459 879 575 879 q 288 778 343 879 q 233 525 233 676 m 939 31 q 940 -10 940 17 q 930 -80 940 -36 q 881 -162 919 -124 q 786 -201 842 -201 q 680 -174 731 -201 q 595 -112 629 -146 q 517 -51 561 -79 q 433 -24 474 -24 q 369 -50 393 -24 q 347 -122 346 -76 l 324 -122 q 303 -39 303 -81 q 372 60 303 29 q 154 208 233 92 q 75 496 75 325 q 183 824 75 697 q 467 950 290 950 q 754 823 644 950 q 864 503 864 696 q 765 185 864 311 q 504 35 667 60 q 628 -21 543 25 q 793 -67 714 -67 q 915 35 892 -67 l 939 31 z "},"R":{"ha":842,"x_min":49,"x_max":819,"o":"m 281 526 l 383 526 q 560 699 560 526 q 383 872 560 872 l 281 872 l 281 526 m 819 121 q 814 67 819 90 l 621 67 l 453 404 q 417 452 436 438 q 358 467 399 467 l 281 467 l 281 144 q 396 118 339 122 q 396 103 396 114 q 392 67 396 92 l 53 67 q 53 88 53 74 q 58 118 53 101 q 126 139 106 125 q 146 189 146 153 l 146 860 q 49 881 103 878 q 54 931 49 914 l 411 931 q 630 868 553 931 q 707 699 707 806 q 663 561 707 618 q 532 482 618 504 q 603 399 569 463 l 707 201 q 754 138 731 154 q 819 121 778 121 z "},"S":{"ha":689,"x_min":82,"x_max":628,"o":"m 628 300 q 543 120 628 188 q 338 53 458 53 q 83 106 218 53 q 82 181 82 128 q 94 333 82 235 q 147 328 121 333 q 197 168 146 215 q 330 121 247 121 q 458 159 413 121 q 504 258 504 197 q 462 364 504 319 q 359 438 419 408 q 238 499 299 467 q 135 588 178 532 q 93 722 93 644 q 170 887 93 826 q 360 947 247 947 q 594 904 472 947 q 578 718 592 800 q 535 721 547 718 q 361 879 508 879 q 252 846 293 879 q 211 755 211 813 q 254 656 211 697 q 358 585 297 614 q 481 524 419 557 q 585 435 542 492 q 628 300 628 379 z "},"T":{"ha":744,"x_min":21,"x_max":724,"o":"m 718 931 q 724 836 724 886 q 719 733 724 786 q 692 728 704 728 q 672 729 679 728 q 639 841 667 810 q 549 872 611 872 l 440 872 l 440 139 q 560 118 490 121 q 561 97 561 110 q 556 67 561 83 l 185 67 q 183 88 183 74 q 190 118 183 101 q 280 139 256 125 q 304 189 304 153 l 304 872 l 196 872 q 106 841 133 872 q 72 729 78 810 q 51 728 64 728 q 25 733 39 728 q 21 824 21 775 q 26 931 21 872 l 718 931 z "},"U":{"ha":938,"x_min":46,"x_max":894,"o":"m 894 931 q 894 910 894 924 q 889 881 894 896 q 822 860 842 875 q 801 810 801 846 l 801 351 q 713 122 801 196 q 472 49 624 49 q 231 122 321 49 q 142 351 142 196 l 142 861 q 46 881 101 878 q 46 897 46 885 q 50 931 46 908 l 368 931 q 369 909 369 922 q 364 881 369 896 q 297 860 317 875 q 276 810 276 846 l 276 346 q 328 176 276 231 q 472 121 381 121 q 614 176 563 121 q 665 346 665 231 l 665 861 q 571 881 626 878 q 571 897 571 885 q 575 931 571 908 l 894 931 z "},"V":{"ha":853,"x_min":1,"x_max":851,"o":"m 6 881 q 1 915 1 904 q 3 931 1 926 l 319 931 q 324 881 324 915 q 252 862 264 874 q 240 837 240 850 q 247 804 240 824 l 433 325 q 460 238 453 276 l 465 238 l 699 860 q 601 881 657 876 q 606 931 601 915 l 851 931 q 843 881 849 899 q 747 807 771 868 l 454 58 l 403 58 l 81 864 q 6 881 46 876 z "},"W":{"ha":1258,"x_min":7,"x_max":1251,"o":"m 1251 931 q 1251 914 1251 925 q 1249 881 1251 903 q 1190 857 1208 872 q 1158 803 1171 842 l 918 58 l 868 58 l 642 679 l 392 58 l 340 58 l 86 864 q 10 881 46 879 q 7 914 7 903 q 7 931 7 925 l 332 931 q 339 881 339 908 q 263 863 276 875 q 249 835 249 850 q 254 804 249 821 l 393 354 q 411 265 407 307 l 415 265 l 663 888 l 713 888 l 906 347 q 925 261 921 304 l 928 261 l 1110 860 q 1031 881 1064 878 q 1039 931 1033 908 l 1251 931 z "},"X":{"ha":850,"x_min":28,"x_max":819,"o":"m 815 118 q 819 83 819 96 q 819 67 819 71 l 524 67 q 518 118 518 79 q 580 137 568 124 q 575 172 592 150 l 397 426 l 189 135 q 274 118 231 119 q 275 88 275 100 q 274 67 275 75 l 35 67 q 35 84 35 71 q 42 118 35 97 q 99 135 76 121 q 149 183 121 149 l 358 482 l 88 869 q 33 881 56 879 q 28 912 28 900 q 31 931 28 924 l 326 931 q 332 881 332 915 q 269 862 281 875 q 275 826 257 849 l 451 574 l 664 864 q 579 881 621 876 q 578 907 578 894 q 579 931 578 919 l 818 931 q 818 913 818 926 q 810 881 818 900 q 706 815 749 875 l 489 519 l 760 129 q 815 118 779 124 z "},"Y":{"ha":829,"x_min":-1,"x_max":829,"o":"m 335 881 q 253 838 253 874 q 265 800 253 821 l 442 479 l 446 479 q 485 564 458 521 l 671 865 q 589 881 628 879 q 594 931 589 900 l 829 931 q 824 881 829 904 q 763 860 783 875 q 719 807 743 844 l 485 428 l 485 135 q 585 118 526 121 q 581 67 585 92 l 243 67 q 243 85 243 72 q 247 118 243 99 q 317 139 296 125 q 339 189 339 153 l 339 417 l 78 867 q 4 881 43 878 q -1 931 -1 917 l 326 931 q 335 881 335 906 z "},"Z":{"ha":760,"x_min":68,"x_max":688,"o":"m 525 138 q 613 165 586 138 q 653 264 640 192 q 688 256 672 264 q 675 67 688 149 l 81 67 q 68 129 68 92 l 528 861 l 250 861 q 163 833 190 861 q 122 733 135 806 q 86 742 106 733 q 100 931 86 843 l 676 931 q 685 889 685 906 q 685 868 685 872 l 226 138 l 525 138 z "},"[":{"ha":508,"x_min":114,"x_max":485,"o":"m 233 1086 l 233 -26 l 414 -26 l 483 -131 l 206 -131 l 114 -26 l 114 1192 l 414 1192 l 485 1086 l 233 1086 z "},"\\":{"ha":633,"x_min":122,"x_max":500,"o":"m 122 1058 l 233 1058 l 500 -3 l 392 -3 l 122 1058 z "},"]":{"ha":454,"x_min":24,"x_max":393,"o":"m 274 -26 l 274 1086 l 93 1086 l 24 1192 l 303 1192 l 393 1086 l 393 -129 l 93 -129 l 24 -26 l 274 -26 z "},"^":{"ha":661,"x_min":61,"x_max":610,"o":"m 293 900 q 335 903 314 903 q 379 900 357 903 l 610 390 q 522 368 572 371 l 331 788 l 140 368 q 61 390 101 369 l 293 900 z "},"_":{"ha":797,"x_min":89,"x_max":697,"o":"m 697 132 l 139 132 l 89 231 l 89 239 l 649 239 l 697 140 l 697 132 z "},"`":{"ha":281,"x_min":14,"x_max":267,"o":"m 119 1024 l 267 786 l 229 764 l 14 953 l 14 974 q 63 1006 32 990 q 119 1024 94 1022 z "},"a":{"ha":664,"x_min":54,"x_max":642,"o":"m 196 236 q 222 165 196 190 q 290 140 247 140 q 401 188 356 140 l 401 394 l 319 372 q 196 236 196 339 m 521 49 q 447 69 479 49 q 406 128 415 90 q 248 49 339 49 q 106 99 157 49 q 54 226 54 149 q 105 351 54 303 q 261 421 156 399 l 401 451 l 401 507 q 292 619 401 619 q 119 586 211 619 l 93 625 q 343 718 201 718 q 485 665 436 718 q 535 515 535 611 l 535 211 q 579 138 535 138 q 631 146 589 138 l 642 119 q 521 49 586 49 z "},"b":{"ha":733,"x_min":3,"x_max":682,"o":"m 233 151 q 360 122 288 122 q 484 191 433 122 q 535 391 535 260 q 491 579 535 522 q 388 636 447 636 q 286 594 329 636 q 233 469 243 551 l 233 151 m 417 718 q 603 633 525 718 q 682 391 682 547 q 584 142 682 235 q 346 50 486 50 q 171 107 249 50 q 92 51 139 71 l 71 72 q 100 226 100 139 l 100 960 q 62 961 86 961 q 3 960 38 961 q 13 1010 6 992 q 233 1061 118 1051 l 233 581 q 306 682 257 646 q 417 718 356 718 z "},"c":{"ha":626,"x_min":50,"x_max":589,"o":"m 589 157 q 350 49 478 49 q 136 136 222 49 q 50 376 50 224 q 145 623 50 528 q 383 718 240 718 q 571 668 490 718 q 554 503 568 581 q 519 508 529 506 q 478 610 518 572 q 378 647 438 647 q 243 579 293 647 q 193 388 193 511 q 244 199 193 264 q 382 133 294 133 q 567 186 469 133 l 589 157 z "},"d":{"ha":765,"x_min":53,"x_max":725,"o":"m 400 639 q 247 581 299 639 q 194 389 194 522 q 363 139 194 139 q 483 179 433 139 l 483 631 q 400 639 446 639 m 603 49 q 492 119 521 49 q 312 50 415 50 q 131 133 208 50 q 53 374 53 217 q 161 625 53 532 q 433 718 269 718 q 483 715 450 718 l 483 960 q 445 961 469 961 q 388 960 421 961 q 396 1010 390 990 q 618 1061 503 1051 l 618 211 q 660 138 618 138 q 711 146 669 138 l 725 119 q 603 49 665 49 z "},"e":{"ha":665,"x_min":51,"x_max":614,"o":"m 476 482 q 441 608 475 568 q 356 649 407 649 q 258 605 304 649 q 199 471 213 561 l 346 481 l 476 482 m 193 417 l 193 393 q 244 203 193 267 q 391 139 296 139 q 589 199 486 139 l 607 167 q 347 49 499 49 q 143 133 235 49 q 51 375 51 217 q 149 626 51 533 q 360 718 246 718 q 544 651 475 718 q 614 450 614 583 q 596 417 607 433 l 193 417 z "},"f":{"ha":446,"x_min":36,"x_max":521,"o":"m 132 779 q 200 984 132 914 q 360 1054 268 1054 q 521 992 453 1054 q 500 858 517 926 q 450 864 472 858 q 450 882 450 874 q 430 956 450 928 q 368 985 410 985 q 265 839 265 985 l 265 694 q 453 706 369 697 q 442 626 453 658 l 265 626 l 265 147 q 403 119 325 124 q 404 97 404 111 q 399 67 404 83 l 38 67 q 36 89 36 75 q 42 119 36 103 q 111 141 90 126 q 132 192 132 156 l 132 624 q 46 629 94 629 q 49 669 46 650 q 132 693 90 688 l 132 779 z "},"g":{"ha":711,"x_min":40,"x_max":714,"o":"m 253 372 q 273 349 253 372 q 347 326 292 326 q 435 368 403 326 q 468 485 468 410 q 430 622 468 576 q 335 667 392 667 q 247 625 279 667 q 215 510 215 583 q 253 372 215 417 m 515 54 l 238 54 q 186 58 208 54 q 133 -44 133 14 q 187 -134 133 -101 q 345 -167 240 -167 q 522 -119 450 -167 q 593 -14 593 -71 q 515 54 593 54 m 526 161 q 649 126 607 161 q 692 28 692 90 q 575 -176 690 -83 q 303 -269 460 -269 q 113 -219 185 -269 q 40 -76 40 -168 q 139 74 40 15 q 74 188 74 106 q 178 317 74 269 q 74 497 74 378 q 150 658 74 599 q 335 718 226 718 q 514 671 443 718 q 713 732 597 732 q 714 707 714 725 q 707 647 714 689 l 561 631 q 608 497 608 575 q 533 335 608 396 q 342 275 457 275 q 226 294 281 275 q 167 221 167 264 q 188 177 167 194 q 249 160 208 160 l 519 161 q 526 161 522 161 z "},"h":{"ha":810,"x_min":39,"x_max":775,"o":"m 679 507 l 679 139 q 775 119 728 121 q 769 67 775 88 l 460 67 q 458 88 458 75 q 463 119 458 101 q 526 140 508 125 q 544 190 544 154 l 544 493 q 515 591 544 558 q 433 624 485 624 q 269 488 322 624 l 269 138 q 358 119 308 122 q 358 103 358 115 q 354 67 358 92 l 40 67 q 39 89 39 75 q 44 119 39 103 q 114 140 93 125 q 135 190 135 154 l 135 956 q 86 958 111 958 q 39 957 61 958 q 47 1007 42 989 q 269 1058 154 1047 l 269 582 q 483 718 340 718 q 624 663 569 718 q 679 507 679 608 z "},"i":{"ha":410,"x_min":39,"x_max":358,"o":"m 289 903 q 289 885 289 903 q 263 840 289 867 q 201 814 238 814 q 138 840 164 814 q 113 903 113 867 q 138 966 113 940 q 201 992 164 992 q 263 966 238 992 q 289 903 289 940 m 358 119 q 358 103 358 115 q 354 67 358 92 l 40 67 q 39 89 39 75 q 44 119 39 103 q 114 140 93 125 q 135 190 135 154 l 135 607 q 86 610 111 610 q 39 608 61 610 q 47 658 42 638 q 269 711 149 696 l 269 138 q 358 119 308 122 z "},"j":{"ha":382,"x_min":-19,"x_max":289,"o":"m 289 903 q 289 885 289 903 q 263 840 289 867 q 201 814 238 814 q 138 840 164 814 q 113 903 113 867 q 138 966 113 940 q 201 992 164 992 q 263 966 238 992 q 289 903 289 940 m 135 74 l 135 607 q 86 610 111 610 q 39 608 61 610 q 47 658 42 638 q 269 711 149 696 l 269 89 q 7 -253 269 -165 l -19 -211 q 102 -97 69 -161 q 135 74 135 -33 z "},"k":{"ha":779,"x_min":39,"x_max":765,"o":"m 358 119 q 358 103 358 115 q 354 67 358 92 l 40 67 q 39 89 39 75 q 44 119 39 103 q 114 140 93 125 q 135 190 135 154 l 135 960 q 97 961 121 961 q 39 960 72 961 q 47 1010 42 990 q 269 1061 151 1051 l 269 378 l 525 628 q 432 658 471 639 q 439 701 432 683 l 731 701 q 726 649 731 665 q 582 590 640 649 l 433 447 q 492 390 463 432 l 628 203 q 690 138 661 154 q 765 119 718 122 q 758 67 765 89 l 565 67 l 368 340 q 346 364 354 358 l 269 289 l 269 138 q 358 119 308 122 z "},"l":{"ha":410,"x_min":39,"x_max":358,"o":"m 358 119 q 358 103 358 115 q 354 67 358 92 l 40 67 q 39 89 39 75 q 44 119 39 103 q 114 140 93 125 q 135 190 135 154 l 135 960 q 97 961 121 961 q 39 960 72 961 q 47 1010 42 990 q 269 1061 151 1051 l 269 138 q 358 119 308 122 z "},"m":{"ha":1219,"x_min":39,"x_max":1185,"o":"m 1089 507 l 1089 139 q 1185 119 1138 121 q 1185 103 1185 115 q 1181 67 1185 92 l 871 67 q 869 85 869 74 q 874 119 869 97 q 938 140 919 125 q 956 190 956 154 l 956 493 q 926 591 956 558 q 844 624 896 624 q 679 488 735 624 l 679 138 q 768 119 718 122 q 768 103 768 115 q 764 67 768 92 l 460 67 q 458 88 458 75 q 463 119 458 101 q 526 140 508 125 q 544 190 544 154 l 544 493 q 515 591 544 558 q 433 624 485 624 q 269 488 322 624 l 269 138 q 358 119 308 122 q 358 103 358 115 q 354 67 358 92 l 40 67 q 39 89 39 75 q 44 119 39 103 q 114 140 93 125 q 135 190 135 154 l 135 608 q 73 610 94 610 q 39 610 51 610 q 47 658 42 640 q 256 710 147 696 q 268 579 267 644 q 483 718 339 718 q 606 679 554 718 q 672 568 657 640 q 764 678 706 639 q 901 718 822 718 q 1035 663 981 718 q 1089 507 1089 608 z "},"n":{"ha":803,"x_min":39,"x_max":775,"o":"m 679 507 l 679 139 q 775 119 728 121 q 769 67 775 88 l 460 67 q 458 88 458 75 q 463 119 458 101 q 526 140 508 125 q 544 190 544 154 l 544 493 q 515 591 544 558 q 433 624 485 624 q 269 488 322 624 l 269 138 q 358 119 308 122 q 358 103 358 115 q 354 67 358 92 l 40 67 q 39 89 39 75 q 44 119 39 103 q 114 140 93 125 q 135 190 135 154 l 135 608 q 73 610 94 610 q 39 610 51 610 q 47 658 42 640 q 256 710 147 696 q 268 579 267 644 q 483 718 339 718 q 624 663 569 718 q 679 507 679 608 z "},"o":{"ha":724,"x_min":51,"x_max":672,"o":"m 369 119 q 529 363 529 119 q 484 580 529 507 q 356 653 439 653 q 193 396 193 653 q 193 383 193 390 q 369 119 201 119 m 364 718 q 434 718 364 718 q 588 628 504 718 q 672 385 672 539 q 586 140 672 231 q 359 50 500 50 q 135 140 218 50 q 51 383 51 229 q 138 628 51 538 q 364 718 224 718 z "},"p":{"ha":761,"x_min":36,"x_max":708,"o":"m 372 122 q 507 192 451 122 q 563 392 563 261 q 519 579 563 522 q 419 636 475 636 q 323 599 364 636 q 267 494 282 563 l 267 144 q 372 122 315 122 m 132 -126 l 132 608 q 70 610 92 610 q 36 610 49 610 q 44 658 39 640 q 250 710 144 696 q 265 594 261 663 q 443 718 317 718 q 630 633 551 718 q 708 392 708 547 q 604 143 708 236 q 357 50 500 50 q 267 65 307 50 l 267 -168 q 396 -199 324 -194 q 392 -251 396 -228 l 36 -251 q 36 -230 36 -244 q 42 -199 36 -215 q 111 -177 90 -192 q 132 -126 132 -162 z "},"q":{"ha":732,"x_min":53,"x_max":714,"o":"m 396 639 q 249 579 304 639 q 194 389 194 519 q 363 139 194 139 q 483 179 433 139 l 483 619 q 396 639 439 639 m 618 725 l 618 -179 q 714 -199 658 -194 q 714 -215 714 -203 q 710 -251 714 -226 l 356 -251 q 354 -226 354 -240 q 358 -199 354 -211 q 457 -176 431 -193 q 483 -119 483 -160 l 483 111 q 308 50 407 50 q 131 133 208 50 q 53 374 53 217 q 159 625 53 532 q 422 718 265 718 q 553 685 490 718 q 596 725 574 710 l 618 725 z "},"r":{"ha":517,"x_min":39,"x_max":519,"o":"m 135 192 l 135 608 q 73 610 94 610 q 39 610 51 610 q 47 658 42 640 q 256 710 147 696 q 269 525 269 625 q 369 665 303 611 q 513 718 435 718 q 519 666 519 697 q 507 590 519 635 q 351 549 419 590 q 269 413 283 507 l 269 146 q 407 119 328 124 q 401 67 407 88 l 40 67 q 39 89 39 75 q 44 119 39 103 q 114 141 93 126 q 135 192 135 156 z "},"s":{"ha":581,"x_min":69,"x_max":531,"o":"m 269 115 q 364 142 328 115 q 400 208 400 169 q 368 276 400 247 q 290 326 336 304 q 198 372 244 347 q 119 438 151 397 q 88 533 88 479 q 153 672 88 625 q 309 718 218 718 q 486 690 400 718 q 488 627 488 668 q 479 525 488 586 q 436 531 458 525 q 438 556 438 544 q 322 657 438 657 q 242 631 274 657 q 211 565 211 606 q 244 497 211 525 q 324 447 276 468 q 418 403 371 426 q 498 338 465 379 q 531 243 531 297 q 456 102 531 156 q 273 49 382 49 q 72 78 164 49 q 69 152 69 108 q 78 254 69 196 q 122 251 94 254 q 122 236 122 243 q 269 115 122 115 z "},"t":{"ha":504,"x_min":35,"x_max":474,"o":"m 289 50 q 170 94 217 50 q 124 226 124 139 l 124 624 q 35 629 85 629 q 38 669 35 650 q 124 693 72 683 l 231 879 l 258 871 l 258 694 q 444 706 363 697 q 433 626 444 658 l 258 626 l 260 238 q 332 147 260 147 q 451 193 394 147 l 474 167 q 289 50 394 50 z "},"u":{"ha":789,"x_min":22,"x_max":735,"o":"m 646 583 l 646 163 q 733 157 701 157 q 735 131 735 143 q 735 110 735 118 q 528 60 642 68 q 514 194 517 121 q 299 50 433 50 q 158 106 214 50 q 103 265 103 163 l 103 613 q 66 614 86 614 q 22 613 46 614 q 29 661 22 638 q 236 713 138 704 l 236 279 q 267 181 236 215 q 349 146 297 146 q 513 283 450 146 l 513 560 q 465 658 513 633 q 475 688 467 675 q 617 714 538 714 q 651 713 633 714 q 646 583 646 663 z "},"v":{"ha":710,"x_min":-11,"x_max":733,"o":"m -6 649 q -11 681 -11 668 q -10 700 -11 693 l 306 700 q 311 649 311 682 q 218 633 251 646 l 385 143 q 408 232 390 186 l 531 561 q 540 598 540 583 q 533 622 540 613 q 456 649 518 643 q 450 681 450 669 q 451 700 450 693 l 732 700 q 722 649 733 682 q 638 629 676 646 l 411 58 l 300 58 l 94 571 q 60 627 79 611 q -6 649 40 643 z "},"w":{"ha":1050,"x_min":24,"x_max":1031,"o":"m 1029 700 q 1031 681 1031 693 q 1024 649 1031 669 q 967 635 982 640 l 736 58 l 683 58 l 525 482 l 347 58 l 293 58 l 86 635 q 28 649 61 646 q 24 683 24 671 q 25 700 24 694 l 315 700 q 319 649 319 676 q 255 631 267 643 q 243 606 243 618 q 247 579 243 593 l 343 294 q 358 232 354 264 l 363 232 l 533 674 l 588 674 l 722 294 q 740 233 735 258 l 743 233 l 865 571 q 872 608 872 593 q 861 634 872 622 q 792 649 850 646 q 790 674 790 661 q 793 700 790 688 l 1029 700 z "},"x":{"ha":715,"x_min":0,"x_max":713,"o":"m 707 119 q 713 86 713 99 q 711 67 713 74 l 403 67 q 399 119 399 82 q 479 131 456 122 l 325 326 l 167 131 q 243 119 199 122 q 244 92 244 106 q 243 67 244 79 l 1 67 q 10 119 3 94 q 129 185 74 122 l 288 375 l 133 572 q 7 649 82 642 q 0 680 0 667 q 1 700 0 693 l 317 700 q 321 649 321 686 q 243 639 264 646 l 390 447 l 543 636 q 469 649 518 646 q 467 674 467 661 q 469 700 467 688 l 710 700 q 710 681 710 694 q 700 649 710 667 q 583 582 636 646 l 429 399 l 579 204 q 641 140 617 157 q 707 119 665 122 z "},"y":{"ha":717,"x_min":-3,"x_max":722,"o":"m 157 -251 l 135 -251 q 119 -176 119 -207 q 122 -126 119 -144 l 156 -126 q 238 -106 208 -126 q 293 -31 267 -86 l 322 32 l 103 571 q 67 627 86 611 q 1 649 47 643 q -3 683 -3 672 q -1 700 -3 694 l 313 700 q 318 649 318 682 q 226 633 258 646 l 385 167 q 406 232 393 200 l 536 561 q 546 599 546 583 q 539 624 546 614 q 463 649 522 643 q 457 681 457 668 q 458 700 457 693 l 721 700 q 711 649 722 676 q 650 636 679 646 l 343 -72 q 262 -208 306 -164 q 157 -251 218 -251 z "},"z":{"ha":638,"x_min":56,"x_max":575,"o":"m 401 128 q 494 156 465 128 q 536 260 522 185 q 571 251 554 260 q 571 204 571 244 q 557 67 571 164 l 60 67 q 56 103 56 83 q 60 142 56 122 l 421 640 l 243 640 q 152 612 181 640 q 110 508 124 583 q 74 517 89 508 q 88 700 74 608 l 568 700 q 575 661 575 681 q 568 625 575 642 l 213 128 l 401 128 z "},"{":{"ha":753,"x_min":128,"x_max":618,"o":"m 343 906 l 351 731 q 329 620 351 657 q 249 567 307 583 q 330 512 308 549 q 351 403 351 475 l 343 229 q 347 153 343 182 q 365 93 350 125 q 408 43 381 61 q 618 -1 475 1 l 618 -78 q 544 -78 601 -78 q 414 -62 486 -78 q 301 -4 342 -46 q 245 90 260 38 q 231 219 231 142 q 242 393 231 219 q 221 491 242 460 q 128 528 200 522 l 128 607 q 221 642 200 611 q 242 740 242 674 l 231 915 q 245 1044 231 993 q 300 1138 260 1096 q 586 1211 374 1211 q 618 1211 601 1211 l 618 1135 q 383 1067 432 1132 q 350 998 357 1032 q 343 906 343 964 z "},"|":{"ha":440,"x_min":165,"x_max":274,"o":"m 165 1058 l 274 1058 l 274 -3 l 165 -3 l 165 1058 z "},"}":{"ha":754,"x_min":136,"x_max":626,"o":"m 413 229 l 403 403 q 424 513 403 476 q 504 567 446 549 q 424 620 446 583 q 403 731 403 657 l 413 906 q 409 980 413 951 q 390 1040 406 1008 q 344 1090 374 1072 q 136 1135 279 1132 l 136 1211 q 210 1211 153 1211 q 340 1195 268 1211 q 452 1138 413 1179 q 506 1044 492 1096 q 521 915 521 993 q 511 740 521 915 q 532 642 511 674 q 626 607 553 611 l 626 528 q 532 491 553 522 q 511 393 511 460 l 521 219 q 506 89 521 140 q 451 -4 492 38 q 168 -78 381 -78 q 136 -78 153 -78 l 136 -1 q 372 67 322 1 q 405 136 397 101 q 413 229 413 171 z "},"~":{"ha":729,"x_min":68,"x_max":661,"o":"m 249 546 q 384 492 297 546 q 514 439 471 439 q 615 550 597 439 l 661 550 q 607 390 654 449 q 483 331 560 331 q 344 384 433 331 q 215 438 254 438 q 113 328 133 438 l 68 328 q 122 488 74 429 q 249 546 171 546 z "},"¡":{"ha":636,"x_min":218,"x_max":381,"o":"m 218 810 q 218 826 218 810 q 242 867 218 843 q 299 890 265 890 q 357 867 333 890 q 381 809 381 843 q 357 751 381 775 q 299 728 333 728 q 242 752 265 728 q 218 810 218 776 m 357 10 l 244 -32 l 235 -32 l 263 608 l 329 643 l 338 643 l 357 10 z "},"¢":{"ha":636,"x_min":81,"x_max":579,"o":"m 404 88 l 338 88 l 338 174 q 154 251 228 183 q 81 442 81 318 q 153 644 81 565 q 338 731 226 724 l 338 815 l 404 815 l 404 726 q 563 665 496 714 l 511 583 q 372 647 454 647 q 240 597 290 647 q 190 454 190 547 q 251 306 190 361 q 399 251 311 251 q 547 308 488 251 l 579 282 q 514 215 561 247 q 404 175 467 182 l 404 88 z "},"£":{"ha":840,"x_min":79,"x_max":746,"o":"m 281 164 q 401 190 347 190 q 530 172 454 190 q 635 154 606 154 q 710 257 710 154 l 742 258 l 744 238 q 746 219 746 231 q 744 183 746 208 q 733 133 743 158 q 693 88 724 108 q 609 67 663 67 q 469 83 556 67 q 331 99 382 99 q 183 69 281 99 l 147 97 q 213 198 182 126 q 244 326 244 269 q 231 460 244 382 l 79 460 l 79 469 l 104 522 l 217 522 q 201 642 201 593 q 273 833 204 761 q 451 906 342 906 q 570 887 525 906 q 632 860 615 868 q 673 837 649 853 q 699 821 697 821 l 649 739 q 485 825 574 825 q 355 782 397 825 q 313 672 313 739 q 331 522 313 604 l 567 522 l 567 513 l 538 460 l 342 460 q 349 389 349 418 q 281 164 349 246 z "},"¤":{"ha":663,"x_min":69,"x_max":593,"o":"m 240 383 q 258 363 240 383 q 331 343 276 343 q 423 383 385 343 q 461 505 461 424 q 423 626 461 586 q 331 665 385 665 q 240 626 276 665 q 203 505 203 586 q 240 383 203 424 m 518 632 q 554 503 554 575 q 519 378 554 432 l 592 306 q 532 246 571 267 l 461 317 q 331 278 403 278 q 203 317 258 278 l 131 246 q 71 306 90 269 l 144 378 q 110 503 110 432 q 146 632 110 575 l 69 708 q 131 768 90 749 l 204 694 q 333 732 264 732 q 458 693 403 732 l 533 767 q 593 707 575 749 l 518 632 z "},"¥":{"ha":822,"x_min":92,"x_max":732,"o":"m 679 513 l 679 503 l 650 454 l 472 454 l 472 374 l 679 374 l 679 364 l 650 315 l 472 315 l 472 67 l 350 67 l 350 315 l 140 315 l 140 325 l 165 374 l 350 374 l 350 454 l 140 454 l 140 464 l 165 513 l 328 513 l 92 885 l 201 904 l 411 546 q 606 894 583 850 l 732 894 l 497 513 l 679 513 z "},"¦":{"ha":439,"x_min":165,"x_max":274,"o":"m 165 421 l 274 421 l 274 -3 l 165 -3 l 165 421 m 274 633 l 165 633 l 165 1058 l 274 1058 l 274 633 z "},"§":{"ha":1146,"x_min":104,"x_max":651,"o":"m 233 375 q 233 356 233 375 q 245 322 233 338 q 263 298 257 307 q 285 278 269 289 q 310 261 301 267 q 341 245 319 256 q 371 231 363 235 q 439 200 418 207 q 526 313 526 232 q 489 406 526 361 q 394 465 467 431 q 335 493 379 472 q 260 444 288 476 q 233 375 233 413 m 650 -36 q 565 -202 650 -140 q 360 -264 481 -264 q 106 -215 240 -264 q 104 -145 104 -194 q 117 -6 104 -96 q 169 -10 140 -6 q 169 -18 169 -14 q 363 -203 169 -203 q 481 -167 435 -203 q 526 -78 526 -131 q 496 10 526 -26 q 419 67 465 46 q 320 113 374 88 q 221 165 267 139 q 144 238 175 190 q 114 346 114 285 q 151 458 114 407 q 251 533 189 508 q 115 732 115 607 q 192 890 115 832 q 379 947 268 947 q 604 908 490 947 q 589 736 604 836 q 544 739 558 736 q 379 885 524 885 q 274 851 314 885 q 233 763 233 817 q 276 672 233 708 q 381 611 319 636 q 503 557 442 586 q 608 476 565 528 q 651 351 651 424 q 522 158 651 222 q 650 -36 650 83 z "},"¨":{"ha":365,"x_min":14,"x_max":351,"o":"m 283 924 q 297 924 283 924 q 331 903 311 924 q 351 853 351 882 q 331 804 351 825 q 284 783 311 783 q 237 804 257 783 q 217 853 217 825 q 236 903 217 882 q 283 924 256 924 m 81 924 q 94 924 81 924 q 128 903 108 924 q 149 853 149 882 q 128 804 149 825 q 81 783 108 783 q 34 804 54 783 q 14 853 14 825 q 33 903 14 882 q 81 924 53 924 z "},"©":{"ha":1090,"x_min":75,"x_max":1015,"o":"m 744 310 q 553 221 665 221 q 365 299 440 221 q 289 508 289 376 q 371 723 289 640 q 576 806 453 806 q 729 774 657 806 q 704 636 725 704 q 665 635 688 632 q 572 738 663 738 q 450 676 496 738 q 404 512 404 614 q 451 354 404 410 q 572 299 497 299 q 711 344 646 299 l 744 310 m 883 849 q 949 786 883 849 q 1015 508 1015 722 q 883 167 1015 294 q 546 40 750 40 q 208 168 342 40 q 75 508 75 296 q 208 849 75 721 q 546 976 342 976 q 883 849 750 976 m 545 919 q 459 919 545 919 q 258 810 372 919 q 144 509 144 701 q 259 207 144 317 q 546 97 374 97 q 832 207 718 97 q 946 509 946 317 q 832 810 946 701 q 545 919 718 919 z "},"ª":{"ha":472,"x_min":38,"x_max":456,"o":"m 275 693 q 177 672 218 693 q 136 600 136 650 q 153 555 136 572 q 210 538 169 538 q 289 575 251 538 l 289 693 q 275 693 282 693 m 372 474 q 290 532 303 474 q 172 474 236 474 q 73 506 108 474 q 38 590 38 538 q 113 706 38 669 q 251 735 174 735 q 289 733 269 735 l 289 793 q 206 872 289 872 q 85 844 142 872 l 68 872 q 240 942 142 942 q 346 905 310 942 q 382 800 382 868 l 382 588 q 413 535 382 535 q 449 542 424 535 l 456 522 q 372 474 419 474 z "},"«":{"ha":883,"x_min":167,"x_max":711,"o":"m 167 511 l 399 774 l 456 746 l 285 511 l 456 275 l 399 246 l 167 511 m 424 511 l 656 774 l 711 746 l 542 511 l 711 275 l 656 246 l 424 511 z "},"¬":{"ha":871,"x_min":97,"x_max":753,"o":"m 753 660 l 753 388 q 715 383 733 383 l 678 388 l 678 556 l 104 556 q 97 607 97 581 q 104 660 97 633 l 753 660 z "},"®":{"ha":1082,"x_min":83,"x_max":999,"o":"m 465 528 l 528 528 q 644 635 644 528 q 528 743 644 743 l 465 743 l 465 528 m 786 290 q 783 253 786 275 l 667 253 l 554 449 q 508 481 538 481 l 465 481 l 465 307 q 546 290 504 293 q 543 253 547 281 l 329 253 q 332 290 326 274 q 374 303 361 294 q 386 335 386 313 l 386 742 q 326 756 360 753 q 329 792 326 785 l 544 792 q 681 747 631 792 q 731 642 731 701 q 697 542 731 582 q 604 488 664 501 q 642 443 622 476 l 707 340 q 742 301 725 311 q 786 290 760 290 m 151 509 q 151 413 151 509 q 263 207 151 317 q 541 97 374 97 q 819 207 708 97 q 931 509 931 317 q 820 810 931 701 q 542 919 710 919 q 263 810 374 919 q 151 509 151 701 m 83 508 q 83 615 83 508 q 213 849 83 721 q 541 976 343 976 q 869 849 739 976 q 999 508 999 721 q 869 168 999 296 q 541 40 739 40 q 213 168 343 40 q 83 508 83 296 z "},"¯":{"ha":353,"x_min":14,"x_max":339,"o":"m 14 781 l 14 836 l 339 836 l 339 781 l 14 781 z "},"°":{"ha":440,"x_min":42,"x_max":399,"o":"m 399 800 q 399 758 399 800 q 348 668 399 715 q 220 621 297 621 q 92 668 143 621 q 42 800 42 715 q 92 933 42 885 q 220 981 143 981 q 348 933 297 981 q 399 800 399 885 m 219 921 q 139 801 139 921 q 219 681 139 681 q 279 710 256 681 q 303 801 303 740 q 279 892 303 863 q 219 921 256 921 z "},"±":{"ha":863,"x_min":89,"x_max":778,"o":"m 89 335 l 728 335 l 778 235 l 778 228 l 139 228 l 89 326 l 89 335 m 778 549 l 489 549 l 489 374 l 482 374 l 376 457 l 376 549 l 139 549 l 89 647 l 89 656 l 376 656 l 376 831 l 385 831 l 489 749 l 489 656 l 728 656 l 778 556 l 778 549 z "},"²":{"ha":344,"x_min":31,"x_max":308,"o":"m 215 543 q 263 558 247 543 q 285 611 278 572 q 308 607 301 611 q 296 483 308 535 l 39 483 q 31 535 31 511 q 185 720 150 668 q 221 813 221 772 q 158 890 221 890 q 79 822 94 890 l 49 822 q 47 856 47 833 q 54 910 47 879 q 171 946 111 946 q 266 911 231 946 q 301 824 301 876 q 263 719 301 771 q 100 543 225 668 l 215 543 z "},"³":{"ha":326,"x_min":26,"x_max":299,"o":"m 211 825 q 153 896 211 896 q 72 826 89 896 q 44 829 50 826 q 44 860 44 839 q 47 915 44 881 q 164 950 107 950 q 254 920 221 950 q 288 848 288 890 q 263 774 288 806 q 199 725 239 742 q 299 604 299 697 q 256 515 299 551 q 146 479 213 479 q 26 524 79 479 q 47 565 40 561 q 136 533 92 533 q 204 552 181 533 q 228 604 228 571 q 113 692 228 688 l 113 738 q 211 825 211 749 z "},"´":{"ha":279,"x_min":14,"x_max":265,"o":"m 14 778 l 160 1017 q 217 999 186 1015 q 265 965 247 983 l 265 947 l 50 756 l 14 778 z "},"µ":{"ha":796,"x_min":15,"x_max":743,"o":"m 654 589 l 654 163 q 742 157 710 157 q 743 126 743 136 q 743 110 743 115 q 536 60 638 74 q 522 193 525 110 q 306 50 442 50 q 244 60 276 50 l 244 -136 q 171 -143 204 -143 q 111 -136 138 -143 l 111 618 q 49 619 71 619 q 15 619 28 619 q 22 667 15 643 q 244 719 128 708 l 244 192 q 353 146 281 146 q 521 283 458 146 l 521 565 q 472 664 521 642 q 482 694 478 686 q 618 721 546 721 q 660 718 639 721 q 654 589 654 668 z "},"¶":{"ha":714,"x_min":40,"x_max":606,"o":"m 297 931 l 606 931 l 606 67 l 524 67 l 524 851 l 428 851 l 428 67 l 347 67 l 347 374 l 296 374 q 110 451 179 374 q 40 652 40 529 q 110 853 40 775 q 297 931 181 931 z "},"·":{"ha":394,"x_min":115,"x_max":279,"o":"m 279 548 q 279 531 279 548 q 255 490 279 514 q 197 465 231 465 q 139 490 163 465 q 115 548 115 514 q 139 606 115 582 q 197 631 163 631 q 255 606 231 631 q 279 548 279 582 z "},"¸":{"ha":375,"x_min":14,"x_max":361,"o":"m 239 -26 q 331 -52 300 -26 q 361 -122 361 -78 q 312 -202 361 -167 q 181 -237 263 -237 q 14 -192 99 -237 l 38 -161 q 167 -192 103 -192 q 268 -124 268 -192 q 192 -72 268 -72 q 135 -78 163 -72 l 168 88 l 261 88 l 238 -26 l 239 -26 z "},"¹":{"ha":265,"x_min":31,"x_max":236,"o":"m 236 524 q 236 508 236 519 q 233 483 236 497 l 32 483 q 31 500 31 490 q 35 524 31 510 q 85 533 71 526 q 100 558 100 540 l 100 860 l 35 850 q 36 883 31 864 q 154 949 121 933 l 174 942 l 174 538 q 236 524 201 525 z "},"º":{"ha":518,"x_min":36,"x_max":482,"o":"m 264 522 q 382 694 382 522 q 349 844 382 793 q 254 896 315 896 q 136 719 136 896 q 169 572 136 622 q 264 522 203 522 m 260 942 q 309 942 260 942 q 420 878 358 942 q 482 708 482 815 q 419 537 482 600 q 258 474 357 474 q 97 536 158 474 q 36 706 36 599 q 99 878 36 814 q 260 942 161 942 z "},"»":{"ha":897,"x_min":175,"x_max":729,"o":"m 175 746 l 229 774 l 461 511 l 229 246 l 175 275 l 343 511 l 175 746 m 442 746 l 497 774 l 729 511 l 497 246 l 442 275 l 611 511 l 442 746 z "},"¼":{"ha":999,"x_min":83,"x_max":928,"o":"m 335 422 q 336 406 336 417 q 331 379 336 396 l 83 379 q 83 397 83 386 q 89 422 83 408 q 150 435 132 426 q 168 467 168 444 l 168 854 l 88 843 q 89 876 85 864 q 238 957 207 943 l 257 949 l 257 440 q 335 422 297 424 m 701 986 l 764 986 l 294 14 l 233 14 l 701 986 m 764 265 l 764 486 l 603 265 l 764 265 m 842 208 l 842 122 q 900 110 865 113 q 897 67 900 83 l 704 67 q 703 85 703 74 q 707 110 703 96 q 752 122 740 114 q 764 151 764 129 l 764 208 l 553 208 q 531 257 538 228 l 797 632 l 842 632 l 842 265 l 922 265 q 928 231 928 244 q 926 208 928 217 l 842 208 z "},"½":{"ha":1078,"x_min":83,"x_max":978,"o":"m 335 422 q 336 406 336 417 q 331 379 336 396 l 83 379 q 83 397 83 386 q 89 422 83 408 q 150 435 132 426 q 168 467 168 444 l 168 854 l 88 843 q 89 876 85 864 q 238 957 207 943 l 257 949 l 257 440 q 335 422 297 424 m 710 986 l 771 986 l 294 14 l 233 14 l 710 986 m 865 138 q 924 156 907 138 q 950 224 942 174 q 978 219 965 224 q 961 65 978 124 l 643 65 q 633 126 633 107 q 828 360 783 293 q 874 475 874 426 q 850 549 874 524 q 789 575 826 575 q 690 490 711 575 q 658 492 667 490 q 658 532 658 504 q 665 596 658 560 q 809 642 736 642 q 926 599 882 642 q 969 489 969 556 q 923 361 969 422 q 715 138 876 300 l 865 138 z "},"¾":{"ha":1040,"x_min":86,"x_max":968,"o":"m 194 694 q 283 731 250 699 q 317 808 317 763 q 296 876 317 853 q 239 900 275 900 q 139 810 160 900 q 108 813 115 810 q 113 919 108 886 q 256 963 185 963 q 368 926 328 963 q 408 836 408 889 q 378 744 408 783 q 296 685 347 706 q 424 535 424 650 q 371 422 424 467 q 235 378 318 378 q 86 432 153 378 q 111 478 106 474 q 222 438 167 438 q 306 463 276 438 q 336 533 336 489 q 194 643 336 635 l 194 694 m 749 986 l 810 986 l 342 14 l 281 14 l 749 986 m 806 265 l 806 489 l 644 265 l 806 265 m 883 208 l 883 122 q 942 110 907 113 q 939 67 942 83 l 746 67 q 744 85 744 74 q 749 110 744 96 q 794 122 782 114 q 806 151 806 129 l 806 208 l 594 208 q 572 257 579 228 l 838 632 l 883 632 l 883 265 l 964 265 q 968 232 968 246 q 967 208 968 218 l 883 208 z "},"¿":{"ha":807,"x_min":143,"x_max":649,"o":"m 340 815 q 340 831 340 815 q 363 869 340 847 q 419 892 386 892 q 473 869 451 892 q 494 815 494 847 q 473 760 494 782 q 419 738 451 738 q 363 760 386 738 q 340 815 340 783 m 240 174 q 240 148 240 174 q 283 88 240 121 q 390 56 326 56 q 575 125 486 56 l 649 35 q 439 -43 557 -43 q 232 33 321 -43 q 143 214 143 108 q 260 396 143 324 q 376 453 310 426 l 376 617 l 389 617 l 464 582 l 464 376 q 426 360 458 374 q 382 340 394 346 q 342 319 369 333 q 301 292 314 304 q 271 261 288 279 q 240 174 240 228 z "},"À":{"ha":829,"x_min":-3,"x_max":832,"o":"m 458 1083 l 421 1061 l 206 1250 l 206 1271 q 255 1303 224 1288 q 311 1321 286 1319 l 458 1083 m 258 489 l 508 489 l 381 892 l 368 835 l 258 489 m 489 133 q 494 185 489 163 q 594 217 564 199 l 528 426 l 239 426 l 169 206 q 275 185 203 188 q 269 133 275 167 l -3 133 q 3 185 -3 163 q 106 265 81 199 l 350 1001 q 478 1015 396 1015 l 721 265 q 759 205 735 222 q 832 185 783 188 q 825 133 829 151 l 489 133 z "},"Á":{"ha":829,"x_min":-3,"x_max":832,"o":"m 642 1243 l 426 1051 l 390 1074 l 536 1313 q 593 1295 563 1311 q 642 1261 624 1279 l 642 1243 m 258 489 l 508 489 l 381 892 l 368 835 l 258 489 m 489 133 q 494 185 489 163 q 594 217 564 199 l 528 426 l 239 426 l 169 206 q 275 185 203 188 q 269 133 275 167 l -3 133 q 3 185 -3 163 q 106 265 81 199 l 350 1001 q 478 1015 396 1015 l 721 265 q 759 205 735 222 q 832 185 783 188 q 825 133 829 151 l 489 133 z "},"Â":{"ha":829,"x_min":-3,"x_max":832,"o":"m 413 1163 l 239 1057 l 207 1088 l 383 1263 l 443 1263 l 619 1088 l 589 1057 l 413 1163 m 258 489 l 508 489 l 381 892 l 368 835 l 258 489 m 489 133 q 494 185 489 163 q 594 217 564 199 l 528 426 l 239 426 l 169 206 q 275 185 203 188 q 269 133 275 167 l -3 133 q 3 185 -3 163 q 106 265 81 199 l 350 1001 q 478 1015 396 1015 l 721 265 q 759 205 735 222 q 832 185 783 188 q 825 133 829 151 l 489 133 z "},"Ã":{"ha":829,"x_min":-3,"x_max":832,"o":"m 490 1092 q 408 1126 457 1092 q 336 1161 360 1161 q 272 1097 285 1161 l 228 1097 q 350 1257 247 1257 q 432 1222 383 1257 q 506 1188 481 1188 q 569 1250 556 1188 l 613 1250 q 490 1092 596 1092 m 258 489 l 508 489 l 381 892 l 368 835 l 258 489 m 489 133 q 494 185 489 163 q 594 217 564 199 l 528 426 l 239 426 l 169 206 q 275 185 203 188 q 269 133 275 167 l -3 133 q 3 185 -3 163 q 106 265 81 199 l 350 1001 q 478 1015 396 1015 l 721 265 q 759 205 735 222 q 832 185 783 188 q 825 133 829 151 l 489 133 z "},"Ä":{"ha":829,"x_min":-3,"x_max":832,"o":"m 582 1151 q 582 1136 582 1151 q 562 1101 582 1122 q 515 1081 542 1081 q 467 1101 488 1081 q 447 1151 447 1122 q 467 1200 447 1179 q 514 1221 486 1221 q 562 1200 542 1221 q 582 1151 582 1179 m 379 1151 q 379 1136 379 1151 q 359 1101 379 1122 q 312 1081 339 1081 q 265 1101 285 1081 q 244 1151 244 1122 q 264 1200 244 1179 q 311 1221 283 1221 q 359 1200 339 1221 q 379 1151 379 1179 m 258 489 l 508 489 l 381 892 l 368 835 l 258 489 m 489 133 q 494 185 489 163 q 594 217 564 199 l 528 426 l 239 426 l 169 206 q 275 185 203 188 q 269 133 275 167 l -3 133 q 3 185 -3 163 q 106 265 81 199 l 350 1001 q 478 1015 396 1015 l 721 265 q 759 205 735 222 q 832 185 783 188 q 825 133 829 151 l 489 133 z "},"Å":{"ha":829,"x_min":-3,"x_max":832,"o":"m 414 1219 q 376 1204 392 1219 q 361 1160 361 1189 q 414 1099 361 1099 q 467 1159 467 1099 q 414 1219 467 1219 m 506 1086 q 487 1072 506 1086 q 414 1058 468 1058 q 322 1086 360 1058 q 283 1159 283 1114 q 322 1232 283 1204 q 414 1260 360 1260 q 506 1232 468 1260 q 544 1159 544 1204 q 506 1086 544 1114 m 258 489 l 508 489 l 381 892 l 368 835 l 258 489 m 489 133 q 494 185 489 163 q 594 217 564 199 l 528 426 l 239 426 l 169 206 q 275 185 203 188 q 269 133 275 167 l -3 133 q 3 185 -3 163 q 106 265 81 199 l 350 1001 q 478 1015 396 1015 l 721 265 q 759 205 735 222 q 832 185 783 188 q 825 133 829 151 l 489 133 z "},"Æ":{"ha":1176,"x_min":6,"x_max":1115,"o":"m 571 422 l 571 768 l 524 683 l 358 422 l 571 422 m 706 126 l 931 126 q 1021 162 999 126 q 1051 282 1043 197 q 1078 283 1063 283 q 1110 279 1093 283 q 1115 155 1115 208 q 1114 67 1115 101 l 476 67 q 476 88 476 74 q 483 118 476 101 q 551 139 531 125 q 571 189 571 153 l 571 360 l 319 360 l 186 149 q 275 121 229 125 q 269 67 275 89 l 6 67 q 6 84 6 71 q 11 121 6 97 q 85 146 58 126 q 138 203 113 165 l 558 865 q 474 881 524 878 q 472 900 472 888 q 479 931 472 913 l 1096 931 q 1097 847 1097 900 q 1089 725 1097 793 q 1035 722 1079 722 q 1006 839 1028 804 q 917 874 983 874 l 706 874 l 706 535 l 897 547 l 944 547 l 944 464 l 897 464 l 706 472 l 706 126 z "},"Ç":{"ha":825,"x_min":74,"x_max":776,"o":"m 482 115 l 465 115 l 450 40 l 451 40 q 543 15 513 40 q 574 -56 574 -11 q 524 -135 574 -100 q 393 -171 475 -171 q 226 -125 311 -171 l 250 -94 q 379 -125 315 -125 q 481 -57 481 -125 q 404 -6 481 -6 q 347 -11 375 -6 l 375 129 q 158 276 242 164 q 74 557 74 388 q 204 889 74 761 q 525 1017 335 1017 q 756 972 664 1017 q 731 771 753 872 q 689 772 693 771 q 641 892 686 847 q 521 938 596 938 q 306 838 388 938 q 224 568 224 739 q 308 303 224 397 q 519 210 392 210 q 744 276 646 210 l 776 242 q 482 115 654 115 z "},"È":{"ha":751,"x_min":49,"x_max":690,"o":"m 450 1083 l 413 1061 l 197 1250 l 197 1271 q 247 1303 215 1288 q 303 1321 278 1319 l 450 1083 m 281 193 l 506 193 q 596 228 574 193 q 626 349 618 264 q 653 350 638 350 q 685 346 668 350 q 690 222 690 275 q 689 133 690 168 l 53 133 q 53 154 53 140 q 58 185 53 168 q 126 206 106 192 q 146 256 146 219 l 146 928 q 49 947 107 944 q 54 997 49 981 l 671 997 q 672 913 672 967 q 664 792 672 860 q 610 789 654 789 q 581 906 603 871 q 493 940 560 940 l 281 940 l 281 601 l 496 614 l 543 614 l 543 531 l 496 531 l 281 539 l 281 193 z "},"É":{"ha":751,"x_min":49,"x_max":690,"o":"m 632 1242 l 417 1050 l 381 1072 l 526 1311 q 583 1294 553 1310 q 632 1260 614 1278 l 632 1242 m 281 193 l 506 193 q 596 228 574 193 q 626 349 618 264 q 653 350 638 350 q 685 346 668 350 q 690 222 690 275 q 689 133 690 168 l 53 133 q 53 154 53 140 q 58 185 53 168 q 126 206 106 192 q 146 256 146 219 l 146 928 q 49 947 107 944 q 54 997 49 981 l 671 997 q 672 913 672 967 q 664 792 672 860 q 610 789 654 789 q 581 906 603 871 q 493 940 560 940 l 281 940 l 281 601 l 496 614 l 543 614 l 543 531 l 496 531 l 281 539 l 281 193 z "},"Ê":{"ha":751,"x_min":49,"x_max":690,"o":"m 401 1163 l 228 1057 l 196 1088 l 372 1263 l 432 1263 l 608 1088 l 578 1057 l 401 1163 m 281 193 l 506 193 q 596 228 574 193 q 626 349 618 264 q 653 350 638 350 q 685 346 668 350 q 690 222 690 275 q 689 133 690 168 l 53 133 q 53 154 53 140 q 58 185 53 168 q 126 206 106 192 q 146 256 146 219 l 146 928 q 49 947 107 944 q 54 997 49 981 l 671 997 q 672 913 672 967 q 664 792 672 860 q 610 789 654 789 q 581 906 603 871 q 493 940 560 940 l 281 940 l 281 601 l 496 614 l 543 614 l 543 531 l 496 531 l 281 539 l 281 193 z "},"Ë":{"ha":751,"x_min":49,"x_max":690,"o":"m 567 1151 q 567 1136 567 1151 q 547 1101 567 1122 q 499 1081 526 1081 q 452 1101 472 1081 q 432 1151 432 1122 q 451 1200 432 1179 q 499 1221 471 1221 q 547 1200 526 1221 q 567 1151 567 1179 m 364 1151 q 364 1136 364 1151 q 344 1101 364 1122 q 297 1081 324 1081 q 249 1101 269 1081 q 229 1151 229 1122 q 249 1200 229 1179 q 296 1221 268 1221 q 344 1200 324 1221 q 364 1151 364 1179 m 281 193 l 506 193 q 596 228 574 193 q 626 349 618 264 q 653 350 638 350 q 685 346 668 350 q 690 222 690 275 q 689 133 690 168 l 53 133 q 53 154 53 140 q 58 185 53 168 q 126 206 106 192 q 146 256 146 219 l 146 928 q 49 947 107 944 q 54 997 49 981 l 671 997 q 672 913 672 967 q 664 792 672 860 q 610 789 654 789 q 581 906 603 871 q 493 940 560 940 l 281 940 l 281 601 l 496 614 l 543 614 l 543 531 l 496 531 l 281 539 l 281 193 z "},"Ì":{"ha":425,"x_min":7,"x_max":375,"o":"m 260 1083 l 222 1061 l 7 1250 l 7 1271 q 56 1303 25 1288 q 113 1321 88 1319 l 260 1083 m 281 876 l 281 204 q 375 185 321 188 q 375 169 375 181 q 371 133 375 158 l 53 133 q 53 154 53 140 q 58 185 53 168 q 126 206 106 192 q 146 256 146 219 l 146 928 q 49 947 107 944 q 54 997 49 981 l 372 997 q 368 947 372 961 q 301 927 321 942 q 281 876 281 913 z "},"Í":{"ha":425,"x_min":49,"x_max":442,"o":"m 281 876 l 281 204 q 375 185 321 188 q 375 169 375 181 q 371 133 375 158 l 53 133 q 53 154 53 140 q 58 185 53 168 q 126 206 106 192 q 146 256 146 219 l 146 928 q 49 947 107 944 q 54 997 49 981 l 372 997 q 368 947 372 961 q 301 927 321 942 q 281 876 281 913 m 190 1074 l 336 1313 q 393 1295 363 1311 q 442 1261 424 1279 l 442 1243 l 226 1051 l 190 1074 z "},"Î":{"ha":425,"x_min":7,"x_max":419,"o":"m 281 876 l 281 204 q 375 185 321 188 q 375 169 375 181 q 371 133 375 158 l 53 133 q 53 154 53 140 q 58 185 53 168 q 126 206 106 192 q 146 256 146 219 l 146 928 q 49 947 107 944 q 54 997 49 981 l 372 997 q 368 947 372 961 q 301 927 321 942 q 281 876 281 913 m 243 1263 l 419 1088 l 389 1057 l 213 1163 l 39 1057 l 7 1088 l 183 1263 l 243 1263 z "},"Ï":{"ha":425,"x_min":44,"x_max":382,"o":"m 382 1151 q 382 1136 382 1151 q 362 1101 382 1122 q 315 1081 342 1081 q 267 1101 288 1081 q 247 1151 247 1122 q 267 1200 247 1179 q 314 1221 286 1221 q 362 1200 342 1221 q 382 1151 382 1179 m 179 1151 q 179 1136 179 1151 q 159 1101 179 1122 q 112 1081 139 1081 q 65 1101 85 1081 q 44 1151 44 1122 q 64 1200 44 1179 q 111 1221 83 1221 q 159 1200 139 1221 q 179 1151 179 1179 m 281 876 l 281 204 q 375 185 321 188 q 375 169 375 181 q 371 133 375 158 l 53 133 q 53 154 53 140 q 58 185 53 168 q 126 206 106 192 q 146 256 146 219 l 146 928 q 49 947 107 944 q 54 997 49 981 l 372 997 q 368 947 372 961 q 301 927 321 942 q 281 876 281 913 z "},"Ð":{"ha":869,"x_min":36,"x_max":832,"o":"m 279 193 l 381 193 q 606 292 528 193 q 683 566 683 390 q 605 841 683 742 q 375 940 526 940 l 279 940 l 279 535 l 447 535 q 451 503 451 519 q 447 469 451 486 l 279 469 l 279 193 m 389 997 q 709 884 586 997 q 832 566 832 771 q 713 247 832 361 q 400 133 593 133 l 51 133 q 50 154 50 140 q 57 185 50 168 q 124 206 104 192 q 144 256 144 219 l 144 469 l 39 469 q 36 503 36 486 q 39 535 36 519 l 144 535 l 144 929 q 49 947 108 944 q 49 963 49 951 q 53 997 49 975 l 389 997 z "},"Ñ":{"ha":963,"x_min":57,"x_max":915,"o":"m 578 1092 q 496 1126 544 1092 q 424 1161 447 1161 q 360 1097 372 1161 l 315 1097 q 438 1257 335 1257 q 519 1222 469 1257 q 593 1188 569 1188 q 657 1250 643 1188 l 700 1250 q 578 1092 683 1092 m 914 997 q 915 976 915 989 q 910 947 915 963 q 815 869 815 936 l 815 133 l 757 133 l 311 742 l 235 854 l 235 204 q 338 185 271 188 q 338 169 338 181 q 333 133 338 158 l 58 133 q 57 155 57 142 q 63 185 57 168 q 156 261 156 197 l 156 932 q 58 947 115 947 q 65 997 61 983 l 288 997 l 636 522 l 736 372 l 736 928 q 633 947 700 944 q 633 963 633 951 q 638 997 633 975 l 914 997 z "},"Ò":{"ha":936,"x_min":75,"x_max":864,"o":"m 368 1321 l 515 1083 l 478 1061 l 263 1250 l 263 1271 q 312 1303 281 1288 q 368 1321 343 1319 m 233 586 q 476 181 233 181 q 647 274 589 181 q 704 539 704 367 q 704 564 704 551 q 636 856 701 760 q 460 951 571 951 q 291 853 349 951 q 233 586 233 754 m 755 239 q 700 176 755 239 q 468 114 646 114 q 183 238 290 114 q 75 563 75 363 q 183 890 75 764 q 467 1017 290 1017 q 754 890 644 1017 q 864 563 864 763 q 755 239 864 364 z "},"Ó":{"ha":936,"x_min":75,"x_max":864,"o":"m 233 586 q 476 181 233 181 q 647 274 589 181 q 704 539 704 367 q 704 564 704 551 q 636 856 701 760 q 460 951 571 951 q 291 853 349 951 q 233 586 233 754 m 755 239 q 700 176 755 239 q 468 114 646 114 q 183 238 290 114 q 75 563 75 363 q 183 890 75 764 q 467 1017 290 1017 q 754 890 644 1017 q 864 563 864 763 q 755 239 864 364 m 446 1072 l 592 1311 q 649 1294 618 1310 q 697 1260 679 1278 l 697 1242 l 482 1050 l 446 1072 z "},"Ô":{"ha":936,"x_min":75,"x_max":864,"o":"m 233 586 q 476 181 233 181 q 647 274 589 181 q 704 539 704 367 q 704 564 704 551 q 636 856 701 760 q 460 951 571 951 q 291 853 349 951 q 233 586 233 754 m 755 239 q 700 176 755 239 q 468 114 646 114 q 183 238 290 114 q 75 563 75 363 q 183 890 75 764 q 467 1017 290 1017 q 754 890 644 1017 q 864 563 864 763 q 755 239 864 364 m 674 1088 l 643 1057 l 467 1163 l 293 1057 l 261 1088 l 438 1263 l 497 1263 l 674 1088 z "},"Õ":{"ha":936,"x_min":75,"x_max":864,"o":"m 407 1257 q 489 1222 439 1257 q 563 1188 539 1188 q 626 1250 613 1188 l 669 1250 q 547 1092 653 1092 q 465 1126 514 1092 q 393 1161 417 1161 q 329 1097 342 1161 l 285 1097 q 407 1257 304 1257 m 233 586 q 476 181 233 181 q 647 274 589 181 q 704 539 704 367 q 704 564 704 551 q 636 856 701 760 q 460 951 571 951 q 291 853 349 951 q 233 586 233 754 m 755 239 q 700 176 755 239 q 468 114 646 114 q 183 238 290 114 q 75 563 75 363 q 183 890 75 764 q 467 1017 290 1017 q 754 890 644 1017 q 864 563 864 763 q 755 239 864 364 z "},"Ö":{"ha":936,"x_min":75,"x_max":864,"o":"m 233 586 q 476 181 233 181 q 647 274 589 181 q 704 539 704 367 q 704 564 704 551 q 636 856 701 760 q 460 951 571 951 q 291 853 349 951 q 233 586 233 754 m 755 239 q 700 176 755 239 q 468 114 646 114 q 183 238 290 114 q 75 563 75 363 q 183 890 75 764 q 467 1017 290 1017 q 754 890 644 1017 q 864 563 864 763 q 755 239 864 364 m 563 1221 q 576 1221 563 1221 q 610 1200 590 1221 q 631 1151 631 1179 q 610 1101 631 1122 q 563 1081 590 1081 q 516 1101 536 1081 q 496 1151 496 1122 q 515 1200 496 1179 q 563 1221 535 1221 m 360 1221 q 374 1221 360 1221 q 408 1200 388 1221 q 428 1151 428 1179 q 408 1101 428 1122 q 360 1081 388 1081 q 313 1101 333 1081 q 293 1151 293 1122 q 313 1200 293 1179 q 360 1221 332 1221 z "},"×":{"ha":749,"x_min":108,"x_max":640,"o":"m 640 715 l 443 501 l 639 283 l 576 239 l 392 446 l 206 244 l 108 310 l 315 529 l 122 744 l 188 788 l 368 586 l 558 788 l 640 715 z "},"Ø":{"ha":936,"x_min":74,"x_max":875,"o":"m 300 221 q 481 118 363 118 q 653 215 600 118 q 706 460 706 311 q 704 497 706 478 q 672 692 697 615 l 300 221 m 640 765 q 456 879 576 879 q 281 772 336 879 q 232 539 232 681 q 267 292 232 397 l 640 765 m 765 810 q 864 491 864 685 q 755 172 864 297 q 468 47 646 47 q 224 124 319 47 l 163 47 l 74 47 l 174 174 q 75 495 75 293 q 183 824 75 697 q 468 950 290 950 q 717 861 615 950 l 786 949 l 875 949 l 765 810 z "},"Ù":{"ha":938,"x_min":46,"x_max":894,"o":"m 518 1083 l 481 1061 l 265 1250 l 265 1271 q 315 1303 283 1288 q 371 1321 346 1319 l 518 1083 m 894 997 q 894 976 894 990 q 889 947 894 963 q 822 927 842 942 q 801 876 801 913 l 801 418 q 713 189 801 263 q 472 115 624 115 q 231 189 321 115 q 142 418 142 263 l 142 928 q 46 947 101 944 q 46 963 46 951 q 50 997 46 975 l 368 997 q 369 976 369 989 q 364 947 369 963 q 297 927 317 942 q 276 876 276 913 l 276 413 q 328 242 276 297 q 472 188 381 188 q 614 242 563 188 q 665 413 665 297 l 665 928 q 571 947 626 944 q 571 963 571 951 q 575 997 571 975 l 894 997 z "},"Ú":{"ha":950,"x_min":46,"x_max":894,"o":"m 688 1242 l 472 1050 l 436 1072 l 582 1311 q 639 1294 608 1310 q 688 1260 669 1278 l 688 1242 m 894 997 q 894 976 894 990 q 889 947 894 963 q 822 927 842 942 q 801 876 801 913 l 801 418 q 713 189 801 263 q 472 115 624 115 q 231 189 321 115 q 142 418 142 263 l 142 928 q 46 947 101 944 q 46 963 46 951 q 50 997 46 975 l 368 997 q 369 976 369 989 q 364 947 369 963 q 297 927 317 942 q 276 876 276 913 l 276 413 q 328 242 276 297 q 472 188 381 188 q 614 242 563 188 q 665 413 665 297 l 665 928 q 571 947 626 944 q 571 963 571 951 q 575 997 571 975 l 894 997 z "},"Û":{"ha":950,"x_min":46,"x_max":894,"o":"m 457 1163 l 283 1057 l 251 1088 l 428 1263 l 488 1263 l 664 1088 l 633 1057 l 457 1163 m 894 997 q 894 976 894 990 q 889 947 894 963 q 822 927 842 942 q 801 876 801 913 l 801 418 q 713 189 801 263 q 472 115 624 115 q 231 189 321 115 q 142 418 142 263 l 142 928 q 46 947 101 944 q 46 963 46 951 q 50 997 46 975 l 368 997 q 369 976 369 989 q 364 947 369 963 q 297 927 317 942 q 276 876 276 913 l 276 413 q 328 242 276 297 q 472 188 381 188 q 614 242 563 188 q 665 413 665 297 l 665 928 q 571 947 626 944 q 571 963 571 951 q 575 997 571 975 l 894 997 z "},"Ü":{"ha":950,"x_min":46,"x_max":894,"o":"m 619 1151 q 619 1136 619 1151 q 599 1101 619 1122 q 552 1081 579 1081 q 505 1101 525 1081 q 485 1151 485 1122 q 504 1200 485 1179 q 551 1221 524 1221 q 599 1200 579 1221 q 619 1151 619 1179 m 417 1151 q 417 1136 417 1151 q 397 1101 417 1122 q 349 1081 376 1081 q 302 1101 322 1081 q 282 1151 282 1122 q 301 1200 282 1179 q 349 1221 321 1221 q 397 1200 376 1221 q 417 1151 417 1179 m 894 997 q 894 976 894 990 q 889 947 894 963 q 822 927 842 942 q 801 876 801 913 l 801 418 q 713 189 801 263 q 472 115 624 115 q 231 189 321 115 q 142 418 142 263 l 142 928 q 46 947 101 944 q 46 963 46 951 q 50 997 46 975 l 368 997 q 369 976 369 989 q 364 947 369 963 q 297 927 317 942 q 276 876 276 913 l 276 413 q 328 242 276 297 q 472 188 381 188 q 614 242 563 188 q 665 413 665 297 l 665 928 q 571 947 626 944 q 571 963 571 951 q 575 997 571 975 l 894 997 z "},"Ý":{"ha":829,"x_min":-1,"x_max":829,"o":"m 664 1243 l 449 1051 l 413 1074 l 558 1313 q 615 1295 585 1311 q 664 1261 646 1279 l 664 1243 m 335 947 q 253 904 253 940 q 265 867 253 888 l 442 546 l 446 546 q 485 631 458 588 l 671 932 q 589 947 628 946 q 594 997 589 967 l 829 997 q 824 947 829 971 q 763 926 783 942 q 719 874 743 911 l 485 494 l 485 201 q 585 185 526 188 q 581 133 585 158 l 243 133 q 243 152 243 139 q 247 185 243 165 q 317 206 296 192 q 339 256 339 219 l 339 483 l 78 933 q 4 947 43 944 q -1 997 -1 983 l 326 997 q 335 947 335 972 z "},"Þ":{"ha":776,"x_min":49,"x_max":735,"o":"m 281 344 l 406 344 q 537 387 489 344 q 585 508 585 429 q 539 628 585 586 q 406 671 493 671 l 281 671 l 281 344 m 281 731 l 435 731 q 654 670 574 731 q 735 507 735 610 q 654 344 735 404 q 435 285 574 285 l 281 285 l 281 138 q 375 118 321 121 q 375 103 375 114 q 371 67 375 92 l 53 67 q 53 88 53 74 q 58 118 53 101 q 126 139 106 125 q 146 189 146 153 l 146 861 q 49 881 107 878 q 54 931 49 914 l 372 931 q 368 881 372 894 q 301 860 321 875 q 281 810 281 846 l 281 731 z "},"ß":{"ha":829,"x_min":47,"x_max":760,"o":"m 143 192 l 143 660 q 223 859 143 788 q 438 931 303 931 q 647 865 572 931 q 722 704 722 799 q 684 590 722 638 q 581 519 646 542 q 713 440 665 500 q 760 292 760 381 q 688 135 760 204 q 476 67 615 67 q 367 83 419 67 q 363 115 363 100 q 365 143 363 129 q 451 126 407 126 q 571 174 529 126 q 613 302 613 222 q 569 430 613 382 q 436 478 525 478 l 388 478 q 382 514 382 500 q 383 538 382 528 l 461 538 q 575 704 575 583 q 536 829 575 785 q 425 874 497 874 q 317 824 353 874 q 281 689 281 774 l 281 67 l 49 67 q 47 89 47 75 q 53 119 47 103 q 122 140 101 125 q 143 192 143 156 z "},"à":{"ha":664,"x_min":54,"x_max":642,"o":"m 376 853 l 339 831 l 124 1019 l 124 1040 q 173 1073 142 1057 q 229 1090 204 1089 l 376 853 m 196 303 q 222 232 196 257 q 290 207 247 207 q 401 254 356 207 l 401 461 l 319 439 q 196 303 196 406 m 521 115 q 447 136 479 115 q 406 194 415 157 q 248 115 339 115 q 106 165 157 115 q 54 292 54 215 q 105 417 54 369 q 261 488 156 465 l 401 518 l 401 574 q 292 686 401 686 q 119 653 211 686 l 93 692 q 343 785 201 785 q 485 731 436 785 q 535 582 535 678 l 535 278 q 579 204 535 204 q 631 213 589 204 l 642 186 q 521 115 586 115 z "},"á":{"ha":664,"x_min":54,"x_max":642,"o":"m 560 1011 l 344 819 l 308 842 l 454 1081 q 511 1063 481 1079 q 560 1029 542 1047 l 560 1011 m 196 303 q 222 232 196 257 q 290 207 247 207 q 401 254 356 207 l 401 461 l 319 439 q 196 303 196 406 m 521 115 q 447 136 479 115 q 406 194 415 157 q 248 115 339 115 q 106 165 157 115 q 54 292 54 215 q 105 417 54 369 q 261 488 156 465 l 401 518 l 401 574 q 292 686 401 686 q 119 653 211 686 l 93 692 q 343 785 201 785 q 485 731 436 785 q 535 582 535 678 l 535 278 q 579 204 535 204 q 631 213 589 204 l 642 186 q 521 115 586 115 z "},"â":{"ha":664,"x_min":54,"x_max":642,"o":"m 331 932 l 157 826 l 125 857 l 301 1032 l 361 1032 l 538 857 l 507 826 l 331 932 m 196 303 q 222 232 196 257 q 290 207 247 207 q 401 254 356 207 l 401 461 l 319 439 q 196 303 196 406 m 521 115 q 447 136 479 115 q 406 194 415 157 q 248 115 339 115 q 106 165 157 115 q 54 292 54 215 q 105 417 54 369 q 261 488 156 465 l 401 518 l 401 574 q 292 686 401 686 q 119 653 211 686 l 93 692 q 343 785 201 785 q 485 731 436 785 q 535 582 535 678 l 535 278 q 579 204 535 204 q 631 213 589 204 l 642 186 q 521 115 586 115 z "},"ã":{"ha":664,"x_min":54,"x_max":642,"o":"m 408 861 q 326 896 375 861 q 254 931 278 931 q 190 867 203 931 l 146 867 q 268 1026 165 1026 q 351 992 301 1026 q 424 957 400 957 q 488 1019 474 957 l 531 1019 q 408 861 514 861 m 196 303 q 222 232 196 257 q 290 207 247 207 q 401 254 356 207 l 401 461 l 319 439 q 196 303 196 406 m 521 115 q 447 136 479 115 q 406 194 415 157 q 248 115 339 115 q 106 165 157 115 q 54 292 54 215 q 105 417 54 369 q 261 488 156 465 l 401 518 l 401 574 q 292 686 401 686 q 119 653 211 686 l 93 692 q 343 785 201 785 q 485 731 436 785 q 535 582 535 678 l 535 278 q 579 204 535 204 q 631 213 589 204 l 642 186 q 521 115 586 115 z "},"ä":{"ha":664,"x_min":54,"x_max":642,"o":"m 500 920 q 500 906 500 920 q 480 871 500 892 q 433 850 460 850 q 385 871 406 850 q 365 920 365 892 q 385 969 365 949 q 432 990 404 990 q 480 969 460 990 q 500 920 500 949 m 297 920 q 297 906 297 920 q 277 871 297 892 q 230 850 257 850 q 183 871 203 850 q 163 920 163 892 q 182 969 163 949 q 229 990 201 990 q 277 969 257 990 q 297 920 297 949 m 196 303 q 222 232 196 257 q 290 207 247 207 q 401 254 356 207 l 401 461 l 319 439 q 196 303 196 406 m 521 115 q 447 136 479 115 q 406 194 415 157 q 248 115 339 115 q 106 165 157 115 q 54 292 54 215 q 105 417 54 369 q 261 488 156 465 l 401 518 l 401 574 q 292 686 401 686 q 119 653 211 686 l 93 692 q 343 785 201 785 q 485 731 436 785 q 535 582 535 678 l 535 278 q 579 204 535 204 q 631 213 589 204 l 642 186 q 521 115 586 115 z "},"å":{"ha":664,"x_min":54,"x_max":642,"o":"m 331 989 q 293 974 308 989 q 278 929 278 958 q 331 868 278 868 q 383 928 383 868 q 331 989 383 989 m 423 856 q 404 842 423 856 q 331 828 385 828 q 238 856 276 828 q 200 928 200 883 q 238 1001 200 974 q 331 1029 276 1029 q 423 1001 385 1029 q 461 928 461 974 q 423 856 461 883 m 196 303 q 222 232 196 257 q 290 207 247 207 q 401 254 356 207 l 401 461 l 319 439 q 196 303 196 406 m 521 115 q 447 136 479 115 q 406 194 415 157 q 248 115 339 115 q 106 165 157 115 q 54 292 54 215 q 105 417 54 369 q 261 488 156 465 l 401 518 l 401 574 q 292 686 401 686 q 119 653 211 686 l 93 692 q 343 785 201 785 q 485 731 436 785 q 535 582 535 678 l 535 278 q 579 204 535 204 q 631 213 589 204 l 642 186 q 521 115 586 115 z "},"æ":{"ha":1015,"x_min":54,"x_max":964,"o":"m 826 482 q 792 608 825 568 q 706 649 758 649 q 608 605 654 649 q 549 471 563 561 l 696 481 l 826 482 m 196 236 q 222 165 196 190 q 290 140 247 140 q 431 224 374 140 q 401 371 401 290 l 401 394 l 319 372 q 196 236 196 339 m 543 417 l 543 393 q 594 203 543 267 q 741 139 646 139 q 939 199 836 139 l 957 167 q 697 49 849 49 q 566 81 631 49 q 458 174 501 113 q 244 49 372 49 q 106 99 158 49 q 54 226 54 149 q 105 351 54 303 q 261 421 156 399 l 401 451 l 401 507 q 292 619 401 619 q 119 586 211 619 l 93 625 q 343 718 201 718 q 506 624 461 718 q 710 718 594 718 q 894 651 825 718 q 964 450 964 583 q 946 417 957 433 l 543 417 z "},"ç":{"ha":626,"x_min":50,"x_max":589,"o":"m 358 40 q 450 15 419 40 q 481 -56 481 -11 q 431 -135 481 -100 q 300 -171 382 -171 q 133 -125 218 -171 l 157 -94 q 286 -125 222 -125 q 388 -57 388 -125 q 311 -6 388 -6 q 254 -11 282 -6 l 281 122 q 116 226 182 143 q 50 438 50 310 q 145 690 50 594 q 383 785 240 785 q 571 735 490 785 q 554 569 568 647 q 519 575 529 572 q 478 676 518 639 q 378 714 438 714 q 243 646 293 714 q 193 454 193 578 q 244 265 193 331 q 382 200 294 200 q 567 253 469 200 l 589 224 q 374 117 492 128 l 357 40 l 358 40 z "},"è":{"ha":665,"x_min":51,"x_max":614,"o":"m 414 853 l 376 831 l 161 1019 l 161 1040 q 210 1073 179 1057 q 267 1090 242 1089 l 414 853 m 476 549 q 441 675 475 635 q 356 715 407 715 q 258 672 304 715 q 199 538 213 628 l 346 547 l 476 549 m 193 483 l 193 460 q 244 269 193 333 q 391 206 296 206 q 589 265 486 206 l 607 233 q 347 115 499 115 q 143 199 235 115 q 51 442 51 283 q 149 692 51 600 q 360 785 246 785 q 544 717 475 785 q 614 517 614 650 q 596 483 607 500 l 193 483 z "},"é":{"ha":665,"x_min":51,"x_max":614,"o":"m 596 1013 l 381 821 l 344 843 l 490 1082 q 547 1065 517 1081 q 596 1031 578 1049 l 596 1013 m 476 549 q 441 675 475 635 q 356 715 407 715 q 258 672 304 715 q 199 538 213 628 l 346 547 l 476 549 m 193 483 l 193 460 q 244 269 193 333 q 391 206 296 206 q 589 265 486 206 l 607 233 q 347 115 499 115 q 143 199 235 115 q 51 442 51 283 q 149 692 51 600 q 360 785 246 785 q 544 717 475 785 q 614 517 614 650 q 596 483 607 500 l 193 483 z "},"ê":{"ha":665,"x_min":51,"x_max":614,"o":"m 367 932 l 193 826 l 161 857 l 338 1032 l 397 1032 l 574 857 l 543 826 l 367 932 m 476 549 q 441 675 475 635 q 356 715 407 715 q 258 672 304 715 q 199 538 213 628 l 346 547 l 476 549 m 193 483 l 193 460 q 244 269 193 333 q 391 206 296 206 q 589 265 486 206 l 607 233 q 347 115 499 115 q 143 199 235 115 q 51 442 51 283 q 149 692 51 600 q 360 785 246 785 q 544 717 475 785 q 614 517 614 650 q 596 483 607 500 l 193 483 z "},"ë":{"ha":665,"x_min":51,"x_max":614,"o":"m 529 920 q 529 906 529 920 q 509 871 529 892 q 462 850 489 850 q 415 871 435 850 q 394 920 394 892 q 414 969 394 949 q 461 990 433 990 q 509 969 489 990 q 529 920 529 949 m 326 920 q 326 906 326 920 q 306 871 326 892 q 259 850 286 850 q 212 871 232 850 q 192 920 192 892 q 211 969 192 949 q 258 990 231 990 q 306 969 286 990 q 326 920 326 949 m 476 549 q 441 675 475 635 q 356 715 407 715 q 258 672 304 715 q 199 538 213 628 l 346 547 l 476 549 m 193 483 l 193 460 q 244 269 193 333 q 391 206 296 206 q 589 265 486 206 l 607 233 q 347 115 499 115 q 143 199 235 115 q 51 442 51 283 q 149 692 51 600 q 360 785 246 785 q 544 717 475 785 q 614 517 614 650 q 596 483 607 500 l 193 483 z "},"ì":{"ha":410,"x_min":-1,"x_max":358,"o":"m 251 853 l 214 831 l -1 1019 l -1 1040 q 48 1073 17 1057 q 104 1090 79 1089 l 251 853 m 358 186 q 358 170 358 182 q 354 133 358 158 l 40 133 q 39 156 39 142 q 44 186 39 169 q 114 206 93 192 q 135 257 135 221 l 135 674 q 86 676 111 676 q 39 675 61 676 q 47 725 42 704 q 269 778 151 764 l 269 204 q 358 186 308 189 z "},"í":{"ha":410,"x_min":39,"x_max":433,"o":"m 358 186 q 358 170 358 182 q 354 133 358 158 l 40 133 q 39 156 39 142 q 44 186 39 169 q 114 206 93 192 q 135 257 135 221 l 135 674 q 86 676 111 676 q 39 675 61 676 q 47 725 42 704 q 269 778 151 764 l 269 204 q 358 186 308 189 m 182 843 l 328 1082 q 385 1065 354 1081 q 433 1031 415 1049 l 433 1013 l 218 821 l 182 843 z "},"î":{"ha":410,"x_min":0,"x_max":413,"o":"m 358 186 q 358 170 358 182 q 354 133 358 158 l 40 133 q 39 156 39 142 q 44 186 39 169 q 114 206 93 192 q 135 257 135 221 l 135 674 q 86 676 111 676 q 39 675 61 676 q 47 725 42 704 q 269 778 151 764 l 269 204 q 358 186 308 189 m 236 1032 l 413 857 l 382 826 l 206 932 l 32 826 l 0 857 l 176 1032 l 236 1032 z "},"ï":{"ha":410,"x_min":31,"x_max":368,"o":"m 368 920 q 368 906 368 920 q 348 871 368 892 q 301 850 328 850 q 253 871 274 850 q 233 920 233 892 q 253 969 233 949 q 300 990 272 990 q 348 969 328 990 q 368 920 368 949 m 165 920 q 165 906 165 920 q 145 871 165 892 q 98 850 125 850 q 51 871 71 850 q 31 920 31 892 q 50 969 31 949 q 97 990 69 990 q 145 969 125 990 q 165 920 165 949 m 358 186 q 358 170 358 182 q 354 133 358 158 l 40 133 q 39 156 39 142 q 44 186 39 169 q 114 206 93 192 q 135 257 135 221 l 135 674 q 86 676 111 676 q 39 675 61 676 q 47 725 42 704 q 269 778 151 764 l 269 204 q 358 186 308 189 z "},"ð":{"ha":711,"x_min":51,"x_max":646,"o":"m 194 380 q 195 317 194 380 q 237 187 196 254 q 351 119 278 119 q 464 208 425 119 q 503 422 503 296 q 488 631 503 547 q 403 643 449 643 q 247 574 301 643 q 194 380 192 506 m 646 447 q 559 162 646 274 q 343 50 472 50 q 133 135 214 50 q 51 369 51 219 q 158 619 51 519 q 415 718 264 718 q 467 717 450 718 q 403 857 444 788 l 251 788 q 219 844 226 808 l 368 911 q 272 1026 317 979 l 317 1067 q 440 944 389 1004 l 592 1013 q 625 957 617 992 l 482 892 q 646 447 646 681 z "},"ñ":{"ha":803,"x_min":39,"x_max":775,"o":"m 494 861 q 413 896 461 861 q 340 931 364 931 q 276 867 289 931 l 232 867 q 354 1026 251 1026 q 436 992 386 1026 q 510 957 486 957 q 574 1019 560 957 l 617 1019 q 494 861 600 861 m 679 574 l 679 206 q 775 186 728 188 q 769 133 775 154 l 460 133 q 458 155 458 142 q 463 186 458 168 q 526 206 508 192 q 544 257 544 221 l 544 560 q 515 658 544 625 q 433 690 485 690 q 269 554 322 690 l 269 204 q 358 186 308 189 q 358 170 358 182 q 354 133 358 158 l 40 133 q 39 156 39 142 q 44 186 39 169 q 114 206 93 192 q 135 257 135 221 l 135 675 q 73 676 94 676 q 39 676 51 676 q 47 725 42 707 q 256 776 147 763 q 268 646 267 711 q 483 785 339 785 q 624 730 569 785 q 679 574 679 675 z "},"ò":{"ha":724,"x_min":51,"x_max":672,"o":"m 268 1090 l 415 853 l 378 831 l 163 1019 l 163 1040 q 212 1073 181 1057 q 268 1090 243 1089 m 369 186 q 529 429 529 186 q 484 647 529 574 q 356 719 439 719 q 193 463 193 719 q 193 450 193 457 q 369 186 201 186 m 364 785 q 434 785 364 785 q 588 695 504 785 q 672 451 672 606 q 586 207 672 297 q 359 117 500 117 q 135 206 218 117 q 51 450 51 296 q 138 694 51 604 q 364 785 224 785 z "},"ó":{"ha":740,"x_min":51,"x_max":672,"o":"m 369 186 q 529 429 529 186 q 484 647 529 574 q 356 719 439 719 q 193 463 193 719 q 193 450 193 457 q 369 186 201 186 m 364 785 q 434 785 364 785 q 588 695 504 785 q 672 451 672 606 q 586 207 672 297 q 359 117 500 117 q 135 206 218 117 q 51 450 51 296 q 138 694 51 604 q 364 785 224 785 m 346 843 l 492 1082 q 549 1065 518 1081 q 597 1031 579 1049 l 597 1013 l 382 821 l 346 843 z "},"ô":{"ha":740,"x_min":51,"x_max":672,"o":"m 369 186 q 529 429 529 186 q 484 647 529 574 q 356 719 439 719 q 193 463 193 719 q 193 450 193 457 q 369 186 201 186 m 364 785 q 434 785 364 785 q 588 695 504 785 q 672 451 672 606 q 586 207 672 297 q 359 117 500 117 q 135 206 218 117 q 51 450 51 296 q 138 694 51 604 q 364 785 224 785 m 575 857 l 544 826 l 368 932 l 194 826 l 163 857 l 339 1032 l 399 1032 l 575 857 z "},"õ":{"ha":724,"x_min":51,"x_max":672,"o":"m 307 1026 q 389 992 339 1026 q 463 957 439 957 q 526 1019 513 957 l 569 1019 q 447 861 553 861 q 365 896 414 861 q 293 931 317 931 q 229 867 242 931 l 185 867 q 307 1026 204 1026 m 369 186 q 529 429 529 186 q 484 647 529 574 q 356 719 439 719 q 193 463 193 719 q 193 450 193 457 q 369 186 201 186 m 364 785 q 434 785 364 785 q 588 695 504 785 q 672 451 672 606 q 586 207 672 297 q 359 117 500 117 q 135 206 218 117 q 51 450 51 296 q 138 694 51 604 q 364 785 224 785 z "},"ö":{"ha":740,"x_min":51,"x_max":672,"o":"m 369 186 q 529 429 529 186 q 484 647 529 574 q 356 719 439 719 q 193 463 193 719 q 193 450 193 457 q 369 186 201 186 m 364 785 q 434 785 364 785 q 588 695 504 785 q 672 451 672 606 q 586 207 672 297 q 359 117 500 117 q 135 206 218 117 q 51 450 51 296 q 138 694 51 604 q 364 785 224 785 m 464 990 q 478 990 464 990 q 512 969 492 990 q 532 920 532 949 q 512 871 532 892 q 465 850 492 850 q 417 871 438 850 q 397 920 397 892 q 417 969 397 949 q 464 990 436 990 m 261 990 q 275 990 261 990 q 309 969 289 990 q 329 920 329 949 q 309 871 329 892 q 262 850 289 850 q 215 871 235 850 q 194 920 194 892 q 214 969 194 949 q 261 990 233 990 z "},"÷":{"ha":871,"x_min":89,"x_max":778,"o":"m 778 458 l 139 458 l 89 557 l 89 565 l 728 565 l 778 467 l 778 458 m 526 253 q 526 234 526 253 q 500 190 526 215 q 437 165 474 165 q 375 190 400 165 q 350 253 350 215 q 375 316 350 290 q 437 342 400 342 q 500 316 474 342 q 526 253 526 290 m 526 769 q 526 751 526 769 q 500 708 526 733 q 437 683 474 683 q 375 708 400 683 q 350 769 350 733 q 375 832 350 806 q 437 858 400 858 q 500 832 474 858 q 526 769 526 806 z "},"ø":{"ha":740,"x_min":51,"x_max":689,"o":"m 242 189 q 375 119 288 119 q 544 368 544 119 q 524 522 544 454 l 242 189 m 496 581 q 365 653 451 653 q 235 584 278 653 q 193 399 193 515 q 215 246 193 308 l 496 581 m 607 621 q 689 381 689 531 q 599 140 689 231 q 369 50 508 50 q 175 108 256 50 l 126 51 l 51 51 l 132 147 q 51 387 51 236 q 141 628 51 538 q 369 718 231 718 q 564 660 482 718 l 613 718 l 689 718 l 607 621 z "},"ù":{"ha":789,"x_min":22,"x_max":735,"o":"m 421 853 l 383 831 l 168 1019 l 168 1040 q 217 1073 186 1057 q 274 1090 249 1089 l 421 853 m 646 650 l 646 229 q 733 224 701 224 q 735 197 735 210 q 735 176 735 185 q 528 126 642 135 q 514 261 517 188 q 299 117 433 117 q 158 173 214 117 q 103 332 103 229 l 103 679 q 66 681 86 681 q 22 679 46 681 q 29 728 22 704 q 236 779 138 771 l 236 346 q 267 247 236 282 q 349 213 297 213 q 513 350 450 213 l 513 626 q 465 725 513 700 q 475 754 467 742 q 617 781 538 781 q 651 779 633 781 q 646 650 646 729 z "},"ú":{"ha":796,"x_min":22,"x_max":735,"o":"m 618 1013 l 403 821 l 367 843 l 513 1082 q 569 1065 539 1081 q 618 1031 600 1049 l 618 1013 m 646 650 l 646 229 q 733 224 701 224 q 735 197 735 210 q 735 176 735 185 q 528 126 642 135 q 514 261 517 188 q 299 117 433 117 q 158 173 214 117 q 103 332 103 229 l 103 679 q 66 681 86 681 q 22 679 46 681 q 29 728 22 704 q 236 779 138 771 l 236 346 q 267 247 236 282 q 349 213 297 213 q 513 350 450 213 l 513 626 q 465 725 513 700 q 475 754 467 742 q 617 781 538 781 q 651 779 633 781 q 646 650 646 729 z "},"û":{"ha":796,"x_min":22,"x_max":735,"o":"m 389 932 l 215 826 l 183 857 l 360 1032 l 419 1032 l 596 857 l 565 826 l 389 932 m 646 650 l 646 229 q 733 224 701 224 q 735 197 735 210 q 735 176 735 185 q 528 126 642 135 q 514 261 517 188 q 299 117 433 117 q 158 173 214 117 q 103 332 103 229 l 103 679 q 66 681 86 681 q 22 679 46 681 q 29 728 22 704 q 236 779 138 771 l 236 346 q 267 247 236 282 q 349 213 297 213 q 513 350 450 213 l 513 626 q 465 725 513 700 q 475 754 467 742 q 617 781 538 781 q 651 779 633 781 q 646 650 646 729 z "},"ü":{"ha":796,"x_min":22,"x_max":735,"o":"m 553 920 q 553 906 553 920 q 533 871 553 892 q 485 850 513 850 q 438 871 458 850 q 418 920 418 892 q 438 969 418 949 q 485 990 457 990 q 533 969 513 990 q 553 920 553 949 m 350 920 q 350 906 350 920 q 330 871 350 892 q 283 850 310 850 q 235 871 256 850 q 215 920 215 892 q 235 969 215 949 q 282 990 254 990 q 330 969 310 990 q 350 920 350 949 m 646 650 l 646 229 q 733 224 701 224 q 735 197 735 210 q 735 176 735 185 q 528 126 642 135 q 514 261 517 188 q 299 117 433 117 q 158 173 214 117 q 103 332 103 229 l 103 679 q 66 681 86 681 q 22 679 46 681 q 29 728 22 704 q 236 779 138 771 l 236 346 q 267 247 236 282 q 349 213 297 213 q 513 350 450 213 l 513 626 q 465 725 513 700 q 475 754 467 742 q 617 781 538 781 q 651 779 633 781 q 646 650 646 729 z "},"ý":{"ha":717,"x_min":-3,"x_max":722,"o":"m 624 1011 l 408 819 l 372 842 l 518 1081 q 575 1063 544 1079 q 624 1029 606 1047 l 624 1011 m 157 -185 l 135 -185 q 119 -109 119 -140 q 122 -60 119 -78 l 156 -60 q 238 -40 208 -60 q 293 36 267 -19 l 322 99 l 103 638 q 67 694 86 678 q 1 715 47 710 q -3 750 -3 739 q -1 767 -3 761 l 313 767 q 318 715 318 749 q 226 700 258 713 l 385 233 q 406 299 393 267 l 536 628 q 546 665 546 650 q 539 690 546 681 q 463 715 522 710 q 457 747 457 735 q 458 767 457 760 l 721 767 q 711 715 722 743 q 650 703 679 713 l 343 -6 q 262 -141 306 -97 q 157 -185 218 -185 z "},"þ":{"ha":761,"x_min":39,"x_max":708,"o":"m 269 261 q 326 165 286 199 q 420 131 365 131 q 519 188 475 131 q 563 383 563 246 q 519 578 563 521 q 420 636 475 636 q 326 602 365 636 q 269 506 286 568 l 269 261 m 269 606 q 438 718 324 718 q 631 633 553 718 q 708 383 708 547 q 631 134 708 219 q 438 49 553 49 q 269 161 324 49 l 269 -174 q 379 -199 318 -196 q 375 -251 379 -228 l 40 -251 q 39 -230 39 -244 q 46 -199 39 -215 q 115 -178 94 -193 q 135 -126 135 -164 l 135 960 q 97 961 121 961 q 39 960 72 961 q 47 1010 42 990 q 269 1061 151 1051 l 269 606 z "},"ÿ":{"ha":717,"x_min":-3,"x_max":722,"o":"m 563 920 q 563 906 563 920 q 542 871 563 892 q 495 850 522 850 q 448 871 468 850 q 428 920 428 892 q 447 969 428 949 q 494 990 467 990 q 542 969 522 990 q 563 920 563 949 m 360 920 q 360 906 360 920 q 340 871 360 892 q 292 850 319 850 q 245 871 265 850 q 225 920 225 892 q 244 969 225 949 q 292 990 264 990 q 340 969 319 990 q 360 920 360 949 m 157 -185 l 135 -185 q 119 -109 119 -140 q 122 -60 119 -78 l 156 -60 q 238 -40 208 -60 q 293 36 267 -19 l 322 99 l 103 638 q 67 694 86 678 q 1 715 47 710 q -3 750 -3 739 q -1 767 -3 761 l 313 767 q 318 715 318 749 q 226 700 258 713 l 385 233 q 406 299 393 267 l 536 628 q 546 665 546 650 q 539 690 546 681 q 463 715 522 710 q 457 747 457 735 q 458 767 457 760 l 721 767 q 711 715 722 743 q 650 703 679 713 l 343 -6 q 262 -141 306 -97 q 157 -185 218 -185 z "},"ı":{"ha":410,"x_min":39,"x_max":358,"o":"m 358 119 q 358 103 358 115 q 354 67 358 92 l 40 67 q 39 89 39 75 q 44 119 39 103 q 114 140 93 125 q 135 190 135 154 l 135 607 q 86 610 111 610 q 39 608 61 610 q 47 658 42 638 q 269 711 151 697 l 269 138 q 358 119 308 122 z "},"Ł":{"ha":722,"x_min":17,"x_max":692,"o":"m 279 193 l 519 193 q 607 227 585 193 q 636 342 629 261 q 685 339 663 342 q 692 215 692 265 q 690 133 692 165 l 51 133 q 50 154 50 140 q 57 185 50 168 q 124 206 104 192 q 144 256 144 219 l 144 449 l 40 414 q 17 475 24 435 l 144 519 l 144 928 q 49 947 106 944 q 49 963 49 951 q 53 997 49 975 l 371 997 q 372 976 372 990 q 365 947 372 963 q 299 927 319 942 q 279 876 279 913 l 279 565 l 410 610 q 433 547 425 589 l 279 494 l 279 193 z "},"ł":{"ha":474,"x_min":28,"x_max":444,"o":"m 383 186 q 383 170 383 182 q 379 133 383 158 l 65 133 q 64 156 64 142 q 69 186 64 169 q 139 206 118 192 q 160 257 160 221 l 160 514 l 50 476 q 28 540 32 500 l 160 586 l 160 1026 q 122 1028 146 1028 q 64 1026 97 1028 q 72 1076 67 1057 q 294 1128 176 1118 l 294 632 l 421 675 q 444 610 438 650 l 294 558 l 294 204 q 383 186 333 189 z "},"Œ":{"ha":1254,"x_min":75,"x_max":1181,"o":"m 469 879 q 286 772 347 879 q 232 536 232 678 q 233 496 232 517 q 485 118 250 118 q 636 168 572 118 l 636 832 q 469 879 558 879 m 771 126 l 996 126 q 1086 162 1064 126 q 1117 282 1108 197 q 1143 283 1128 283 q 1175 279 1158 283 q 1181 155 1181 208 q 1179 67 1181 101 l 667 67 q 468 47 544 47 q 183 172 290 47 q 75 496 75 296 q 188 823 75 696 q 479 950 300 950 q 664 931 554 950 l 1161 931 q 1163 847 1163 900 q 1154 725 1163 793 q 1100 722 1144 722 q 1071 839 1093 804 q 982 874 1049 874 l 771 874 l 771 535 l 963 547 l 1010 547 l 1010 464 l 963 464 l 771 472 l 771 126 z "},"œ":{"ha":1164,"x_min":51,"x_max":1096,"o":"m 924 608 q 908 628 924 608 q 839 649 892 649 q 741 604 786 649 q 682 471 696 560 l 828 481 l 958 482 q 924 608 957 568 m 369 119 q 529 363 529 119 q 484 580 529 507 q 356 653 439 653 q 193 396 193 653 q 193 383 193 390 q 369 119 201 119 m 676 417 l 676 393 q 728 203 676 267 q 872 139 779 139 q 1067 203 965 139 l 1086 165 q 831 49 979 49 q 701 81 764 49 q 601 178 639 114 q 361 50 525 50 q 135 140 218 50 q 51 383 51 229 q 138 628 51 538 q 363 718 224 718 q 608 581 532 718 q 718 683 651 649 q 853 718 785 718 q 1026 651 957 718 q 1096 450 1096 583 q 1078 417 1092 433 l 676 417 z "},"Š":{"ha":726,"x_min":82,"x_max":628,"o":"m 628 367 q 543 187 628 254 q 338 119 458 119 q 83 172 218 119 q 82 248 82 194 q 94 400 82 301 q 147 394 121 400 q 197 235 146 282 q 330 188 247 188 q 458 226 413 188 q 504 325 504 264 q 462 431 504 386 q 359 504 419 475 q 238 566 299 533 q 135 655 178 599 q 93 789 93 711 q 170 953 93 893 q 360 1014 247 1014 q 594 971 472 1014 q 578 785 592 867 q 535 788 547 785 q 361 946 508 946 q 252 913 293 946 q 211 822 211 879 q 254 722 211 764 q 358 652 297 681 q 481 591 419 624 q 585 502 542 558 q 628 367 628 446 m 594 1243 l 440 1061 l 339 1061 l 182 1243 l 214 1272 l 388 1139 l 564 1272 l 594 1243 z "},"š":{"ha":581,"x_min":69,"x_max":531,"o":"m 269 182 q 364 209 328 182 q 400 275 400 236 q 368 342 400 314 q 290 392 336 371 q 198 439 244 414 q 119 505 151 464 q 88 600 88 546 q 153 738 88 692 q 309 785 218 785 q 486 757 400 785 q 488 694 488 735 q 479 592 488 653 q 436 597 458 592 q 438 622 438 611 q 322 724 438 724 q 242 698 274 724 q 211 632 211 672 q 244 563 211 592 q 324 514 276 535 q 418 469 371 493 q 498 405 465 446 q 531 310 531 364 q 456 169 531 222 q 273 115 382 115 q 72 144 164 115 q 69 219 69 175 q 78 321 69 263 q 122 318 94 321 q 122 303 122 310 q 269 182 122 182 m 529 1013 l 375 831 l 274 831 l 117 1013 l 149 1042 l 322 908 l 499 1042 l 529 1013 z "},"Ÿ":{"ha":829,"x_min":-1,"x_max":829,"o":"m 603 1151 q 603 1136 603 1151 q 583 1101 603 1122 q 535 1081 563 1081 q 488 1101 508 1081 q 468 1151 468 1122 q 488 1200 468 1179 q 535 1221 507 1221 q 583 1200 563 1221 q 603 1151 603 1179 m 400 1151 q 400 1136 400 1151 q 380 1101 400 1122 q 333 1081 360 1081 q 285 1101 306 1081 q 265 1151 265 1122 q 285 1200 265 1179 q 332 1221 304 1221 q 380 1200 360 1221 q 400 1151 400 1179 m 335 947 q 253 904 253 940 q 265 867 253 888 l 442 546 l 446 546 q 485 631 458 588 l 671 932 q 589 947 628 946 q 594 997 589 967 l 829 997 q 824 947 829 971 q 763 926 783 942 q 719 874 743 911 l 485 494 l 485 201 q 585 185 526 188 q 581 133 585 158 l 243 133 q 243 152 243 139 q 247 185 243 165 q 317 206 296 192 q 339 256 339 219 l 339 483 l 78 933 q 4 947 43 944 q -1 997 -1 983 l 326 997 q 335 947 335 972 z "},"Ž":{"ha":760,"x_min":68,"x_max":688,"o":"m 475 1061 l 374 1061 l 217 1243 l 249 1272 l 422 1139 l 599 1272 l 629 1243 l 475 1061 m 525 204 q 613 231 586 204 q 653 331 640 258 q 688 322 672 331 q 675 133 688 215 l 81 133 q 68 196 68 158 l 528 928 l 250 928 q 163 900 190 928 q 122 800 135 872 q 86 808 106 800 q 100 997 86 910 l 676 997 q 685 956 685 972 q 685 935 685 939 l 226 204 l 525 204 z "},"ž":{"ha":638,"x_min":56,"x_max":575,"o":"m 388 831 l 286 831 l 129 1013 l 161 1042 l 335 908 l 511 1042 l 542 1013 l 388 831 m 401 194 q 494 223 465 194 q 536 326 522 251 q 571 318 554 326 q 571 271 571 311 q 557 133 571 231 l 60 133 q 56 169 56 150 q 60 208 56 189 l 421 707 l 243 707 q 152 678 181 707 q 110 575 124 650 q 74 583 89 575 q 88 767 74 675 l 568 767 q 575 728 575 747 q 568 692 575 708 l 213 194 l 401 194 z "},"ƒ":{"ha":589,"x_min":-85,"x_max":557,"o":"m 458 718 q 557 699 506 718 q 535 632 554 661 q 456 653 489 653 q 322 500 349 653 l 299 357 q 481 368 394 360 q 456 290 472 319 l 288 290 l 233 -31 q 152 -206 214 -144 q 8 -268 90 -268 q -85 -249 -39 -268 q -62 -185 -82 -214 q 13 -203 -12 -203 q 88 -106 71 -203 l 154 286 q 68 292 117 292 q 78 332 72 313 q 165 357 118 347 l 181 443 q 282 648 203 578 q 458 718 361 718 z "},"ˆ":{"ha":440,"x_min":14,"x_max":426,"o":"m 426 790 l 396 760 l 219 865 l 46 760 l 14 790 l 190 965 l 250 965 l 426 790 z "},"ˇ":{"ha":440,"x_min":14,"x_max":426,"o":"m 426 946 l 272 764 l 171 764 l 14 946 l 46 975 l 219 842 l 396 975 l 426 946 z "},"˘":{"ha":376,"x_min":14,"x_max":363,"o":"m 317 985 l 358 985 q 363 944 363 967 q 317 831 363 875 q 189 786 271 786 q 60 831 107 786 q 14 943 14 875 q 18 985 14 972 l 58 985 q 188 885 58 885 q 317 985 317 885 z "},"˙":{"ha":192,"x_min":14,"x_max":178,"o":"m 178 959 q 178 942 178 959 q 153 901 178 925 q 95 876 129 876 q 38 901 61 876 q 14 959 14 925 q 38 1017 14 993 q 95 1042 61 1042 q 153 1017 129 1042 q 178 959 178 993 z "},"˚":{"ha":258,"x_min":-1,"x_max":260,"o":"m 129 963 q 156 963 129 963 q 222 935 183 963 q 260 862 260 907 q 222 789 260 817 q 129 761 183 761 q 37 789 75 761 q -1 862 -1 817 q 37 935 -1 907 q 129 963 75 963 m 76 863 q 129 801 76 801 q 182 862 182 801 q 129 922 182 922 q 92 907 107 922 q 76 863 76 892 z "},"˛":{"ha":299,"x_min":14,"x_max":285,"o":"m 136 -49 q 154 -97 136 -81 q 198 -114 172 -114 q 274 -97 224 -114 l 285 -122 q 149 -197 228 -197 q 53 -165 93 -197 q 14 -78 14 -133 q 59 28 14 -22 q 194 108 104 78 l 235 83 q 136 -49 136 36 z "},"˜":{"ha":431,"x_min":28,"x_max":413,"o":"m 150 960 q 232 925 183 960 q 306 890 281 890 q 369 953 356 890 l 413 953 q 290 794 396 794 q 208 829 257 794 q 136 864 160 864 q 72 800 85 864 l 28 800 q 150 960 47 960 z "},"˝":{"ha":431,"x_min":14,"x_max":417,"o":"m 14 788 l 119 1021 q 221 990 178 1015 l 221 972 l 61 774 l 14 788 m 183 789 l 318 1017 q 417 983 372 1011 l 417 965 l 229 774 l 183 789 z "},"ँ":{"ha":0,"x_min":-478,"x_max":69,"o":"m -304 1342 l -212 1433 l -118 1342 l -211 1249 l -304 1342 m -221 1131 q -18 1294 -106 1131 l 69 1225 q -175 1036 -33 1036 q -478 1246 -337 1036 l -425 1285 q -221 1131 -321 1131 z "},"ं":{"ha":0,"x_min":-274,"x_max":-87,"o":"m -274 1172 l -182 1265 l -87 1172 l -181 1081 l -274 1172 z "},"ः":{"ha":433,"x_min":164,"x_max":339,"o":"m 164 563 l 250 651 l 339 563 l 251 476 l 164 563 m 164 192 l 250 281 l 339 192 l 251 106 l 164 192 z "},"अ":{"ha":1072,"x_min":47,"x_max":1163,"o":"m 425 110 q 289 148 353 110 q 178 250 225 186 q 47 490 96 365 l 108 525 q 296 247 206 307 q 383 221 338 221 q 508 265 463 221 q 554 382 554 310 q 490 510 554 454 q 360 444 442 476 l 293 554 q 521 744 521 632 q 492 811 521 785 q 425 838 464 838 q 257 749 340 838 l 169 836 q 386 950 267 950 q 545 865 474 950 q 617 692 617 781 q 553 564 617 624 q 682 522 604 522 q 769 542 725 522 q 828 590 813 563 l 828 836 l 713 836 q 671 899 696 864 q 644 938 646 935 l 1094 938 l 1163 836 l 951 836 l 951 0 l 828 72 l 836 440 q 744 414 796 414 q 621 447 693 414 q 654 331 654 393 q 593 174 654 238 q 425 110 532 110 z "},"आ":{"ha":1396,"x_min":4,"x_max":1454,"o":"m 1249 836 l 1249 0 l 1126 82 l 1126 836 l 908 836 l 908 0 l 785 72 l 793 440 q 701 414 753 414 q 578 447 650 414 q 611 331 611 393 q 550 174 611 238 q 382 110 489 110 q 246 148 310 110 q 136 250 182 186 q 4 490 53 365 l 65 525 q 253 247 163 307 q 340 221 294 221 q 465 265 419 221 q 511 382 511 310 q 447 510 511 454 q 317 444 399 476 l 250 554 q 478 744 478 632 q 449 811 478 785 q 382 838 421 838 q 214 749 297 838 l 126 836 q 343 950 224 950 q 502 865 431 950 q 574 692 574 781 q 510 564 574 624 q 639 522 561 522 q 726 542 682 522 q 785 590 769 563 l 785 836 l 669 836 q 628 899 653 864 q 601 938 603 935 l 1397 938 l 1454 836 l 1249 836 z "},"इ":{"ha":757,"x_min":-72,"x_max":839,"o":"m 475 446 q 613 375 550 446 q 676 225 676 304 q 589 84 676 146 q 399 13 501 22 l 582 -181 l 503 -235 l 304 15 q 163 85 228 33 q 99 185 99 136 q 122 228 99 210 q 176 247 146 247 q 319 115 221 247 q 333 115 326 115 q 501 160 413 115 q 589 275 589 204 q 570 322 589 303 q 527 342 551 342 q 433 316 503 342 q 317 290 364 290 q 172 374 247 290 q 97 537 97 458 q 149 658 97 615 q 276 700 200 700 l 488 700 l 488 836 l -3 836 l -72 938 l 771 938 l 839 836 l 608 836 l 608 586 l 308 586 q 224 558 258 586 q 190 488 190 531 q 211 420 190 444 q 267 396 232 396 q 374 421 303 396 q 475 446 444 446 z "},"ई":{"ha":756,"x_min":-82,"x_max":829,"o":"m 649 1224 q 551 1188 590 1224 q 511 1077 511 1153 q 582 938 511 1001 l 761 938 l 829 836 l 599 836 l 599 586 l 299 586 q 215 558 249 586 q 181 488 181 531 q 201 420 181 444 q 258 396 222 396 q 363 421 293 396 q 465 446 433 446 q 603 375 540 446 q 667 225 667 304 q 579 84 667 146 q 389 13 492 22 l 572 -181 l 493 -235 l 294 15 q 153 85 218 33 q 89 185 89 136 q 113 228 89 210 q 167 247 136 247 q 310 115 211 247 q 324 115 317 115 q 491 160 403 115 q 579 275 579 204 q 560 322 579 303 q 518 342 542 342 q 424 316 494 342 q 307 290 353 290 q 163 374 238 290 q 88 537 88 458 q 139 658 88 615 q 267 700 190 700 l 478 700 l 478 836 l -12 836 l -82 938 l 496 938 q 414 1135 414 1026 q 466 1264 414 1217 q 592 1311 518 1311 q 736 1268 667 1311 l 707 1214 q 649 1224 679 1224 z "},"उ":{"ha":740,"x_min":-97,"x_max":839,"o":"m 300 236 q 410 208 347 208 q 517 252 472 208 q 561 372 561 296 q 499 507 561 449 q 325 451 431 469 l 260 563 q 521 731 521 603 q 503 792 521 763 q 457 836 485 822 l -28 836 l -97 938 l 771 938 l 839 836 l 560 836 q 619 688 619 768 q 558 551 619 608 q 663 317 663 450 q 601 159 663 224 q 435 94 540 94 q 324 121 378 94 q 229 187 269 147 q 151 281 189 226 q 44 482 90 368 l 108 519 q 300 236 201 296 z "},"ऊ":{"ha":1013,"x_min":-86,"x_max":1088,"o":"m 532 549 l 553 528 q 742 622 656 622 q 907 533 828 622 q 986 358 986 444 q 928 213 986 271 q 786 122 869 156 l 711 221 q 844 294 799 247 q 889 394 889 342 q 859 481 889 447 q 786 514 829 514 q 613 410 697 514 q 635 317 635 368 q 572 160 635 225 q 403 94 510 94 q 292 123 346 94 q 199 192 238 151 q 122 289 160 232 q 21 485 64 378 l 82 519 q 361 208 206 208 q 486 252 439 208 q 533 371 533 296 q 472 506 533 446 q 314 453 407 469 l 249 563 q 493 731 493 601 q 475 792 493 763 q 428 836 457 822 l -17 836 l -86 938 l 1017 938 l 1088 836 l 535 836 q 593 687 593 767 q 532 549 593 607 z "},"ऋ":{"ha":1276,"x_min":-74,"x_max":1351,"o":"m 732 836 l 732 528 q 800 518 756 518 q 911 551 844 518 q 885 633 885 601 q 910 688 885 664 q 974 711 936 711 q 1051 664 1013 711 q 1090 573 1090 617 q 1035 490 1090 529 l 1131 346 l 983 218 q 940 147 940 178 q 967 92 940 115 q 1031 69 993 69 q 1204 194 1129 69 l 1274 128 q 1207 31 1257 76 q 1084 -15 1157 -15 q 922 47 1011 -15 q 832 188 832 110 q 879 278 832 240 l 1013 386 l 971 454 q 853 432 918 432 q 732 456 788 432 l 732 0 l 611 75 l 611 396 l 274 114 l 183 188 l 556 486 q 364 611 464 611 q 160 531 264 611 l 78 628 q 297 710 183 710 q 448 668 374 710 q 611 517 522 626 l 611 836 l -4 836 l -74 938 l 1282 938 l 1351 836 l 732 836 z "},"ऌ":{"ha":1063,"x_min":-87,"x_max":1160,"o":"m 735 560 q 626 510 660 560 q 592 390 592 461 q 614 243 592 319 l 506 279 q 474 415 474 350 q 490 522 474 479 q 382 560 446 560 q 276 514 318 560 q 233 383 233 468 q 297 213 233 297 q 461 44 360 129 l 399 0 q 118 440 118 243 q 183 603 118 538 q 348 668 247 668 q 524 588 449 668 q 681 665 581 665 q 818 622 751 665 l 818 836 l -18 836 l -87 938 l 1090 938 l 1160 836 l 942 836 l 942 111 q 729 -42 729 40 q 759 -101 729 -81 q 828 -121 789 -121 q 1015 -39 922 -121 l 1093 -111 q 992 -183 1057 -151 q 869 -215 928 -215 q 706 -144 783 -215 q 628 10 628 -74 q 681 106 628 63 q 769 163 728 142 q 818 189 810 183 l 818 546 q 735 560 781 560 z "},"ऍ":{"ha":793,"x_min":-85,"x_max":885,"o":"m 679 836 l 679 557 q 649 422 679 475 q 551 325 618 368 l 461 415 q 535 480 513 447 q 557 567 557 513 l 557 836 l 256 836 l 256 439 q 267 366 256 386 q 329 308 279 346 l 606 101 q 682 -25 682 44 q 628 -151 682 -94 l 528 -74 q 569 2 569 -32 q 471 113 569 36 q 167 343 439 136 q 140 378 146 360 q 133 429 133 396 l 133 836 l -21 836 l -85 938 l 822 938 l 885 836 l 679 836 m 168 1285 q 375 1131 264 1131 q 574 1294 486 1131 l 663 1225 q 415 1036 560 1036 q 114 1246 242 1036 l 168 1285 z "},"ऎ":{"ha":793,"x_min":-85,"x_max":885,"o":"m 679 836 l 679 557 q 649 422 679 475 q 551 325 618 368 l 461 415 q 535 480 513 447 q 557 567 557 513 l 557 836 l 256 836 l 256 439 q 267 366 256 386 q 329 308 279 346 l 606 101 q 682 -25 682 44 q 628 -151 682 -94 l 528 -74 q 569 2 569 -32 q 471 113 569 36 q 167 343 439 136 q 140 378 146 360 q 133 429 133 396 l 133 836 l -21 836 l -85 938 l 578 938 q 512 1022 554 992 q 388 1053 469 1053 l 325 1053 q 135 1117 194 1053 q 88 1177 104 1149 q 53 1254 72 1206 l 108 1294 q 120 1269 111 1289 q 132 1244 129 1249 q 144 1224 135 1240 q 159 1205 153 1208 q 176 1191 165 1201 q 200 1178 188 1181 q 231 1169 213 1175 q 315 1161 256 1161 l 374 1161 q 581 1085 514 1161 q 660 938 636 1021 l 822 938 l 885 836 l 679 836 z "},"ए":{"ha":788,"x_min":-92,"x_max":878,"o":"m 672 836 l 672 557 q 642 422 672 475 q 544 325 611 368 l 454 415 q 528 480 507 447 q 550 567 550 513 l 550 836 l 250 836 l 250 439 q 262 365 250 385 q 322 308 274 346 l 599 101 q 675 -24 675 46 q 621 -151 675 -94 l 521 -74 q 563 2 563 -32 q 464 113 563 36 q 160 343 432 136 q 133 378 139 360 q 126 429 126 396 l 126 836 l -28 836 l -92 938 l 815 938 l 878 836 l 672 836 z "},"ऐ":{"ha":793,"x_min":-85,"x_max":885,"o":"m 197 1238 q 309 1274 254 1274 q 412 1251 364 1274 q 492 1197 460 1228 q 560 1115 525 1167 q 658 938 603 1051 l 822 938 l 885 836 l 679 836 l 679 557 q 649 422 679 475 q 551 325 618 368 l 461 415 q 535 480 513 447 q 557 567 557 513 l 557 836 l 256 836 l 256 439 q 267 366 256 386 q 329 308 279 346 l 606 101 q 682 -25 682 44 q 628 -151 682 -94 l 528 -74 q 569 2 569 -32 q 471 113 569 36 q 167 343 439 136 q 140 378 146 360 q 133 429 133 396 l 133 836 l -21 836 l -85 938 l 576 938 q 350 1158 463 1158 q 268 1132 317 1158 l 197 1238 z "},"ऑ":{"ha":1429,"x_min":60,"x_max":1522,"o":"m 1293 836 l 1293 0 l 1169 82 l 1169 836 l 964 836 l 964 0 l 842 72 l 849 440 q 757 414 808 414 q 633 447 706 414 q 667 331 667 393 q 606 174 667 238 q 438 110 544 110 q 301 148 365 110 q 192 250 238 186 q 60 490 108 365 l 122 525 q 308 247 217 307 q 397 221 351 221 q 522 265 476 221 q 567 382 567 308 q 504 510 567 456 q 372 444 453 476 l 306 554 q 535 744 535 632 q 506 811 535 785 q 438 838 476 838 q 269 749 354 838 l 182 836 q 399 950 279 950 q 558 865 486 950 q 629 692 629 781 q 565 564 629 624 q 694 522 619 522 q 781 542 738 522 q 842 590 825 563 l 842 836 l 726 836 q 690 890 719 847 q 657 938 660 933 l 1464 938 l 1522 836 l 1293 836 m 926 1285 q 1132 1131 1019 1131 q 1332 1294 1244 1131 l 1421 1225 q 1172 1036 1318 1036 q 872 1246 1000 1036 l 926 1285 z "},"ऒ":{"ha":1429,"x_min":60,"x_max":1525,"o":"m 1296 836 l 1296 0 l 1172 82 l 1172 836 l 964 836 l 964 0 l 842 72 l 849 440 q 757 414 808 414 q 633 447 706 414 q 667 331 667 393 q 606 174 667 238 q 438 110 544 110 q 301 148 365 110 q 192 250 238 186 q 60 490 108 365 l 122 525 q 308 247 217 307 q 397 221 351 221 q 522 265 476 221 q 567 382 567 308 q 504 510 567 456 q 372 444 453 476 l 306 554 q 535 744 535 632 q 506 811 535 785 q 438 838 476 838 q 269 749 354 838 l 182 836 q 399 950 279 950 q 558 865 486 950 q 629 692 629 781 q 565 564 629 624 q 694 522 619 522 q 781 542 738 522 q 842 590 825 563 l 842 836 l 726 836 q 690 890 719 847 q 657 938 660 933 l 1188 938 q 1122 1022 1164 992 q 997 1053 1079 1053 l 935 1053 q 744 1117 804 1053 q 698 1177 714 1149 q 663 1254 682 1206 l 718 1294 q 730 1269 721 1289 q 742 1244 739 1249 q 753 1224 744 1240 q 769 1205 763 1208 q 786 1191 775 1201 q 810 1178 797 1181 q 839 1169 822 1175 q 925 1161 865 1161 l 983 1161 q 1189 1085 1124 1161 q 1269 938 1246 1021 l 1467 938 l 1525 836 l 1296 836 z "},"ओ":{"ha":1429,"x_min":60,"x_max":1525,"o":"m 810 1238 q 922 1274 867 1274 q 1024 1251 976 1274 q 1105 1197 1072 1228 q 1172 1115 1138 1167 q 1271 938 1215 1051 l 1467 938 l 1525 836 l 1296 836 l 1296 0 l 1172 82 l 1172 836 l 964 836 l 964 0 l 842 72 l 849 440 q 757 414 808 414 q 633 447 706 414 q 667 331 667 393 q 606 174 667 238 q 438 110 544 110 q 301 148 365 110 q 192 250 238 186 q 60 490 108 365 l 122 525 q 308 247 217 307 q 397 221 351 221 q 522 265 476 221 q 567 382 567 308 q 504 510 567 456 q 372 444 453 476 l 306 554 q 535 744 535 632 q 506 811 535 785 q 438 838 476 838 q 269 749 354 838 l 182 836 q 399 950 279 950 q 558 865 486 950 q 629 692 629 781 q 565 564 629 624 q 694 522 619 522 q 781 542 738 522 q 842 590 825 563 l 842 836 l 726 836 q 690 890 719 847 q 657 938 660 933 l 1189 938 q 963 1158 1075 1158 q 881 1132 929 1158 l 810 1238 z "},"औ":{"ha":1457,"x_min":60,"x_max":1553,"o":"m 908 1338 q 1004 1356 949 1356 q 1115 1311 1060 1356 q 1207 1194 1169 1267 q 1307 938 1274 1067 l 1494 938 l 1553 836 l 1324 836 l 1324 0 l 1200 82 l 1200 836 l 964 836 l 964 0 l 842 72 l 849 440 q 757 414 808 414 q 633 447 706 414 q 667 331 667 393 q 606 174 667 238 q 438 110 544 110 q 301 148 365 110 q 192 250 238 186 q 60 490 108 365 l 122 525 q 308 247 217 307 q 397 221 351 221 q 522 265 476 221 q 567 382 567 308 q 504 510 567 456 q 372 444 453 476 l 306 554 q 535 744 535 632 q 506 811 535 785 q 438 838 476 838 q 269 749 354 838 l 182 836 q 399 950 279 950 q 558 865 486 950 q 629 692 629 781 q 565 564 629 624 q 694 522 619 522 q 781 542 738 522 q 842 590 825 563 l 842 836 l 726 836 q 690 890 719 847 q 657 938 660 933 l 1185 938 q 978 1053 1094 1053 q 892 1031 935 1053 l 815 1126 q 941 1158 867 1158 q 1099 1100 1015 1158 q 1242 957 1183 1042 q 1206 1045 1232 988 q 1172 1117 1181 1103 q 1148 1156 1163 1132 q 1119 1193 1133 1181 q 1089 1219 1106 1206 q 1017 1247 1056 1247 q 957 1238 979 1247 l 908 1338 z "},"क":{"ha":1104,"x_min":-97,"x_max":1200,"o":"m 504 264 q 349 181 443 181 q 158 284 254 181 q 61 504 61 388 q 122 653 61 599 q 268 707 183 707 q 369 688 322 707 l 406 576 q 313 592 369 592 q 211 553 257 592 q 165 447 165 514 q 210 335 165 379 q 318 292 256 292 q 497 426 432 292 l 497 836 l -28 836 l -97 938 l 1132 938 l 1200 836 l 621 836 q 614 628 614 753 q 764 703 676 703 q 961 594 871 703 q 1051 372 1051 486 q 995 231 1051 285 q 849 178 939 178 q 746 194 790 178 l 713 308 q 817 290 763 290 q 912 324 872 290 q 951 422 951 357 q 912 538 951 488 q 803 588 872 588 q 621 449 693 588 l 621 0 l 497 76 l 504 264 z "},"ख":{"ha":1088,"x_min":-97,"x_max":1185,"o":"m 186 479 q 239 536 239 479 l 239 836 l -28 836 l -97 938 l 1115 938 l 1185 836 l 967 836 l 967 0 l 846 78 l 854 210 q 737 108 814 156 q 578 61 660 61 q 426 88 496 61 q 307 153 357 115 q 204 253 257 190 q 119 363 151 315 q 46 479 88 410 l 99 526 q 186 479 146 479 m 360 507 q 326 407 360 447 q 222 357 292 367 q 358 223 272 281 q 536 165 443 165 q 751 261 671 165 q 551 333 633 268 q 469 508 469 397 q 524 640 469 586 q 657 693 578 693 q 843 607 772 693 l 844 836 l 360 836 l 360 507 m 810 328 q 840 376 825 342 q 854 464 854 411 q 810 558 854 517 q 708 599 765 599 q 616 565 651 599 q 581 474 581 531 q 647 361 581 396 q 783 326 714 326 q 810 328 796 326 z "},"ग":{"ha":732,"x_min":-99,"x_max":832,"o":"m 611 836 l 611 0 l 489 83 l 489 836 l 275 836 l 275 406 q 266 340 275 360 q 233 321 257 321 q 124 386 186 321 q 63 500 63 451 q 156 546 63 546 l 156 836 l -28 836 l -99 938 l 760 938 l 832 836 l 611 836 z "},"घ":{"ha":854,"x_min":-97,"x_max":950,"o":"m 361 497 q 197 390 197 497 q 245 297 197 335 q 365 260 293 260 q 503 307 438 260 q 610 417 568 354 l 610 836 l 294 836 q 226 788 256 825 q 197 701 197 751 q 257 600 197 650 q 342 608 296 608 q 431 597 389 608 l 467 485 q 361 497 407 497 m 617 254 q 410 157 524 157 q 193 246 297 157 q 89 443 89 335 q 183 579 89 535 q 110 651 138 608 q 83 738 83 694 q 133 839 83 806 l 44 836 l -28 836 l -97 938 l 882 938 l 950 836 l 733 836 l 733 0 l 610 78 l 617 254 z "},"ङ":{"ha":843,"x_min":-97,"x_max":939,"o":"m 121 290 q 238 165 171 214 q 385 115 304 115 q 528 163 467 115 q 589 275 589 211 q 572 321 589 301 q 528 340 556 340 q 435 313 501 340 q 329 286 368 286 q 183 367 256 286 q 111 530 111 447 q 158 657 111 613 q 289 701 206 701 l 488 701 l 488 836 l -28 836 l -97 938 l 871 938 l 939 836 l 606 836 l 606 588 l 318 588 q 204 489 204 588 q 227 422 204 449 q 283 394 250 394 q 388 422 317 394 q 490 449 458 449 q 621 373 563 449 q 679 220 679 297 q 604 77 679 143 q 421 11 529 11 q 218 76 313 11 q 61 246 124 142 l 121 290 m 661 476 l 753 569 l 847 476 l 754 385 l 661 476 z "},"च":{"ha":943,"x_min":-92,"x_max":1033,"o":"m 479 168 q 283 257 381 168 q 185 450 185 346 q 206 519 185 485 q 258 568 228 553 l 68 564 l -1 668 l 536 668 l 606 565 l 469 565 q 342 510 392 553 q 293 407 293 467 q 335 311 293 347 q 433 275 376 275 q 700 463 588 275 l 700 836 l -28 836 l -92 938 l 971 938 l 1033 836 l 822 836 l 822 0 l 699 79 l 706 286 q 479 168 603 168 z "},"छ":{"ha":975,"x_min":-97,"x_max":1072,"o":"m 460 356 q 352 367 400 367 q 263 344 304 367 q 222 269 222 322 q 270 183 222 215 q 396 150 318 150 q 658 256 546 150 q 499 542 499 399 q 535 664 499 611 q 631 731 571 717 l 631 836 l -28 836 l -97 938 l 1003 938 l 1072 836 l 751 836 l 751 715 q 848 616 813 685 q 883 472 883 547 q 803 239 883 346 q 974 126 892 175 l 914 57 q 753 179 829 119 q 453 50 621 50 q 216 132 319 50 q 113 328 113 214 q 171 438 113 400 q 71 597 71 518 q 129 715 71 675 q 283 756 188 756 q 396 743 338 756 l 433 633 q 328 644 374 644 q 185 554 185 644 q 243 467 185 511 q 333 476 289 476 q 417 467 378 476 l 460 356 m 604 486 q 710 311 604 399 q 767 409 743 349 q 790 525 790 469 q 717 643 790 643 q 635 596 667 643 q 604 486 604 549 z "},"ज":{"ha":989,"x_min":-97,"x_max":1086,"o":"m 744 526 l 478 526 q 575 319 575 440 q 529 196 575 244 q 414 147 483 147 q 294 176 344 147 q 207 247 243 206 q 136 353 171 289 q 38 586 90 438 l 104 625 q 274 293 186 363 q 365 260 315 260 q 444 288 415 260 q 474 371 474 317 q 315 617 474 464 l 328 636 l 744 636 l 744 836 l -28 836 l -97 938 l 1017 938 l 1086 836 l 868 836 l 868 0 l 744 79 l 744 526 z "},"झ":{"ha":1042,"x_min":-97,"x_max":1138,"o":"m 806 394 q 713 361 764 361 q 610 375 663 361 q 651 264 651 322 q 567 119 651 179 q 382 46 482 58 l 571 -150 l 490 -204 l 288 49 q 147 120 211 68 q 83 221 83 172 q 107 265 83 246 q 161 283 131 283 q 306 149 203 283 q 317 149 311 149 q 483 192 403 149 q 564 307 564 235 q 545 353 564 335 q 499 371 526 371 q 405 344 471 371 q 303 318 339 318 q 159 399 233 318 q 85 560 85 481 q 133 678 85 639 q 263 718 182 718 l 463 718 l 463 836 l -28 836 l -97 938 l 1069 938 l 1138 836 l 921 836 l 921 0 l 799 79 l 806 394 m 799 836 l 583 836 l 583 610 l 294 610 q 211 585 246 610 q 176 517 176 560 q 198 449 176 474 q 254 424 219 424 q 356 450 289 424 q 449 476 422 476 q 538 463 475 476 q 653 450 601 450 q 799 526 742 450 l 799 836 z "},"ञ":{"ha":1046,"x_min":-97,"x_max":1143,"o":"m 374 297 q 506 344 457 297 q 556 474 556 390 q 521 567 556 529 q 436 604 486 604 q 292 533 349 604 l 204 628 q 375 715 288 715 q 638 500 536 715 q 692 486 664 486 q 804 551 757 486 l 804 836 l -28 836 l -97 938 l 1074 938 l 1143 836 l 926 836 l 926 0 l 803 92 l 811 413 q 733 383 769 383 q 653 413 697 383 q 584 250 651 310 q 422 190 517 190 q 193 296 301 190 q 19 500 103 383 l 74 549 q 285 321 203 364 q 374 297 329 297 z "},"ट":{"ha":717,"x_min":-94,"x_max":811,"o":"m 588 836 l 588 564 l 383 564 q 246 517 304 564 q 188 381 188 471 q 249 237 188 290 q 399 183 310 183 q 611 278 521 183 l 686 178 q 453 71 592 71 q 197 184 315 71 q 78 433 78 297 q 146 608 78 540 q 331 675 214 675 l 465 675 l 465 836 l -28 836 l -94 938 l 744 938 l 811 836 l 588 836 z "},"ठ":{"ha":807,"x_min":-94,"x_max":901,"o":"m 586 836 l 586 601 q 703 484 661 554 q 746 333 746 414 q 670 144 746 218 q 457 69 594 69 q 199 180 319 69 q 79 440 79 290 q 145 611 79 547 q 329 675 211 675 l 463 675 l 463 836 l -28 836 l -94 938 l 835 938 l 901 836 l 586 836 m 640 372 q 515 564 640 493 l 389 564 q 245 519 301 564 q 189 381 189 474 q 256 228 189 288 q 421 168 324 168 q 579 224 518 168 q 640 372 640 281 z "},"ड":{"ha":729,"x_min":-94,"x_max":825,"o":"m 117 290 q 233 165 167 214 q 381 115 300 115 q 524 163 463 115 q 585 275 585 211 q 568 321 585 301 q 525 340 551 340 q 432 313 499 340 q 326 286 365 286 q 181 367 253 286 q 108 530 108 447 q 154 654 108 613 q 285 696 200 696 l 483 696 l 483 836 l -25 836 l -94 938 l 757 938 l 825 836 l 601 836 l 601 588 l 315 588 q 200 489 200 588 q 224 419 200 449 q 281 390 247 390 q 386 418 314 390 q 489 446 458 446 q 617 374 561 446 q 674 224 674 301 q 599 82 674 147 q 417 17 525 17 q 213 80 308 17 q 57 246 118 143 l 117 290 z "},"ढ":{"ha":736,"x_min":-78,"x_max":832,"o":"m 590 836 l 590 571 l 390 571 q 238 525 296 571 q 179 386 179 479 q 244 231 179 293 q 400 167 310 169 q 346 301 346 231 q 389 417 346 371 q 501 464 432 464 q 633 405 571 464 q 694 265 694 346 q 622 126 694 183 q 454 68 549 68 q 194 178 313 68 q 75 449 75 289 q 140 614 75 547 q 322 681 204 681 l 468 681 l 468 836 l -8 836 l -78 938 l 764 938 l 832 836 l 590 836 m 469 336 q 455 319 469 336 q 440 256 440 303 q 469 175 440 208 q 566 223 525 186 q 607 310 607 260 q 590 353 607 338 q 536 369 574 369 q 469 336 499 369 z "},"ण":{"ha":1019,"x_min":-97,"x_max":1117,"o":"m 899 836 l 899 0 l 776 79 l 776 836 l 572 836 l 572 467 q 522 324 572 378 q 386 269 472 269 q 207 347 300 269 q 122 452 151 393 q 92 568 92 511 l 92 836 l -28 836 l -97 938 l 1047 938 l 1117 836 l 899 836 m 338 369 q 451 510 451 369 l 451 836 l 213 836 l 213 529 q 246 413 213 457 q 338 369 279 369 z "},"त":{"ha":779,"x_min":-97,"x_max":876,"o":"m 660 836 l 660 0 l 539 78 l 539 517 l 344 517 q 229 474 269 517 q 189 360 189 432 q 336 43 189 229 l 274 0 q 134 220 188 107 q 81 428 81 333 q 140 576 81 524 q 310 629 199 629 l 539 629 l 539 836 l -28 836 l -97 938 l 807 938 l 876 836 l 660 836 z "},"थ":{"ha":924,"x_min":132,"x_max":1019,"o":"m 488 599 q 459 575 488 599 q 376 517 431 550 q 314 480 321 485 q 301 472 307 475 q 294 467 296 468 q 287 462 292 465 q 281 456 282 458 q 261 431 263 439 q 260 417 260 422 q 306 341 260 371 q 415 311 353 311 q 555 363 478 311 q 679 479 632 415 l 679 836 l 586 836 l 518 938 l 951 938 l 1019 836 l 803 836 l 803 0 l 679 79 l 686 318 q 576 234 636 264 q 461 204 515 204 q 241 298 350 204 q 132 485 132 392 q 161 529 132 511 q 235 569 172 536 q 336 626 299 603 q 410 689 374 650 q 447 765 447 728 q 418 829 447 801 q 347 857 389 857 q 273 830 304 857 q 242 760 242 803 q 285 682 242 718 l 231 644 q 144 806 144 722 q 193 907 144 865 q 307 949 242 949 q 472 869 399 949 q 546 719 546 790 q 488 599 546 649 z "},"द":{"ha":750,"x_min":-90,"x_max":840,"o":"m 588 569 l 389 569 q 183 396 183 569 q 241 258 183 315 q 376 201 299 201 q 433 210 407 201 q 481 236 460 219 q 446 327 446 290 q 478 391 446 364 q 550 418 510 418 q 629 367 590 418 q 668 271 668 315 q 607 172 668 226 l 751 1 l 678 -50 l 551 133 q 422 97 483 97 q 197 199 303 97 q 108 317 142 250 q 75 451 75 383 q 141 616 75 551 q 329 681 207 681 l 464 681 l 464 836 l -28 836 l -90 938 l 778 938 l 840 836 l 588 836 l 588 569 z "},"ध":{"ha":840,"x_min":-97,"x_max":936,"o":"m 719 836 l 719 0 l 597 78 l 601 258 q 396 168 504 168 q 190 255 288 168 q 92 454 92 342 q 119 535 92 500 q 190 589 146 571 q 86 738 86 657 q 135 839 86 800 l 18 836 l -28 836 l -97 938 l 340 938 l 410 836 l 301 836 q 231 789 260 825 q 203 713 203 753 q 265 610 203 657 q 318 613 278 613 q 422 603 358 613 l 460 485 q 343 499 397 499 q 245 475 289 499 q 201 396 201 451 q 242 306 201 340 q 351 272 283 272 q 596 421 488 272 l 596 836 l 533 836 l 464 938 l 868 938 l 936 836 l 719 836 z "},"न":{"ha":750,"x_min":-97,"x_max":847,"o":"m 510 464 l 265 464 l 265 343 q 223 301 265 301 q 121 378 181 301 q 61 513 61 456 q 143 575 61 575 l 510 575 l 510 836 l -28 836 l -97 938 l 778 938 l 847 836 l 631 836 l 631 0 l 510 78 l 510 464 z "},"ऩ":{"ha":763,"x_min":-57,"x_max":879,"o":"m 542 464 l 296 464 l 296 343 q 253 301 296 301 q 151 378 211 301 q 92 513 92 454 q 175 575 92 575 l 542 575 l 542 836 l 13 836 l -57 938 l 810 938 l 879 836 l 661 836 l 661 0 l 542 78 l 542 464 m 339 56 l 240 -43 l 139 56 l 238 156 l 339 56 z "},"प":{"ha":751,"x_min":-97,"x_max":847,"o":"m 631 836 l 631 0 l 510 78 l 519 356 q 385 300 447 300 q 200 394 299 300 q 101 590 101 489 l 101 836 l -28 836 l -97 938 l 779 938 l 847 836 l 631 836 m 224 535 q 256 441 224 475 q 340 407 289 407 q 437 438 390 407 q 508 510 483 468 l 508 836 l 224 836 l 224 535 z "},"फ":{"ha":1111,"x_min":-96,"x_max":1208,"o":"m 372 311 q 191 410 288 311 q 94 610 94 510 l 94 836 l -28 836 l -96 938 l 1139 938 l 1208 836 l 611 836 l 608 603 q 765 661 672 661 q 955 559 858 661 q 1051 354 1051 457 q 992 195 1051 251 q 836 139 933 139 q 754 149 806 139 l 714 265 q 811 251 757 251 q 906 288 865 251 q 947 390 947 324 q 906 503 947 457 q 803 550 865 550 q 613 428 675 550 l 613 0 l 488 79 l 494 358 q 372 311 436 311 m 326 419 q 490 514 419 419 l 490 836 l 217 836 l 217 551 q 247 457 217 494 q 326 419 278 419 z "},"ब":{"ha":808,"x_min":-97,"x_max":906,"o":"m 689 836 l 689 0 l 564 93 l 571 304 q 476 228 535 263 q 361 193 418 193 q 156 284 251 193 q 60 483 60 375 q 133 660 60 592 q 294 728 206 728 q 506 624 411 728 l 465 568 q 336 628 406 628 q 246 601 288 628 l 472 356 q 567 464 524 401 l 564 836 l -28 836 l -97 938 l 836 938 l 906 836 l 689 836 m 158 447 q 158 414 158 447 q 206 334 158 382 q 311 286 253 286 q 421 319 369 286 l 197 561 q 158 447 158 511 z "},"भ":{"ha":792,"x_min":-96,"x_max":888,"o":"m 671 836 l 671 0 l 549 82 l 549 397 l 282 397 l 282 306 q 241 267 282 267 q 132 336 200 267 q 64 457 64 406 q 85 497 64 485 q 161 510 106 510 l 161 742 q 138 810 161 783 q 74 836 115 836 l -28 836 l -96 938 l 28 938 q 163 888 104 938 l 218 838 q 281 693 281 779 l 281 510 l 549 510 l 549 836 l 390 836 l 322 938 l 819 938 l 888 836 l 671 836 z "},"म":{"ha":818,"x_min":-93,"x_max":913,"o":"m 144 510 l 163 510 l 163 836 l -28 836 l -93 938 l 846 938 l 913 836 l 697 836 l 697 0 l 575 82 l 575 396 l 282 396 l 282 304 q 241 265 282 265 q 132 333 200 265 q 64 453 64 401 q 144 510 64 510 m 282 836 l 282 510 l 575 510 l 575 836 l 282 836 z "},"य":{"ha":839,"x_min":-97,"x_max":936,"o":"m 719 836 l 719 0 l 596 82 l 600 314 q 406 215 513 215 q 185 324 300 215 q 71 521 71 432 q 97 561 71 547 q 256 654 215 619 q 296 718 296 689 q 272 782 296 747 q 210 836 247 817 l -28 836 l -97 938 l 867 938 l 936 836 l 719 836 m 357 326 q 596 488 508 326 l 596 836 l 318 836 q 389 754 364 803 q 414 682 414 706 q 412 649 414 658 q 407 631 410 639 q 397 613 404 622 q 385 598 390 604 q 369 582 381 592 q 352 567 358 572 q 331 552 346 563 q 307 537 315 542 q 280 519 299 532 q 243 497 261 507 q 214 475 225 486 q 203 444 203 464 q 253 362 203 397 q 357 326 304 326 z "},"र":{"ha":550,"x_min":-97,"x_max":646,"o":"m 383 836 l 383 496 q 351 411 383 447 q 251 363 318 375 q 521 46 336 242 l 436 -3 q 67 478 176 313 l 128 533 q 214 482 182 482 q 263 538 263 482 l 263 836 l -28 836 l -97 938 l 578 938 l 646 836 l 383 836 z "},"ऱ":{"ha":550,"x_min":-97,"x_max":646,"o":"m 383 836 l 383 496 q 351 411 383 447 q 251 363 318 375 q 521 46 336 242 l 436 -3 q 67 478 176 313 l 128 533 q 214 482 182 482 q 263 538 263 482 l 263 836 l -28 836 l -97 938 l 578 938 l 646 836 l 383 836 m 61 19 l 153 113 l 247 19 l 154 -72 l 61 19 z "},"ल":{"ha":1022,"x_min":-97,"x_max":1119,"o":"m 465 279 q 435 415 435 346 q 450 522 435 483 q 342 560 406 560 q 236 514 279 560 q 193 383 193 468 q 256 214 193 297 q 422 44 319 131 l 360 0 q 78 440 78 242 q 142 603 78 538 q 308 668 207 668 q 483 588 408 668 q 640 665 542 665 q 779 622 710 665 l 779 836 l -28 836 l -97 938 l 1050 938 l 1119 836 l 901 836 l 901 0 l 779 82 l 779 546 q 696 560 740 560 q 585 510 619 560 q 551 390 551 461 q 574 243 551 319 l 465 279 z "},"ळ":{"ha":1043,"x_min":-97,"x_max":1140,"o":"m 528 253 q 358 143 458 143 q 169 243 258 143 q 81 446 81 343 q 153 626 81 549 q 330 703 225 703 q 550 589 435 703 q 693 701 610 688 l 693 836 l -28 836 l -97 938 l 1071 938 l 1140 836 l 814 836 l 814 675 q 940 559 886 639 q 994 403 994 479 q 924 220 994 296 q 756 144 853 144 q 528 253 638 144 m 515 524 q 365 596 439 596 q 240 539 292 596 q 189 407 189 482 q 226 290 189 332 q 317 249 263 249 q 406 295 371 249 q 475 422 442 342 q 515 524 497 486 m 561 317 q 714 247 642 247 q 838 305 786 247 q 889 437 889 363 q 851 553 889 511 q 763 596 814 596 q 667 539 706 596 q 605 417 636 492 q 561 317 574 342 z "},"ऴ":{"ha":1043,"x_min":-97,"x_max":1140,"o":"m 528 253 q 358 143 458 143 q 169 243 258 143 q 81 446 81 343 q 153 626 81 549 q 330 703 225 703 q 550 589 435 703 q 693 701 610 688 l 693 836 l -28 836 l -97 938 l 1071 938 l 1140 836 l 814 836 l 814 675 q 940 559 886 639 q 994 403 994 479 q 924 220 994 296 q 756 144 853 144 q 528 253 638 144 m 515 524 q 365 596 439 596 q 240 539 292 596 q 189 407 189 482 q 226 290 189 332 q 317 249 263 249 q 406 295 371 249 q 475 422 442 342 q 515 524 497 486 m 561 317 q 714 247 642 247 q 838 305 786 247 q 889 437 889 363 q 851 553 889 511 q 763 596 814 596 q 667 539 706 596 q 605 417 636 492 q 561 317 574 342 m 654 -51 l 746 42 l 840 -51 l 747 -143 l 654 -51 z "},"व":{"ha":803,"x_min":-97,"x_max":900,"o":"m 682 836 l 682 0 l 558 92 l 564 293 q 470 221 526 251 q 363 190 414 190 q 160 283 256 190 q 64 489 64 376 q 133 667 64 601 q 292 733 201 733 q 507 621 408 733 l 472 564 q 343 624 418 624 q 219 567 268 624 q 171 444 171 511 q 210 335 171 378 q 310 293 249 293 q 438 340 372 293 q 561 468 504 388 l 558 836 l -28 836 l -97 938 l 831 938 l 900 836 l 682 836 z "},"श":{"ha":997,"x_min":90,"x_max":1086,"o":"m 290 454 q 449 515 389 454 q 510 678 510 575 q 476 794 510 747 q 391 840 442 840 q 309 809 340 840 q 278 728 278 778 q 381 608 278 647 l 344 554 q 220 636 276 578 q 164 768 164 694 q 214 894 164 842 q 340 947 264 947 q 529 844 449 947 q 610 620 610 742 q 525 420 610 499 q 317 342 440 342 q 300 342 308 342 q 565 53 376 249 l 485 0 q 90 476 193 335 l 146 526 q 290 454 218 454 m 876 836 l 876 0 l 753 79 l 753 836 l 649 836 l 588 938 l 1025 938 l 1086 836 l 876 836 z "},"ष":{"ha":768,"x_min":-93,"x_max":864,"o":"m 647 836 l 647 0 l 524 82 l 531 344 q 380 288 464 288 q 201 382 296 288 q 101 581 106 476 l 101 836 l -25 836 l -93 938 l 796 938 l 864 836 l 647 836 m 346 388 q 500 456 435 388 l 221 750 l 221 522 q 259 425 221 463 q 346 388 297 388 m 524 836 l 231 836 l 524 519 l 524 836 z "},"स":{"ha":910,"x_min":-90,"x_max":1006,"o":"m 563 365 q 343 454 457 365 q 224 364 322 375 q 488 50 311 236 l 401 0 q 35 478 163 288 l 96 533 q 182 482 150 482 q 231 538 231 482 l 231 836 l -21 836 l -90 938 l 938 938 l 1006 836 l 789 836 l 789 0 l 669 81 l 674 403 q 563 365 625 365 m 351 836 l 351 540 q 517 476 425 476 q 669 540 610 476 l 669 836 l 351 836 z "},"ह":{"ha":703,"x_min":-87,"x_max":800,"o":"m 418 132 q 505 197 474 156 q 536 274 536 239 q 508 331 536 308 q 431 353 481 353 q 286 301 350 353 q 222 172 222 250 q 249 85 222 129 q 308 10 276 40 q 394 -57 340 -21 q 542 -143 460 -100 l 475 -190 q 401 -146 424 -160 q 312 -83 378 -132 q 210 3 246 -35 q 141 99 174 42 q 108 211 108 157 q 192 386 108 313 q 89 576 89 485 q 128 668 89 636 q 242 700 168 700 l 460 700 l 460 836 l -18 836 l -87 938 l 731 938 l 800 836 l 581 836 l 581 593 l 326 593 q 238 578 268 593 q 208 519 208 563 q 254 426 208 475 q 375 457 313 457 q 561 381 489 457 q 633 215 633 306 q 599 117 633 164 q 504 40 565 71 l 418 132 z "},"़":{"ha":0,"x_min":-662,"x_max":-476,"o":"m -662 -19 l -571 74 l -476 -19 l -569 -111 l -662 -19 z "},"ऽ":{"ha":844,"x_min":67,"x_max":707,"o":"m 685 244 q 619 82 685 151 q 442 13 554 13 q 315 37 378 13 q 206 100 253 61 q 67 244 113 174 l 124 299 q 241 176 168 231 q 401 121 314 121 q 528 163 489 121 q 568 264 568 204 q 475 433 568 347 l 268 631 q 168 818 168 725 q 210 903 168 871 q 325 936 251 936 l 635 936 l 707 836 l 379 835 q 324 816 344 835 q 303 765 303 797 q 389 633 303 713 l 546 490 q 646 369 607 435 q 685 244 685 303 z "},"ा":{"ha":364,"x_min":-87,"x_max":449,"o":"m 243 836 l 243 0 l 121 82 l 121 836 l -31 836 l -87 938 l 392 938 l 449 836 l 243 836 z "},"ि":{"ha":364,"x_min":-115,"x_max":988,"o":"m 121 836 l -51 836 l -115 938 l 124 938 q 65 1081 65 1001 q 150 1232 65 1183 q 350 1281 235 1281 q 695 1210 529 1281 q 988 1029 861 1140 l 940 988 q 690 1119 829 1068 q 411 1171 550 1171 q 178 1033 178 1171 q 196 975 178 1004 q 233 938 214 946 l 415 938 l 479 836 l 243 836 l 243 0 l 121 79 l 121 836 z "},"ी":{"ha":364,"x_min":-336,"x_max":485,"o":"m 243 836 l 243 0 l 121 92 l 121 836 l -51 836 l -122 938 l 135 938 q -40 1175 43 1129 q -124 1197 -79 1197 q -198 1175 -169 1197 q -226 1103 -226 1153 q -172 1025 -226 1054 l -233 989 q -303 1050 -271 1008 q -336 1153 -336 1092 q -287 1258 -336 1215 q -174 1300 -239 1300 q -56 1275 -108 1300 q 33 1215 -4 1250 q 108 1128 71 1181 q 215 938 165 1046 l 415 938 l 485 836 l 243 836 z "},"ु":{"ha":0,"x_min":-589,"x_max":-10,"o":"m -350 -62 q -314 43 -350 0 q -208 86 -278 86 q -74 17 -139 86 q -10 -122 -10 -51 q -67 -247 -10 -193 q -222 -301 -124 -301 q -419 -237 -321 -301 q -589 -76 -517 -172 l -535 -36 q -261 -203 -396 -203 q -150 -166 -196 -203 q -104 -78 -104 -129 q -123 -28 -104 -47 q -174 -8 -142 -8 q -231 -40 -207 -8 q -257 -119 -254 -72 l -350 -62 z "},"ू":{"ha":0,"x_min":-429,"x_max":163,"o":"m -201 -19 q -286 -49 -247 -19 q -325 -124 -325 -79 q -253 -208 -325 -208 q -167 -107 -183 -208 l -69 -169 q -115 -267 -79 -229 q -210 -304 -151 -304 q -358 -233 -287 -304 q -429 -86 -429 -161 q -374 38 -429 -11 q -237 88 -318 88 q 163 -224 -35 88 l 111 -269 q -201 -19 -57 -19 z "},"ृ":{"ha":0,"x_min":-426,"x_max":42,"o":"m -307 -99 q -325 -156 -325 -124 q -293 -213 -325 -189 q -218 -237 -261 -237 q -46 -154 -121 -237 l 42 -228 q -53 -301 6 -268 q -174 -335 -111 -335 q -346 -262 -265 -335 q -426 -106 -426 -190 q -322 36 -426 -32 q -294 53 -303 49 q -265 69 -285 58 q -242 82 -244 81 l -121 4 l -121 0 q -307 -99 -269 -46 z "},"ॅ":{"ha":0,"x_min":-483,"x_max":64,"o":"m -431 1285 q -223 1131 -335 1131 q -24 1294 -111 1131 l 64 1225 q -183 1036 -39 1036 q -483 1246 -357 1036 l -431 1285 z "},"ॆ":{"ha":0,"x_min":-757,"x_max":-147,"o":"m -418 1053 l -481 1053 q -660 1101 -606 1053 q -757 1254 -715 1149 l -700 1294 q -679 1246 -685 1258 q -657 1211 -674 1233 q -622 1182 -640 1189 q -490 1161 -565 1161 l -432 1161 q -233 1092 -297 1161 q -199 1053 -210 1068 q -175 1006 -187 1038 q -147 921 -160 967 l -217 892 q -262 996 -243 972 q -418 1053 -308 1053 z "},"े":{"ha":0,"x_min":-619,"x_max":-136,"o":"m -619 1238 q -499 1274 -561 1274 q -380 1240 -437 1274 q -278 1146 -322 1207 q -147 917 -211 1054 q -136 892 -140 900 l -200 861 q -385 1132 -303 1076 q -461 1158 -424 1158 q -547 1132 -499 1158 l -619 1238 z "},"ै":{"ha":0,"x_min":-629,"x_max":-126,"o":"m -447 1356 q -126 890 -235 1356 l -208 867 q -314 991 -242 929 q -467 1053 -386 1053 q -553 1031 -510 1053 l -629 1126 q -504 1158 -581 1158 q -337 1094 -428 1158 q -192 938 -247 1029 q -433 1247 -310 1247 q -487 1238 -467 1247 l -536 1338 q -447 1356 -496 1356 z "},"ॉ":{"ha":401,"x_min":-99,"x_max":497,"o":"m 268 836 l 268 0 l 144 82 l 144 836 l -31 836 l -87 938 l 439 938 l 497 836 l 268 836 m 160 1131 q 361 1294 274 1131 l 450 1225 q 204 1036 347 1036 q -99 1246 42 1036 l -44 1285 q 160 1131 60 1131 z "},"ॊ":{"ha":401,"x_min":-368,"x_max":497,"o":"m 268 836 l 268 0 l 144 82 l 144 836 l -31 836 l -87 938 l 157 938 q 91 1022 133 992 q -32 1053 49 1053 l -96 1053 q -285 1115 -225 1053 q -332 1176 -315 1147 q -368 1254 -349 1206 l -312 1294 q -301 1269 -310 1289 q -289 1244 -292 1249 q -277 1224 -286 1240 q -262 1205 -268 1208 q -244 1191 -256 1201 q -221 1178 -233 1181 q -192 1169 -208 1175 q -106 1161 -165 1161 l -47 1161 q 160 1085 92 1161 q 239 938 215 1022 l 439 938 l 497 836 l 268 836 z "},"ो":{"ha":376,"x_min":-246,"x_max":481,"o":"m 253 836 l 253 0 l 129 82 l 129 836 l -46 836 l -103 938 l 135 938 q 28 1098 82 1038 q -92 1158 -26 1158 q -174 1132 -125 1158 l -246 1238 q -127 1274 -187 1274 q -11 1243 -67 1274 q 88 1156 44 1213 q 215 938 154 1067 l 424 938 l 481 836 l 253 836 z "},"ौ":{"ha":376,"x_min":-257,"x_max":458,"o":"m 253 836 l 253 0 l 129 82 l 129 836 l -22 836 l -79 938 l 113 938 q -94 1053 22 1053 q -182 1031 -139 1053 l -257 1126 q -132 1158 -208 1158 q 35 1094 -56 1158 q 179 938 125 1029 q -61 1247 67 1247 q -117 1238 -94 1247 l -164 1338 q -69 1356 -126 1356 q 42 1313 -12 1356 q 135 1199 97 1271 q 235 938 197 1078 l 400 938 l 458 836 l 253 836 z "},"्":{"ha":0,"x_min":-360,"x_max":81,"o":"m -360 -93 q -269 -64 -310 -64 q -201 -72 -229 -64 q -152 -91 -174 -81 q -103 -124 -131 -101 q -61 -160 -76 -146 q -20 -206 -46 -175 q 15 -250 6 -237 q 81 -337 71 -322 l 24 -378 q -3 -340 19 -372 q -38 -294 -26 -308 q -76 -251 -50 -279 q -121 -210 -101 -224 q -216 -172 -174 -172 q -292 -189 -258 -172 l -360 -93 z "},"ॐ":{"ha":1608,"x_min":0,"x_max":0,"o":""},"॑":{"ha":415,"x_min":158,"x_max":257,"o":"m 257 1018 l 158 1018 l 158 1328 l 257 1328 l 257 1018 z "},"॒":{"ha":0,"x_min":-687,"x_max":-128,"o":"m -128 -181 l -128 -272 l -687 -272 l -687 -181 l -128 -181 z "},"॓":{"ha":549,"x_min":129,"x_max":428,"o":"m 428 1089 l 350 1029 l 129 1301 l 208 1364 l 428 1089 z "},"॔":{"ha":606,"x_min":189,"x_max":426,"o":"m 208 1047 l 189 1061 l 408 1335 l 426 1324 l 208 1047 z "},"क़":{"ha":1110,"x_min":-90,"x_max":1207,"o":"m 511 264 q 356 181 450 181 q 165 284 261 181 q 68 504 68 388 q 129 653 68 599 q 275 707 190 707 q 376 688 329 707 l 413 576 q 320 592 376 592 q 218 553 264 592 q 172 447 172 514 q 217 335 172 379 q 325 292 263 292 q 504 426 439 292 l 504 836 l -21 836 l -90 938 l 1139 938 l 1207 836 l 628 836 q 621 628 621 753 q 771 703 683 703 q 968 594 878 703 q 1058 372 1058 486 q 1002 231 1058 285 q 856 178 946 178 q 753 194 797 178 l 719 308 q 824 290 769 290 q 919 324 879 290 q 958 422 958 357 q 919 538 958 488 q 810 588 879 588 q 628 449 700 588 l 628 0 l 504 76 l 511 264 m 192 -19 l 283 74 l 378 -19 l 285 -111 l 192 -19 z "},"ख़":{"ha":1108,"x_min":-94,"x_max":1188,"o":"m 189 479 q 242 536 242 479 l 242 836 l -25 836 l -94 938 l 1118 938 l 1188 836 l 969 836 l 969 0 l 849 78 l 857 210 q 740 108 817 156 q 581 61 663 61 q 429 88 499 61 q 310 153 360 115 q 207 253 260 190 q 122 363 154 315 q 49 479 90 410 l 101 526 q 189 479 149 479 m 363 507 q 328 407 363 447 q 225 357 294 367 q 360 223 275 281 q 539 165 446 165 q 754 261 675 165 q 554 333 636 268 q 472 508 472 397 q 526 640 472 586 q 660 693 581 693 q 846 607 775 693 l 847 836 l 363 836 l 363 507 m 813 328 q 842 376 828 342 q 857 464 857 411 q 813 558 857 517 q 711 599 768 599 q 619 565 654 599 q 583 474 583 531 q 650 361 583 396 q 786 326 717 326 q 813 328 799 326 m 117 -19 l 208 74 l 303 -19 l 210 -111 l 117 -19 z "},"ग़":{"ha":751,"x_min":-89,"x_max":842,"o":"m 621 836 l 621 0 l 499 83 l 499 836 l 285 836 l 285 406 q 276 340 285 360 q 243 321 267 321 q 134 386 196 321 q 72 500 72 451 q 165 546 72 546 l 165 836 l -18 836 l -89 938 l 769 938 l 842 836 l 621 836 m 133 24 l 225 117 l 319 24 l 226 -68 l 133 24 z "},"ज़":{"ha":1000,"x_min":-97,"x_max":1086,"o":"m 744 526 l 478 526 q 575 319 575 440 q 529 196 575 244 q 414 147 483 147 q 294 176 344 147 q 207 247 243 206 q 136 353 171 289 q 38 586 90 438 l 104 625 q 274 293 186 363 q 365 260 315 260 q 444 288 415 260 q 474 371 474 317 q 315 617 474 464 l 328 636 l 744 636 l 744 836 l -28 836 l -97 938 l 1017 938 l 1086 836 l 868 836 l 868 0 l 744 79 l 744 526 m 101 -18 l 193 75 l 288 -18 l 194 -110 l 101 -18 z "},"ड़":{"ha":724,"x_min":-97,"x_max":822,"o":"m 114 290 q 231 165 164 214 q 378 115 297 115 q 521 163 460 115 q 582 275 582 211 q 565 321 582 301 q 522 340 549 340 q 429 313 496 340 q 324 286 363 286 q 178 367 250 286 q 106 530 106 447 q 151 654 106 613 q 282 696 197 696 l 481 696 l 481 836 l -28 836 l -97 938 l 754 938 l 822 836 l 599 836 l 599 588 l 313 588 q 197 489 197 588 q 221 419 197 449 q 278 390 244 390 q 383 418 311 390 q 486 446 456 446 q 615 374 558 446 q 671 224 671 301 q 597 82 671 147 q 414 17 522 17 q 210 80 306 17 q 54 246 115 143 l 114 290 m 326 -175 l 418 -82 l 513 -175 l 419 -267 l 326 -175 z "},"ढ़":{"ha":736,"x_min":-78,"x_max":832,"o":"m 590 836 l 590 571 l 390 571 q 238 525 296 571 q 179 386 179 479 q 244 231 179 293 q 400 167 310 169 q 346 301 346 231 q 389 417 346 371 q 501 464 432 464 q 633 405 571 464 q 694 265 694 346 q 622 126 694 183 q 454 68 549 68 q 194 178 313 68 q 75 449 75 289 q 140 614 75 547 q 322 681 204 681 l 468 681 l 468 836 l -8 836 l -78 938 l 764 938 l 832 836 l 590 836 m 469 336 q 455 319 469 336 q 440 256 440 303 q 469 175 440 208 q 566 223 525 186 q 607 310 607 260 q 590 353 607 338 q 536 369 574 369 q 469 336 499 369 m 364 -128 l 456 -35 l 550 -128 l 457 -219 l 364 -128 z "},"फ़":{"ha":1111,"x_min":-96,"x_max":1208,"o":"m 372 311 q 191 410 288 311 q 94 610 94 510 l 94 836 l -28 836 l -96 938 l 1139 938 l 1208 836 l 611 836 l 608 603 q 765 661 672 661 q 955 559 858 661 q 1051 354 1051 457 q 992 195 1051 251 q 836 139 933 139 q 754 149 806 139 l 714 265 q 811 251 757 251 q 906 288 865 251 q 947 390 947 324 q 906 503 947 457 q 803 550 865 550 q 613 428 675 550 l 613 0 l 488 79 l 494 358 q 372 311 436 311 m 326 419 q 490 514 419 419 l 490 836 l 217 836 l 217 551 q 247 457 217 494 q 326 419 278 419 m 163 51 l 254 144 l 349 51 l 256 -40 l 163 51 z "},"य़":{"ha":844,"x_min":-108,"x_max":925,"o":"m 708 836 l 708 0 l 585 82 l 589 314 q 395 215 501 215 q 174 324 289 215 q 60 521 60 432 q 86 561 60 547 q 244 654 204 619 q 285 718 285 689 q 260 782 285 747 q 199 836 236 817 l -39 836 l -108 938 l 856 938 l 925 836 l 708 836 m 346 326 q 585 488 497 326 l 585 836 l 307 836 q 378 754 353 803 q 403 682 403 706 q 401 649 403 658 q 396 631 399 639 q 386 613 393 622 q 374 598 379 604 q 358 582 369 592 q 341 567 347 572 q 319 552 335 563 q 296 537 304 542 q 269 519 288 532 q 232 497 250 507 q 203 475 214 486 q 192 444 192 464 q 242 362 192 397 q 346 326 293 326 m 111 17 l 203 110 l 297 17 l 204 -75 l 111 17 z "},"ॠ":{"ha":1203,"x_min":-99,"x_max":1299,"o":"m 932 461 q 797 431 872 431 q 665 454 722 431 l 665 0 l 542 79 l 542 383 l 244 133 l 150 204 l 525 485 q 324 608 422 608 q 125 528 226 608 l 49 622 q 272 710 153 710 q 542 553 410 710 l 542 836 l -28 836 l -99 938 l 1226 938 l 1299 836 l 665 836 l 665 525 q 729 515 690 515 q 864 547 818 515 q 832 630 832 593 q 859 690 832 667 q 924 713 886 713 q 1004 668 963 713 q 1046 580 1046 624 q 992 499 1046 536 q 1117 342 1086 404 q 1147 217 1147 278 q 1093 106 1147 157 q 963 54 1039 54 q 742 153 840 54 l 788 203 q 907 153 840 153 q 1006 181 974 153 q 1039 253 1039 210 q 1021 335 1039 296 q 985 398 1003 375 q 932 461 967 421 z "},"ॡ":{"ha":1024,"x_min":-97,"x_max":1160,"o":"m 863 -215 q 850 -221 863 -215 q 813 -253 838 -228 q 788 -313 788 -279 q 818 -368 788 -347 q 888 -389 849 -389 q 1072 -306 986 -389 l 1160 -379 q 1063 -451 1128 -417 q 938 -485 999 -485 q 765 -417 844 -485 q 686 -265 686 -349 q 732 -174 686 -219 q 629 -94 669 -146 q 589 17 589 -42 q 667 136 589 81 q 750 188 701 163 l 781 204 l 781 546 q 697 560 742 560 q 588 510 622 560 q 553 388 553 460 q 576 243 553 317 l 467 279 q 436 415 436 346 q 451 522 436 483 q 345 560 410 560 q 238 514 281 560 q 194 383 194 468 q 258 214 194 297 q 424 44 321 131 l 361 0 q 81 440 81 243 q 144 603 81 538 q 308 668 208 668 q 486 588 408 668 q 642 665 543 665 q 781 622 711 665 l 781 836 l -28 836 l -97 938 l 1053 938 l 1122 836 l 903 836 l 903 124 q 690 -28 690 60 q 721 -86 690 -65 q 792 -107 751 -107 q 907 -62 856 -107 l 992 -100 q 997 -124 989 -103 q 997 -151 1004 -146 l 985 -161 q 932 -183 975 -165 q 863 -215 889 -201 z "},"।":{"ha":458,"x_min":168,"x_max":290,"o":"m 290 835 l 290 6 l 168 88 l 168 918 l 290 835 z "},"॥":{"ha":785,"x_min":168,"x_max":639,"o":"m 290 835 l 290 6 l 168 86 l 168 918 l 290 835 m 639 835 l 639 6 l 515 86 l 515 918 l 639 835 z "},"०":{"ha":914,"x_min":150,"x_max":760,"o":"m 464 828 q 258 422 258 828 q 312 183 258 285 q 451 82 365 82 q 595 189 536 82 q 654 474 654 296 q 603 740 654 651 q 464 828 551 828 m 760 440 q 672 109 760 224 q 474 -6 583 -6 q 314 56 392 -6 q 233 145 268 92 q 174 290 197 199 q 150 499 150 381 q 179 708 150 618 q 256 844 208 799 q 433 928 342 928 q 613 861 533 928 q 739 631 703 783 q 760 440 760 546 z "},"१":{"ha":649,"x_min":101,"x_max":590,"o":"m 496 -7 q 549 -110 549 -54 q 492 -222 549 -165 l 397 -149 q 438 -76 438 -112 q 381 15 438 -39 l 163 224 q 128 288 128 258 q 176 353 128 317 q 260 410 204 372 q 351 476 315 449 q 407 524 386 503 q 450 572 428 546 q 493 683 493 625 q 456 786 493 742 q 355 831 418 831 q 253 793 292 831 q 214 701 214 756 q 308 557 214 622 l 263 513 q 153 608 206 544 q 101 747 101 671 q 164 878 101 824 q 301 933 226 933 q 502 833 414 933 q 590 621 590 732 q 463 422 590 532 q 293 289 399 368 q 264 242 264 267 q 293 190 264 218 l 496 -7 z "},"२":{"ha":729,"x_min":64,"x_max":654,"o":"m 354 933 q 561 818 468 933 q 654 571 654 703 q 565 398 654 479 q 372 282 476 317 l 619 -104 l 538 -154 l 296 264 q 243 258 263 258 q 155 307 197 258 q 113 410 113 356 q 147 467 113 444 q 215 490 181 490 q 315 386 256 490 q 491 477 418 411 q 564 627 564 543 q 506 765 564 711 q 364 818 449 818 q 126 740 247 818 l 64 844 q 354 933 219 933 z "},"३":{"ha":744,"x_min":76,"x_max":656,"o":"m 294 -8 q 153 63 214 14 q 93 153 93 111 q 120 226 93 194 q 174 257 147 257 q 216 247 200 257 q 253 211 232 238 q 328 97 285 168 q 483 163 413 106 q 554 304 554 219 q 526 397 554 350 q 474 458 497 444 q 300 378 417 419 l 242 475 l 243 481 q 513 697 513 563 q 473 792 513 753 q 369 831 433 831 q 157 725 249 831 l 76 808 q 331 928 189 928 q 519 840 438 928 q 600 657 600 751 q 529 506 600 590 q 617 398 578 464 q 656 261 656 332 q 576 94 656 168 q 381 -3 496 19 l 522 -208 l 443 -260 l 294 -8 z "},"४":{"ha":863,"x_min":33,"x_max":778,"o":"m 664 186 q 610 57 664 114 q 458 0 556 0 q 272 90 361 0 q 182 269 182 181 q 250 413 182 336 l 353 529 l 33 893 l 92 939 l 401 583 l 690 933 l 778 864 l 486 501 l 551 424 q 664 186 664 294 m 307 271 q 286 208 286 238 q 301 150 286 178 q 405 89 335 89 q 517 128 475 89 q 560 232 560 167 q 442 442 560 321 l 401 403 q 307 271 307 293 z "},"५":{"ha":861,"x_min":135,"x_max":718,"o":"m 718 435 q 443 3 718 3 q 397 8 425 3 l 546 -208 l 478 -256 l 314 31 q 190 102 244 58 q 135 196 135 146 q 158 253 135 226 q 207 279 181 279 q 260 253 233 279 q 302 202 286 226 q 333 153 318 178 q 349 127 347 129 q 351 122 350 125 q 354 118 353 119 q 431 99 382 99 q 522 128 481 99 q 618 439 618 194 q 618 463 618 450 q 468 397 544 397 q 262 492 365 397 q 158 713 158 588 q 215 933 158 810 l 325 871 q 260 678 260 760 q 305 542 260 596 q 411 489 350 489 q 522 519 472 489 q 603 593 571 550 q 557 922 586 775 l 676 867 q 718 435 718 589 z "},"६":{"ha":831,"x_min":122,"x_max":822,"o":"m 599 451 q 460 465 528 465 q 339 439 392 465 q 250 283 250 393 q 308 156 250 214 q 440 97 367 97 q 551 135 514 97 q 521 226 521 190 q 546 284 521 261 q 610 307 571 307 q 688 257 650 307 q 725 166 725 207 q 678 78 725 125 l 822 -136 l 742 -189 l 615 33 q 504 6 565 6 q 255 115 365 6 q 144 338 144 225 q 235 518 144 450 q 122 736 122 613 q 250 913 122 860 q 385 936 308 936 q 560 903 461 936 l 589 797 l 585 793 q 418 832 478 832 q 229 686 229 832 q 297 549 229 606 q 428 569 361 569 q 561 556 494 569 l 603 457 l 599 451 z "},"७":{"ha":1111,"x_min":65,"x_max":1031,"o":"m 467 604 q 531 758 467 696 q 679 821 596 821 q 923 690 815 821 q 1031 406 1031 558 q 936 151 1031 272 q 822 58 892 94 q 668 22 751 22 q 448 80 547 22 q 283 226 349 138 q 171 436 218 315 q 65 901 86 654 l 140 936 q 278 389 165 622 q 422 201 333 271 q 621 132 511 132 q 762 162 700 132 q 858 242 824 192 q 931 456 931 343 q 875 640 931 569 q 728 711 819 711 q 620 669 664 711 q 576 546 576 626 q 649 424 576 465 q 792 383 721 383 q 814 385 803 383 l 815 383 l 774 317 q 560 399 653 319 q 467 604 467 478 z "},"८":{"ha":763,"x_min":75,"x_max":704,"o":"m 411 -7 q 184 96 293 -7 q 75 289 75 199 q 133 456 75 379 l 499 936 l 600 871 l 247 386 q 196 256 196 318 q 248 145 196 193 q 378 97 300 97 q 515 160 456 97 q 604 321 574 224 l 610 322 l 704 253 q 525 17 633 67 q 411 -7 475 -7 z "},"९":{"ha":671,"x_min":51,"x_max":611,"o":"m 122 472 q 51 676 51 571 q 129 856 51 781 q 306 931 207 931 q 519 838 428 931 q 611 651 611 744 q 521 461 611 538 q 300 357 431 385 l 560 -18 q 592 -108 592 -67 q 497 -224 592 -178 l 404 -150 q 482 -61 482 -111 q 431 42 482 -32 l 122 472 m 361 492 q 390 505 361 492 q 467 572 419 518 q 514 690 514 626 q 472 790 514 753 q 354 826 431 826 q 219 771 278 826 q 161 624 161 715 q 238 453 161 532 q 361 492 303 465 z "},"॰":{"ha":707,"x_min":147,"x_max":561,"o":"m 355 601 q 401 601 355 601 q 504 546 447 601 q 561 409 561 490 q 504 268 561 328 q 354 204 447 208 q 207 259 267 204 q 147 398 147 314 q 205 541 147 482 q 355 601 263 600 m 313 272 q 432 326 382 272 q 482 446 482 379 q 459 508 482 483 q 397 532 436 532 q 281 486 335 532 q 226 365 226 440 q 249 299 226 325 q 313 272 272 272 z "},"ॽ":{"ha":853,"x_min":210,"x_max":738,"o":"m 510 -22 l 504 -22 l 400 51 l 400 364 q 436 485 400 421 q 514 594 472 549 q 629 789 629 721 q 593 862 629 833 q 494 890 557 890 q 303 772 378 890 l 210 861 q 310 958 249 921 q 444 996 372 996 q 643 913 549 996 q 738 742 738 829 q 657 581 738 676 q 590 500 624 542 q 510 285 510 397 l 510 -22 z "},"​":{"ha":0,"x_min":0,"x_max":0,"o":""},"‌":{"ha":0,"x_min":-32,"x_max":33,"o":"m 33 -319 l -32 -319 l -32 1126 l 33 1126 l 33 -319 z "},"‍":{"ha":0,"x_min":-176,"x_max":179,"o":"m 33 -319 l -32 -319 l -32 882 l -128 781 l -174 826 l -44 956 l -176 1088 l -131 1133 l 1 1001 l 135 1133 l 179 1089 l 46 956 l 179 824 l 133 778 l 33 882 l 33 -319 z "},"–":{"ha":853,"x_min":89,"x_max":804,"o":"m 804 458 l 139 458 l 89 557 l 89 565 l 754 565 l 804 467 l 804 458 z "},"—":{"ha":989,"x_min":89,"x_max":871,"o":"m 871 458 l 139 458 l 89 557 l 89 565 l 821 565 l 871 467 l 871 458 z "},"‘":{"ha":346,"x_min":93,"x_max":278,"o":"m 278 904 l 224 814 q 96 1003 93 868 q 199 1247 100 1115 l 267 1217 q 190 1042 193 1107 q 278 913 190 957 l 278 904 z "},"’":{"ha":344,"x_min":68,"x_max":249,"o":"m 249 1068 q 249 1060 249 1064 q 146 814 247 944 l 79 846 q 156 1021 153 951 q 68 1149 156 1103 l 68 1157 l 121 1247 q 249 1068 249 1194 z "},"‚":{"ha":344,"x_min":68,"x_max":249,"o":"m 249 111 q 249 101 249 107 q 146 -143 247 -15 l 79 -112 q 154 71 154 -4 q 68 190 154 146 l 68 197 l 121 288 q 219 214 189 261 q 249 111 249 167 z "},"“":{"ha":563,"x_min":96,"x_max":494,"o":"m 96 979 q 96 990 96 985 q 199 1236 99 1104 l 267 1206 q 190 1024 190 1100 q 276 901 190 949 l 276 893 l 224 804 q 96 979 96 856 m 442 804 q 313 978 313 856 q 415 1236 313 1100 l 483 1206 q 408 1023 408 1097 q 494 901 408 949 l 494 893 l 442 804 z "},"”":{"ha":563,"x_min":68,"x_max":467,"o":"m 364 804 l 296 835 q 372 1018 372 943 q 285 1139 372 1093 l 285 1146 l 338 1236 q 467 1063 467 1186 q 364 804 467 939 m 249 1060 q 249 1049 249 1054 q 146 804 247 932 l 79 835 q 156 1010 153 943 q 68 1139 156 1092 l 68 1146 l 122 1236 q 249 1060 249 1186 z "},"„":{"ha":563,"x_min":68,"x_max":467,"o":"m 364 -144 l 296 -114 q 372 69 372 -6 q 285 190 372 144 l 285 197 l 338 288 q 467 114 467 238 q 364 -144 467 -10 m 249 111 q 249 100 249 106 q 146 -144 247 -17 l 79 -114 q 156 61 153 -6 q 68 190 156 143 l 68 197 l 122 288 q 249 111 249 238 z "},"†":{"ha":867,"x_min":89,"x_max":778,"o":"m 778 746 l 489 746 l 489 -28 l 482 -28 l 376 54 l 376 746 l 139 746 l 89 844 l 89 853 l 376 853 l 376 1169 l 385 1169 l 489 1086 l 489 853 l 728 853 l 778 754 l 778 746 z "},"‡":{"ha":867,"x_min":89,"x_max":778,"o":"m 778 813 l 489 813 l 489 394 l 728 394 l 778 294 l 778 288 l 489 288 l 489 39 l 482 39 l 376 121 l 376 288 l 139 288 l 89 386 l 89 394 l 376 394 l 376 813 l 139 813 l 89 911 l 89 919 l 376 919 l 376 1236 l 385 1236 l 489 1153 l 489 919 l 728 919 l 778 821 l 778 813 z "},"•":{"ha":446,"x_min":121,"x_max":326,"o":"m 326 507 q 326 485 326 507 q 296 435 326 464 q 222 406 265 406 q 150 435 179 406 q 121 507 121 464 q 150 581 121 550 q 222 611 179 611 q 296 581 265 611 q 326 507 326 550 z "},"…":{"ha":915,"x_min":113,"x_max":799,"o":"m 254 83 q 242 70 254 83 q 194 58 229 58 q 136 83 160 58 q 113 141 113 107 q 136 199 113 175 q 194 224 160 224 q 254 199 229 224 q 279 141 279 175 q 254 83 279 107 m 517 83 q 504 70 517 83 q 457 58 492 58 q 399 83 422 58 q 375 141 375 107 q 399 199 375 175 q 457 224 422 224 q 517 199 492 224 q 542 141 542 175 q 517 83 542 107 m 775 83 q 763 70 775 83 q 717 58 751 58 q 658 83 682 58 q 633 141 633 107 q 658 199 633 175 q 717 224 682 224 q 775 199 751 224 q 799 141 799 175 q 775 83 799 107 z "},"‰":{"ha":1571,"x_min":106,"x_max":1478,"o":"m 371 67 l 249 67 l 782 953 l 901 953 l 371 67 m 196 728 q 220 613 196 656 q 285 569 244 569 q 350 610 326 569 q 374 728 374 651 q 285 878 374 878 q 196 728 196 878 m 106 731 q 106 780 106 731 q 151 893 106 828 q 285 958 197 958 q 419 893 374 958 q 465 728 465 828 q 420 563 465 629 q 288 496 375 496 q 153 565 200 496 q 106 731 106 635 m 786 288 q 810 174 786 217 q 874 132 833 132 q 940 173 915 132 q 964 288 964 214 q 874 440 964 440 q 786 288 786 440 m 741 456 q 764 489 741 456 q 875 521 786 521 q 1009 456 964 521 q 1054 291 1054 390 q 1010 125 1054 192 q 877 58 965 58 q 742 127 789 58 q 696 294 696 196 q 741 456 696 392 m 1210 288 q 1234 174 1210 217 q 1299 132 1258 132 q 1363 173 1339 132 q 1386 288 1386 214 q 1298 440 1386 440 q 1210 288 1210 440 m 1165 456 q 1188 488 1165 456 q 1299 521 1211 521 q 1432 456 1386 521 q 1478 291 1478 390 q 1433 125 1478 192 q 1300 58 1388 58 q 1165 127 1213 58 q 1118 293 1118 196 q 1165 456 1118 390 z "},"‹":{"ha":576,"x_min":135,"x_max":422,"o":"m 135 511 l 368 774 l 422 746 l 254 511 l 422 275 l 368 246 l 135 511 z "},"›":{"ha":576,"x_min":153,"x_max":440,"o":"m 207 840 l 440 578 l 207 313 l 153 342 l 321 578 l 153 813 l 207 840 z "},"⁄":{"ha":682,"x_min":14,"x_max":664,"o":"m 599 986 l 664 986 l 79 14 l 14 14 l 599 986 z "},"€":{"ha":776,"x_min":35,"x_max":725,"o":"m 288 549 l 286 499 q 289 442 286 478 l 578 442 q 578 421 578 438 q 564 378 578 404 l 297 378 q 376 203 318 264 q 522 143 433 143 q 699 210 611 143 l 725 175 q 481 49 622 49 q 269 135 360 49 q 151 378 179 222 l 36 378 q 50 442 36 407 l 144 442 q 142 505 142 478 q 143 549 142 532 l 35 549 q 49 613 35 583 l 150 613 q 268 860 176 771 q 488 949 360 949 q 721 847 615 949 l 699 803 q 522 854 614 854 q 373 792 431 854 q 296 613 315 731 l 582 613 q 568 549 583 583 l 288 549 z "},"₹":{"ha":749,"x_min":90,"x_max":746,"o":"m 526 515 q 472 378 526 431 q 339 313 418 325 q 267 303 300 303 q 553 -33 335 200 l 464 -85 q 90 397 190 246 l 151 456 q 262 408 199 408 q 365 443 325 408 q 404 538 404 478 l 404 582 l 97 579 l 97 686 l 404 683 l 404 836 l 96 835 l 96 938 l 692 938 l 746 835 l 526 836 l 526 683 l 694 686 l 746 579 l 526 582 l 526 515 z "},"™":{"ha":1129,"x_min":39,"x_max":1074,"o":"m 429 931 q 432 877 432 907 q 431 818 432 847 q 400 814 418 814 q 382 876 396 860 q 333 893 368 893 l 276 893 l 276 493 q 342 482 303 482 q 339 447 342 457 l 129 447 q 133 482 129 471 q 183 492 169 485 q 197 518 197 499 l 197 893 l 138 893 q 90 876 104 893 q 72 817 75 860 q 42 818 58 811 q 39 872 39 844 q 43 931 39 900 l 429 931 m 1072 482 q 1074 464 1074 472 q 1072 447 1074 456 l 883 447 q 883 482 879 465 q 936 518 936 486 l 921 853 l 761 447 l 736 447 l 588 856 l 561 490 q 619 482 583 482 q 614 447 617 457 l 454 447 q 458 482 454 467 q 514 521 513 486 l 539 892 q 486 899 511 899 q 489 931 483 919 l 638 931 l 760 583 l 897 931 l 1036 931 q 1042 899 1042 918 q 1001 888 1013 896 q 992 860 990 881 l 1017 490 q 1072 482 1040 482 z "},"−":{"ha":861,"x_min":89,"x_max":778,"o":"m 778 458 l 139 458 l 89 557 l 89 565 l 728 565 l 778 467 l 778 458 z "},"◌":{"ha":917,"x_min":61,"x_max":856,"o":"m 254 656 q 241 656 254 656 q 210 673 228 656 q 193 717 193 690 q 210 762 193 744 q 254 779 228 779 q 298 762 281 779 q 315 717 315 744 q 298 673 315 690 q 254 656 281 656 m 97 522 q 88 530 97 522 q 79 565 79 539 q 97 609 79 592 q 142 626 115 626 q 186 609 168 626 q 204 565 204 592 q 186 522 204 539 q 142 504 168 504 q 97 522 115 504 m 78 347 q 70 356 78 347 q 61 390 61 364 q 78 435 61 417 q 122 453 96 453 q 166 435 149 453 q 183 391 183 418 q 166 347 183 364 q 122 331 149 331 q 78 347 96 331 m 150 185 q 142 194 150 185 q 133 229 133 203 q 151 273 133 256 q 194 290 168 290 q 238 273 221 290 q 256 229 256 256 q 238 185 256 203 q 194 168 221 168 q 150 185 167 168 m 336 61 q 323 61 336 61 q 292 79 310 61 q 274 124 274 97 q 292 168 274 150 q 336 186 310 186 q 380 168 363 186 q 397 124 397 150 q 380 79 397 97 q 336 61 363 61 m 467 58 q 458 67 467 58 q 450 103 450 75 q 467 147 450 131 q 511 164 483 164 q 556 147 539 164 q 574 103 574 129 q 556 59 574 76 q 511 42 539 42 q 467 58 483 42 m 635 133 q 627 141 635 133 q 618 176 618 150 q 635 220 618 203 q 679 238 653 238 q 724 220 706 238 q 742 176 742 203 q 724 133 742 150 q 679 115 706 115 q 635 133 653 115 m 738 269 q 728 277 738 269 q 719 313 719 286 q 738 357 719 339 q 781 375 756 375 q 824 357 807 375 q 842 313 842 339 q 824 269 842 286 q 781 251 807 251 q 738 269 756 251 m 750 455 q 742 464 750 455 q 733 499 733 472 q 750 542 733 525 q 794 560 767 560 q 838 542 821 560 q 856 499 856 525 q 838 455 856 472 q 794 438 821 438 q 750 455 767 438 m 681 619 q 673 627 681 619 q 664 663 664 636 q 681 707 664 689 q 725 725 699 725 q 769 708 751 725 q 786 663 786 690 q 769 619 786 636 q 725 601 751 601 q 681 619 699 601 m 594 696 q 581 696 594 696 q 550 714 568 696 q 532 758 532 732 q 549 801 532 783 q 594 819 567 819 q 638 802 621 819 q 654 758 654 785 q 637 714 654 732 q 594 696 619 696 m 374 733 q 366 742 374 733 q 357 778 357 750 q 374 822 357 806 q 418 839 392 839 q 462 822 444 839 q 479 778 479 806 q 462 733 479 750 q 418 717 444 717 q 374 733 392 717 z "},"ﬁ":{"ha":832,"x_min":36,"x_max":781,"o":"m 463 67 q 461 89 461 75 q 467 119 461 103 q 536 140 515 125 q 557 190 557 154 l 557 626 l 265 626 l 265 142 q 361 119 306 122 q 361 103 361 115 q 357 67 361 92 l 38 67 q 36 89 36 75 q 42 119 36 103 q 111 141 90 126 q 132 192 132 156 l 132 624 q 46 629 94 629 q 49 669 46 650 q 132 693 90 688 l 132 779 q 207 985 132 917 q 399 1054 282 1054 q 610 1001 517 1054 q 704 886 704 947 q 682 835 704 856 q 628 814 660 814 q 569 842 597 814 q 522 902 542 869 q 465 962 501 935 q 375 989 428 989 q 265 843 265 986 l 265 694 q 690 711 539 694 l 690 139 q 781 119 726 122 q 775 67 781 88 l 463 67 z "},"ﬂ":{"ha":810,"x_min":36,"x_max":760,"o":"m 760 119 q 760 103 760 115 q 754 67 760 90 l 442 67 q 440 89 440 75 q 446 119 440 103 q 515 140 494 125 q 536 190 536 154 l 536 957 q 405 983 479 983 q 298 949 331 983 q 265 839 265 915 l 265 694 q 453 706 368 697 q 440 626 453 661 l 265 626 l 265 138 q 354 119 301 122 q 354 103 354 115 q 350 67 354 92 l 38 67 q 36 88 36 75 q 40 119 36 101 q 110 140 89 125 q 132 190 132 154 l 132 624 q 46 629 93 629 q 47 669 44 646 q 132 693 89 688 l 132 775 q 236 1000 132 932 q 453 1060 331 1060 q 669 1033 576 1060 l 669 139 q 760 119 707 122 z "}," ":{"ha":347,"x_min":0,"x_max":0,"o":""}}}
